# Blender v2.79 (sub 0) OBJ File: 'closet_open.blend'
# www.blender.org
mtllib closet_open.mtl
o nodebox2.001
v -0.312500 -0.437500 -0.500000
v -0.312500 1.437500 -0.500000
v -0.312500 1.437500 0.062500
v -0.312500 -0.437500 0.062500
v -0.375000 -0.437500 -0.500000
v -0.375000 -0.437500 0.062500
v -0.375000 1.437500 0.062500
v -0.375000 1.437500 -0.500000
v 0.500000 -0.500000 0.062500
v 0.500000 1.500000 0.062500
v 0.500000 1.500000 0.500000
v 0.500000 -0.500000 0.500000
v -0.500000 -0.500000 0.062500
v -0.500000 -0.500000 0.500000
v -0.500000 1.500000 0.500000
v -0.500000 1.500000 0.062500
vt 0.743902 0.974359
vt 0.743902 0.205128
vt 0.463415 0.205128
vt 0.463415 0.974359
vt 0.780488 0.230769
vt 1.000000 0.230769
vt 1.000000 1.000000
vt 0.780488 1.000000
vt 0.585366 0.205128
vt 0.560976 0.205128
vt 0.560976 0.974359
vt 0.585366 0.974359
vt 0.585366 0.615385
vt 0.585366 0.628205
vt 0.573171 0.628205
vt 0.573171 0.615385
vt 0.719512 0.897436
vt 0.451219 0.897436
vt 0.451219 0.871795
vt 0.719512 0.871795
vt 0.756098 0.615385
vt 0.756098 0.589744
vt 0.475610 0.589744
vt 0.475610 0.615385
vt 0.512195 0.179487
vt 0.512195 1.000000
vt 0.682927 1.000000
vt 0.682927 0.179487
vt 0.597561 0.179487
vt 0.426829 0.179487
vt 0.426829 1.000000
vt 0.597561 1.000000
vt 0.000000 0.179487
vt 0.390244 0.179487
vt 0.390244 1.000000
vt -0.000000 1.000000
vt 0.780488 0.179487
vt 0.780488 1.000000
vt 0.390244 1.000000
vt 0.390244 0.179487
vt 0.000000 -0.000000
vt 0.390244 0.000000
vt 0.390244 0.000000
vt 0.000000 0.000000
vt 0.000000 0.179487
vt 0.390244 0.179487
vn 1.0000 -0.0000 0.0000
vn -1.0000 0.0000 0.0000
vn 0.0000 0.0000 -1.0000
vn 0.0000 -0.0000 1.0000
vn 0.0000 -1.0000 -0.0000
vn 0.0000 1.0000 0.0000
usemtl none.002
s 1
f 1/1/1 2/2/1 3/3/1 4/4/1
f 5/5/2 6/6/2 7/7/2 8/8/2
f 1/9/3 5/10/3 8/11/3 2/12/3
f 4/13/4 3/14/4 7/15/4 6/16/4
f 1/17/5 4/18/5 6/19/5 5/20/5
f 2/21/6 8/22/6 7/23/6 3/24/6
f 9/25/1 10/26/1 11/27/1 12/28/1
f 13/29/2 14/30/2 15/31/2 16/32/2
f 9/33/3 13/34/3 16/35/3 10/36/3
f 12/37/4 11/38/4 15/39/4 14/40/4
f 9/33/5 12/41/5 14/42/5 13/34/5
f 10/43/6 16/44/6 15/45/6 11/46/6
