# Blender v2.79 (sub 0) OBJ File: 'closet.blend'
# www.blender.org
mtllib closet.mtl
o wardrove_nodebox1
v 0.500000 -0.500000 0.062500
v 0.500000 -0.500000 0.500000
v 0.500000 1.500000 0.500000
v 0.500000 1.500000 0.062500
v -0.500000 -0.500000 0.062500
v -0.500000 -0.500000 0.500000
v -0.500000 1.500000 0.500000
v -0.500000 1.500000 0.062500
vt 0.656250 0.179487
vt 0.875000 0.179487
vt 0.875000 1.000000
vt 0.656250 1.000000
vt 0.765625 0.179487
vt 0.546875 0.179487
vt 0.546875 1.000000
vt 0.765625 1.000000
vt 0.000000 0.179487
vt -0.000000 1.000000
vt 0.500000 1.000000
vt 0.515625 0.179487
vt 1.000000 0.179487
vt 1.000000 1.000000
vt 0.500000 1.000000
vt 0.500000 0.179487
vt 0.000000 0.000000
vt 0.500000 0.000000
vt 0.500000 0.179487
vt -0.000000 0.179487
vt 0.500000 0.179487
vt 0.500000 0.000000
vt 0.000000 0.000000
vn -1.0000 0.0000 0.0000
vn -0.5774 0.5774 0.5774
vn -0.7071 0.7071 0.0000
vn 0.0000 -0.0000 1.0000
vn 0.0000 0.7071 0.7071
vn 0.0000 -1.0000 0.0000
vn 0.0000 1.0000 0.0000
usemtl none
s 1
f 1/1/1 2/2/1 3/3/1 4/4/1
f 5/5/1 6/6/1 7/7/2 8/8/3
f 1/9/4 4/10/4 8/11/4 5/12/4
f 2/13/4 3/14/5 7/15/2 6/16/4
f 1/9/6 2/17/6 6/18/6 5/19/6
f 7/20/2 3/21/5 4/22/7 8/23/3
