# Blender v2.82 (sub 7) OBJ File: 'Pawn.blend'
# www.blender.org
mtllib chess_pawn.mtl
o Pawn_Sphere
v 0.000000 0.654795 -0.076537
v 0.000000 0.328598 -0.141421
v 0.054120 0.654795 -0.054120
v 0.100000 0.611441 -0.100000
v 0.130656 0.546556 -0.130656
v 0.141421 0.470019 -0.141421
v 0.130656 0.393483 -0.130656
v 0.100000 0.328598 -0.100000
v 0.059755 0.285244 -0.059755
v 0.076537 0.654795 -0.000000
v 0.141421 0.611441 -0.000000
v 0.184776 0.546556 -0.000000
v 0.200000 0.470019 -0.000000
v 0.184776 0.393483 -0.000000
v 0.141421 0.328598 -0.000000
v 0.054120 0.654795 0.054120
v 0.100000 0.611441 0.100000
v 0.130656 0.546556 0.130656
v 0.141421 0.470019 0.141421
v 0.130656 0.393483 0.130656
v 0.100000 0.328598 0.100000
v 0.059755 0.285244 0.059755
v 0.000000 0.654795 0.076537
v 0.000000 0.611441 0.141421
v 0.000000 0.546556 0.184776
v 0.000000 0.470019 0.200000
v 0.000000 0.393483 0.184776
v 0.000000 0.328598 0.141421
v -0.054120 0.654795 0.054120
v -0.100000 0.611441 0.100000
v -0.130656 0.546556 0.130656
v -0.141421 0.470019 0.141421
v -0.130656 0.393483 0.130656
v -0.100000 0.328598 0.100000
v -0.076537 0.654795 -0.000000
v -0.141421 0.611441 -0.000000
v -0.184776 0.546556 -0.000000
v -0.200000 0.470019 -0.000000
v -0.184776 0.393483 -0.000000
v -0.141421 0.328598 -0.000000
v -0.084506 0.285244 -0.000000
v -0.054120 0.654795 -0.054120
v -0.100000 0.611441 -0.100000
v -0.130656 0.546556 -0.130656
v -0.141421 0.470019 -0.141421
v -0.130656 0.393483 -0.130656
v -0.100000 0.328598 -0.100000
v -0.059755 0.285244 -0.059755
v 0.000000 0.670019 -0.000000
v 0.000000 0.611441 -0.141421
v 0.000000 0.546556 -0.184776
v -0.000000 0.470019 -0.200000
v 0.000000 0.393483 -0.184776
v -0.000000 -0.500000 -0.300000
v -0.000000 -0.080000 -0.178032
v 0.212132 -0.500000 -0.212132
v 0.300000 -0.500000 0.000000
v 0.212132 -0.500000 0.212132
v 0.125887 -0.080000 0.125887
v -0.000000 -0.500000 0.300000
v -0.212132 -0.500000 0.212132
v -0.125887 -0.080000 0.125887
v -0.300000 -0.500000 -0.000000
v -0.212132 -0.500000 -0.212132
v -0.125887 -0.080000 -0.125887
v -0.000000 -0.093638 -0.229393
v -0.000000 -0.119534 -0.254211
v 0.162206 -0.093638 -0.162206
v 0.179755 -0.119534 -0.179755
v 0.229393 -0.093638 0.000000
v 0.254211 -0.119534 0.000000
v 0.162206 -0.093638 0.162206
v 0.179755 -0.119534 0.179755
v -0.000000 -0.093638 0.229394
v -0.000000 -0.119534 0.254212
v -0.162206 -0.093638 0.162206
v -0.179755 -0.119534 0.179755
v -0.229394 -0.093638 -0.000000
v -0.254212 -0.119534 -0.000000
v -0.162206 -0.093638 -0.162206
v -0.179755 -0.119534 -0.179755
v 0.159172 -0.163609 -0.159172
v 0.225103 -0.163609 0.000000
v 0.159172 -0.163609 0.159172
v -0.000000 -0.163609 0.225103
v -0.159172 -0.163609 0.159172
v -0.225103 -0.163609 -0.000000
v -0.159172 -0.163609 -0.159172
v -0.000000 -0.163609 -0.225103
v -0.000000 -0.262979 -0.306694
v -0.000000 -0.283248 -0.306765
v 0.216916 -0.283248 -0.216916
v 0.216866 -0.262979 -0.216866
v 0.306765 -0.283248 0.000000
v 0.306694 -0.262979 0.000000
v 0.216916 -0.283248 0.216916
v 0.216866 -0.262979 0.216866
v -0.000000 -0.283248 0.306765
v -0.000000 -0.262979 0.306694
v -0.216916 -0.283248 0.216916
v -0.216866 -0.262979 0.216866
v -0.306765 -0.283248 -0.000000
v -0.306694 -0.262979 -0.000000
v -0.216915 -0.283248 -0.216916
v -0.216865 -0.262979 -0.216866
v -0.000000 -0.330078 -0.286417
v 0.202527 -0.330078 -0.202527
v 0.286417 -0.330078 0.000000
v 0.202527 -0.330078 0.202527
v -0.000000 -0.330078 0.286417
v -0.202528 -0.330078 0.202527
v -0.286417 -0.330078 -0.000000
v -0.202527 -0.330078 -0.202528
v 0.212132 -0.371978 -0.212132
v 0.300000 -0.371978 0.000000
v 0.212132 -0.371978 0.212132
v -0.000000 -0.371978 0.300000
v -0.212132 -0.371978 0.212132
v -0.300000 -0.371978 -0.000000
v -0.212132 -0.371978 -0.212132
v -0.000000 -0.371978 -0.300000
v 0.125887 -0.080000 -0.125887
v 0.178032 -0.080000 0.000000
v -0.000000 -0.080000 0.178032
v -0.178032 -0.080000 -0.000000
v -0.060219 0.285244 0.060218
v -0.000000 0.285244 0.085162
v 0.085162 0.285244 0.000000
v -0.000000 0.285244 -0.085162
v -0.099933 0.225921 -0.099933
v -0.099933 0.225921 0.099933
v 0.099933 0.225921 0.099933
v 0.099933 0.225921 -0.099933
v -0.141326 0.225921 -0.000000
v -0.000000 0.225921 0.141326
v 0.141326 0.225921 0.000000
v -0.000000 0.225921 -0.141326
v -0.061447 0.196730 -0.061447
v -0.061447 0.196730 0.061447
v 0.061447 0.196730 0.061447
v 0.061447 0.196730 -0.061447
v -0.086900 0.196730 -0.000000
v -0.000000 0.196730 0.086900
v 0.086900 0.196730 0.000000
v -0.000000 0.196730 -0.086900
v -0.082155 0.056039 -0.082155
v -0.082155 0.056039 0.082155
v 0.082155 0.056039 0.082155
v 0.082155 0.056039 -0.082155
v -0.116185 0.056039 -0.000000
v -0.000000 0.056039 0.116185
v 0.116185 0.056039 0.000000
v -0.000000 0.056039 -0.116185
v -0.000000 -0.500000 -0.000000
vt 0.500003 0.763648
vt 0.500003 0.829063
vt 0.400005 0.829063
vt 0.400005 0.763648
vt 0.500003 0.894477
vt 0.500003 0.949934
vt 0.400005 0.949934
vt 0.400005 0.894477
vt 0.500004 0.986988
vt 0.548135 1.000000
vt 0.400008 0.986988
vt 0.500003 0.708192
vt 0.400005 0.708192
vt 0.500004 0.671137
vt 0.400007 0.671137
vt 0.300005 0.763648
vt 0.300006 0.708192
vt 0.300005 0.894477
vt 0.300005 0.829063
vt 0.300009 0.986988
vt 0.300006 0.949934
vt 0.200006 0.986988
vt 0.200005 0.949934
vt 0.200005 0.829063
vt 0.200005 0.763648
vt 0.200005 0.894477
vt 0.200005 0.708192
vt 0.200006 0.671137
vt 0.100003 0.708192
vt 0.100003 0.671137
vt 0.100004 0.829063
vt 0.100004 0.763648
vt 0.100004 0.949934
vt 0.100004 0.894477
vt 0.899996 0.986988
vt 0.100003 0.986988
vt 0.799994 0.986988
vt 0.000003 0.763648
vt 0.000003 0.708192
vt 0.000003 0.894477
vt 0.000003 0.829063
vt 0.000000 0.986988
vt 0.000003 0.949934
vt 0.000001 0.671137
vt 0.799996 0.708192
vt 0.799997 0.763648
vt 0.699998 0.763648
vt 0.699997 0.708192
vt 0.799997 0.829063
vt 0.799997 0.894477
vt 0.699998 0.894477
vt 0.699998 0.829063
vt 0.799996 0.949934
vt 0.699995 0.986988
vt 0.699997 0.949934
vt 0.799995 0.671137
vt 0.699995 0.671137
vt 0.600000 0.708192
vt 0.599999 0.671137
vt 0.600000 0.829063
vt 0.600000 0.763648
vt 0.600000 0.949934
vt 0.600000 0.894477
vt 0.599999 0.986988
vt 0.300008 0.671137
vt 0.200004 0.109419
vt 0.100004 0.109419
vt 0.100004 0.000000
vt 0.200004 0.000000
vt 0.000004 0.109419
vt 0.000004 0.000000
vt 0.799998 0.109419
vt 0.699999 0.109419
vt 0.699999 0.000000
vt 0.799998 0.000000
vt 0.600000 0.109419
vt 0.600000 0.000000
vt 0.500002 0.109419
vt 0.500002 0.000000
vt 0.200005 0.325179
vt 0.200005 0.287509
vt 0.300005 0.287509
vt 0.300005 0.325179
vt 0.300005 0.109419
vt 0.300005 0.000000
vt 0.550260 0.000000
vt 0.300004 0.185255
vt 0.300005 0.145230
vt 0.400004 0.145230
vt 0.400004 0.185255
vt 0.699999 0.202579
vt 0.600000 0.202579
vt 0.600000 0.185255
vt 0.699999 0.185255
vt 0.500002 0.202578
vt 0.500002 0.185255
vt 0.500002 0.325179
vt 0.500002 0.287509
vt 0.600000 0.287509
vt 0.600000 0.325179
vt 0.699998 0.287509
vt 0.699998 0.325179
vt 0.799998 0.287509
vt 0.799998 0.325179
vt 0.000004 0.325179
vt 0.000004 0.287509
vt 0.100004 0.287509
vt 0.100004 0.325179
vt 0.400005 0.358968
vt 0.300005 0.358968
vt 0.300005 0.347312
vt 0.400004 0.347312
vt 0.400004 0.287509
vt 0.400004 0.325179
vt 0.600000 0.347312
vt 0.600000 0.358968
vt 0.500003 0.358968
vt 0.500002 0.347312
vt 0.699998 0.358968
vt 0.699998 0.347312
vt 0.799997 0.358968
vt 0.799998 0.347312
vt 0.100004 0.358968
vt 0.000003 0.358968
vt 0.000004 0.347312
vt 0.100004 0.347312
vt 0.200005 0.358968
vt 0.200005 0.347312
vt 0.500002 0.145230
vt 0.200004 0.202579
vt 0.300004 0.202579
vt 0.100004 0.202579
vt 0.000004 0.202579
vt 0.799998 0.202579
vt 0.400004 0.109419
vt 0.400004 0.000000
vt 0.200005 0.145230
vt 0.100004 0.145230
vt 0.000004 0.145230
vt 0.799998 0.145230
vt 0.699999 0.145230
vt 0.600000 0.145230
vt 0.799998 0.185255
vt 0.000004 0.185255
vt 0.100004 0.185255
vt 0.200004 0.185255
vt 0.400004 0.202578
vt 1.000000 0.671137
vt 0.899997 0.671137
vt 0.600000 0.620435
vt 0.699997 0.620435
vt 0.000002 0.620435
vt 0.100003 0.620435
vt 0.200005 0.620435
vt 0.300006 0.620435
vt 0.400005 0.620435
vt 0.500003 0.620435
vt 0.799996 0.620435
vt 0.300008 0.595486
vt 0.400007 0.595486
vt 0.100003 0.595486
vt 0.200006 0.595486
vt 0.699995 0.595486
vt 0.799995 0.595486
vt 0.500004 0.595486
vt 0.599999 0.595486
vt 0.000001 0.595486
vt 0.599999 0.475239
vt 0.699997 0.475239
vt 0.000002 0.475239
vt 0.100003 0.475239
vt 0.200005 0.475239
vt 0.300007 0.475239
vt 0.400006 0.475239
vt 0.500003 0.475239
vt 0.799996 0.475239
vt 0.899998 0.000000
vn 0.3764 -0.1807 -0.9087
vn 0.3256 0.5253 -0.7862
vn 0.0805 0.9776 -0.1945
vn 0.3256 -0.5253 -0.7862
vn 0.3764 0.1807 -0.9087
vn 0.2243 0.8103 -0.5414
vn 0.2463 -0.7698 -0.5889
vn 0.7862 -0.5253 -0.3256
vn 0.9087 0.1807 -0.3764
vn 0.5414 0.8103 -0.2243
vn 0.9087 -0.1807 -0.3764
vn 0.7862 0.5253 -0.3256
vn 0.1945 0.9776 -0.0805
vn 0.5414 0.8103 0.2243
vn 0.9087 -0.1807 0.3764
vn 0.7862 0.5253 0.3256
vn 0.1945 0.9776 0.0805
vn 0.7862 -0.5253 0.3256
vn 0.9087 0.1807 0.3764
vn 0.2463 -0.7698 0.5889
vn 0.3764 -0.1807 0.9087
vn 0.3256 0.5253 0.7862
vn 0.0805 0.9776 0.1945
vn 0.3256 -0.5253 0.7862
vn 0.3764 0.1807 0.9087
vn 0.2243 0.8103 0.5414
vn -0.0805 0.9776 0.1945
vn -0.3256 -0.5253 0.7862
vn -0.3764 0.1807 0.9087
vn -0.2243 0.8103 0.5414
vn -0.2451 -0.7679 0.5918
vn -0.3764 -0.1807 0.9087
vn -0.3256 0.5253 0.7862
vn -0.7862 -0.5253 0.3256
vn -0.9087 0.1807 0.3764
vn -0.5414 0.8103 0.2243
vn -0.5906 -0.7698 0.2422
vn -0.9087 -0.1807 0.3764
vn -0.7862 0.5253 0.3256
vn -0.1945 0.9776 0.0805
vn -0.5877 -0.7716 -0.2434
vn -0.9087 -0.1807 -0.3764
vn -0.7862 0.5253 -0.3256
vn -0.1945 0.9776 -0.0805
vn -0.7862 -0.5253 -0.3256
vn -0.9087 0.1807 -0.3764
vn -0.5414 0.8103 -0.2243
vn -0.3764 -0.1807 -0.9087
vn -0.3256 0.5253 -0.7862
vn -0.0805 0.9776 -0.1945
vn -0.3256 -0.5253 -0.7862
vn -0.3764 0.1807 -0.9087
vn -0.2243 0.8103 -0.5414
vn -0.2463 -0.7698 -0.5889
vn 0.5889 -0.7698 0.2463
vn 0.5889 -0.7698 -0.2463
vn 0.3827 0.0000 0.9239
vn -0.3827 0.0000 0.9239
vn -0.9239 0.0000 0.3827
vn -0.9239 0.0000 -0.3827
vn -0.3827 0.0000 -0.9239
vn 0.7887 -0.5209 0.3267
vn 0.9239 0.0000 0.3827
vn 0.0000 -1.0000 0.0000
vn 0.8574 -0.3725 -0.3551
vn -0.9239 0.0032 -0.3827
vn -0.3827 0.0032 -0.9239
vn -0.3267 -0.5209 -0.7887
vn -0.7887 -0.5209 -0.3267
vn -0.7887 -0.5209 0.3267
vn -0.3267 -0.5209 0.7887
vn 0.3267 -0.5209 0.7887
vn 0.2552 0.9611 -0.1057
vn 0.7887 -0.5209 -0.3267
vn -0.1057 0.9611 -0.2552
vn -0.2552 0.9611 -0.1057
vn -0.2552 0.9611 0.1057
vn -0.1057 0.9611 0.2552
vn 0.1057 0.9611 0.2552
vn 0.2552 0.9611 0.1057
vn 0.3551 -0.3725 -0.8574
vn 0.7361 0.6044 0.3049
vn 0.3049 0.6044 0.7361
vn -0.3049 0.6044 0.7361
vn -0.7361 0.6044 0.3049
vn -0.7361 0.6044 -0.3049
vn -0.3049 0.6044 -0.7361
vn 0.3827 0.0000 -0.9239
vn 0.3267 -0.5209 -0.7887
vn 0.1057 0.9611 -0.2552
vn 0.2865 0.6629 -0.6917
vn 0.6917 0.6629 -0.2865
vn 0.6917 0.6629 0.2865
vn 0.2865 0.6629 0.6917
vn -0.2865 0.6629 0.6917
vn -0.6917 0.6629 0.2865
vn 0.8850 0.2869 -0.3666
vn 0.8850 0.2869 0.3666
vn 0.3666 0.2869 0.8850
vn -0.3666 0.2869 0.8850
vn -0.8850 0.2869 0.3666
vn -0.8850 0.2869 -0.3666
vn -0.3666 0.2869 -0.8850
vn -0.2865 0.6629 -0.6917
vn 0.3666 0.2869 -0.8850
vn -0.9239 0.0032 0.3827
vn -0.3827 0.0032 0.9239
vn -0.3551 -0.3725 -0.8574
vn 0.3827 0.0032 0.9239
vn -0.8574 -0.3725 -0.3551
vn 0.9239 0.0032 0.3827
vn -0.8574 -0.3725 0.3551
vn 0.9239 0.0032 -0.3827
vn -0.3551 -0.3725 0.8574
vn 0.3827 0.0032 -0.9239
vn 0.3551 -0.3725 0.8574
vn 0.3049 0.6044 -0.7361
vn 0.8574 -0.3725 0.3551
vn 0.7361 0.6044 -0.3049
vn 0.9239 0.0000 -0.3827
vn -0.6917 0.6629 -0.2865
vn 0.0000 1.0000 0.0000
vn -0.6919 0.6627 -0.2866
vn -0.2880 0.6584 0.6954
vn 0.6926 0.6605 0.2897
vn 0.2897 0.6605 -0.6926
vn -0.2897 0.6605 -0.6926
vn -0.6946 0.6605 0.2849
vn 0.2897 0.6605 0.6926
vn 0.6926 0.6605 -0.2897
vn 0.4638 -0.8648 -0.1921
vn 0.1921 -0.8648 0.4638
vn -0.4638 -0.8648 0.1921
vn -0.1921 -0.8648 -0.4638
vn 0.1921 -0.8648 -0.4638
vn 0.4638 -0.8648 0.1921
vn -0.1921 -0.8648 0.4638
vn -0.4638 -0.8648 -0.1921
vn -0.9073 0.1889 -0.3758
vn -0.3758 0.1889 0.9073
vn 0.9073 0.1889 0.3758
vn 0.3758 0.1889 -0.9073
vn -0.3758 0.1889 -0.9073
vn -0.9073 0.1889 0.3758
vn 0.3758 0.1889 0.9073
vn 0.9073 0.1889 -0.3758
vn 0.8518 0.3872 -0.3528
vn 0.3528 0.3872 0.8518
vn -0.8518 0.3872 0.3528
vn -0.3528 0.3872 -0.8518
vn 0.3528 0.3872 -0.8518
vn 0.8518 0.3872 0.3528
vn -0.3528 0.3872 0.8518
vn -0.8518 0.3872 -0.3528
usemtl None
s off
f 53/1/1 52/2/1 6/3/1 7/4/1
f 51/5/2 50/6/2 4/7/2 5/8/2
f 1/9/3 49/10/3 3/11/3
f 2/12/4 53/1/4 7/4/4 8/13/4
f 52/2/5 51/5/5 5/8/5 6/3/5
f 50/6/6 1/9/6 3/11/6 4/7/6
f 129/14/7 2/12/7 8/13/7 9/15/7
f 8/13/8 7/4/8 14/16/8 15/17/8
f 6/3/9 5/8/9 12/18/9 13/19/9
f 4/7/10 3/11/10 10/20/10 11/21/10
f 7/4/11 6/3/11 13/19/11 14/16/11
f 5/8/12 4/7/12 11/21/12 12/18/12
f 3/11/13 49/10/13 10/20/13
f 11/21/14 10/20/14 16/22/14 17/23/14
f 14/16/15 13/19/15 19/24/15 20/25/15
f 12/18/16 11/21/16 17/23/16 18/26/16
f 10/20/17 49/10/17 16/22/17
f 15/17/18 14/16/18 20/25/18 21/27/18
f 13/19/19 12/18/19 18/26/19 19/24/19
f 22/28/20 21/27/20 28/29/20 127/30/20
f 20/25/21 19/24/21 26/31/21 27/32/21
f 18/26/22 17/23/22 24/33/22 25/34/22
f 16/22/23 49/10/23 23/35/23
f 21/27/24 20/25/24 27/32/24 28/29/24
f 19/24/25 18/26/25 25/34/25 26/31/25
f 17/23/26 16/22/26 23/36/26 24/33/26
f 23/35/27 49/10/27 29/37/27
f 28/29/28 27/32/28 33/38/28 34/39/28
f 26/31/29 25/34/29 31/40/29 32/41/29
f 24/33/30 23/36/30 29/42/30 30/43/30
f 127/30/31 28/29/31 34/39/31 126/44/31
f 27/32/32 26/31/32 32/41/32 33/38/32
f 25/34/33 24/33/33 30/43/33 31/40/33
f 34/45/34 33/46/34 39/47/34 40/48/34
f 32/49/35 31/50/35 37/51/35 38/52/35
f 30/53/36 29/37/36 35/54/36 36/55/36
f 126/56/37 34/45/37 40/48/37 41/57/37
f 33/46/38 32/49/38 38/52/38 39/47/38
f 31/50/39 30/53/39 36/55/39 37/51/39
f 29/37/40 49/10/40 35/54/40
f 41/57/41 40/48/41 47/58/41 48/59/41
f 39/47/42 38/52/42 45/60/42 46/61/42
f 37/51/43 36/55/43 43/62/43 44/63/43
f 35/54/44 49/10/44 42/64/44
f 40/48/45 39/47/45 46/61/45 47/58/45
f 38/52/46 37/51/46 44/63/46 45/60/46
f 36/55/47 35/54/47 42/64/47 43/62/47
f 46/61/48 45/60/48 52/2/48 53/1/48
f 44/63/49 43/62/49 50/6/49 51/5/49
f 42/64/50 49/10/50 1/9/50
f 47/58/51 46/61/51 53/1/51 2/12/51
f 45/60/52 44/63/52 51/5/52 52/2/52
f 43/62/53 42/64/53 1/9/53 50/6/53
f 48/59/54 47/58/54 2/12/54 129/14/54
f 15/17/55 21/27/55 22/28/55 128/65/55
f 128/65/56 9/15/56 8/13/56 15/17/56
f 116/66/57 117/67/57 60/68/57 58/69/57
f 117/67/58 118/70/58 61/71/58 60/68/58
f 118/72/59 119/73/59 63/74/59 61/75/59
f 119/73/60 120/76/60 64/77/60 63/74/60
f 120/76/61 121/78/61 54/79/61 64/77/61
f 73/80/62 84/81/62 83/82/62 71/83/62
f 115/84/63 116/66/63 58/69/63 57/85/63
f 54/79/64 154/86/64 64/77/64
f 94/87/65 108/88/65 107/89/65 92/90/65
f 103/91/66 105/92/66 104/93/66 102/94/66
f 105/92/67 90/95/67 91/96/67 104/93/67
f 67/97/68 89/98/68 88/99/68 81/100/68
f 81/100/69 88/99/69 87/101/69 79/102/69
f 79/102/70 87/101/70 86/103/70 77/104/70
f 77/105/71 86/106/71 85/107/71 75/108/71
f 75/108/72 85/107/72 84/81/72 73/80/72
f 122/109/73 123/110/73 70/111/73 68/112/73
f 71/83/74 83/82/74 82/113/74 69/114/74
f 80/115/75 65/116/75 55/117/75 66/118/75
f 125/119/76 65/116/76 80/115/76 78/120/76
f 62/121/77 125/119/77 78/120/77 76/122/77
f 124/123/78 62/124/78 76/125/78 74/126/78
f 59/127/79 124/123/79 74/126/79 72/128/79
f 123/110/80 59/127/80 72/128/80 70/111/80
f 92/90/81 107/89/81 106/129/81 91/96/81
f 97/130/82 95/131/82 83/82/82 84/81/82
f 99/132/83 97/130/83 84/81/83 85/107/83
f 101/133/84 99/132/84 85/107/84 86/106/84
f 103/91/85 101/134/85 86/103/85 87/101/85
f 105/92/86 103/91/86 87/101/86 88/99/86
f 90/95/87 105/92/87 88/99/87 89/98/87
f 121/78/88 114/135/88 56/136/88 54/79/88
f 69/114/89 82/113/89 89/98/89 67/97/89
f 55/117/90 122/109/90 68/112/90 66/118/90
f 69/114/91 67/97/91 66/118/91 68/112/91
f 71/83/92 69/114/92 68/112/92 70/111/92
f 73/80/93 71/83/93 70/111/93 72/128/93
f 75/108/94 73/80/94 72/128/94 74/126/94
f 77/105/95 75/108/95 74/126/95 76/125/95
f 79/102/96 77/104/96 76/122/96 78/120/96
f 115/84/97 114/135/97 107/89/97 108/88/97
f 116/66/98 115/84/98 108/88/98 109/137/98
f 117/67/99 116/66/99 109/137/99 110/138/99
f 118/70/100 117/67/100 110/138/100 111/139/100
f 119/73/101 118/72/101 111/140/101 112/141/101
f 120/76/102 119/73/102 112/141/102 113/142/102
f 121/78/103 120/76/103 113/142/103 106/129/103
f 67/97/104 81/100/104 80/115/104 66/118/104
f 114/135/105 121/78/105 106/129/105 107/89/105
f 101/134/106 103/91/106 102/94/106 100/143/106
f 99/132/107 101/133/107 100/144/107 98/145/107
f 104/93/108 91/96/108 106/129/108 113/142/108
f 97/130/109 99/132/109 98/145/109 96/146/109
f 104/93/110 113/142/110 112/141/110 102/94/110
f 95/131/111 97/130/111 96/146/111 94/87/111
f 102/94/112 112/141/112 111/140/112 100/143/112
f 93/147/113 95/131/113 94/87/113 92/90/113
f 100/144/114 111/139/114 110/138/114 98/145/114
f 90/95/115 93/147/115 92/90/115 91/96/115
f 98/145/116 110/138/116 109/137/116 96/146/116
f 93/147/117 90/95/117 89/98/117 82/113/117
f 96/146/118 109/137/118 108/88/118 94/87/118
f 95/131/119 93/147/119 82/113/119 83/82/119
f 114/135/120 115/84/120 57/85/120 56/136/120
f 81/100/121 79/102/121 78/120/121 80/115/121
f 22/148/122 128/65/122 9/15/122 129/14/122 48/59/122 41/57/122 126/56/122 127/149/122
f 130/150/123 134/151/123 41/57/123 48/59/123
f 131/152/124 135/153/124 127/30/124 126/44/124
f 132/154/125 136/155/125 128/65/125 22/28/125
f 133/156/126 137/157/126 129/14/126 9/15/126
f 137/157/127 130/150/127 48/59/127 129/14/127
f 134/151/128 131/158/128 126/56/128 41/57/128
f 135/153/129 132/154/129 22/28/129 127/30/129
f 136/155/130 133/156/130 9/15/130 128/65/130
f 144/159/131 141/160/131 133/156/131 136/155/131
f 143/161/132 140/162/132 132/154/132 135/153/132
f 142/163/133 139/164/133 131/158/133 134/151/133
f 145/165/134 138/166/134 130/150/134 137/157/134
f 141/160/135 145/165/135 137/157/135 133/156/135
f 140/162/136 144/159/136 136/155/136 132/154/136
f 139/167/137 143/161/137 135/153/137 131/152/137
f 138/166/138 142/163/138 134/151/138 130/150/138
f 146/168/139 150/169/139 142/163/139 138/166/139
f 147/170/140 151/171/140 143/161/140 139/167/140
f 148/172/141 152/173/141 144/159/141 140/162/141
f 149/174/142 153/175/142 145/165/142 141/160/142
f 153/175/143 146/168/143 138/166/143 145/165/143
f 150/169/144 147/176/144 139/164/144 142/163/144
f 151/171/145 148/172/145 140/162/145 143/161/145
f 152/173/146 149/174/146 141/160/146 144/159/146
f 123/110/147 122/109/147 149/174/147 152/173/147
f 124/123/148 59/127/148 148/172/148 151/171/148
f 125/119/149 62/121/149 147/176/149 150/169/149
f 55/117/150 65/116/150 146/168/150 153/175/150
f 122/109/151 55/117/151 153/175/151 149/174/151
f 59/127/152 123/110/152 152/173/152 148/172/152
f 62/124/153 124/123/153 151/171/153 147/170/153
f 65/116/154 125/119/154 150/169/154 146/168/154
f 64/77/64 154/86/64 63/74/64
f 60/177/64 154/86/64 58/69/64
f 154/86/64 57/85/64 58/69/64
f 56/136/64 154/86/64 54/79/64
f 61/75/64 154/86/64 60/177/64
f 57/85/64 154/86/64 56/136/64
f 63/74/64 154/86/64 61/75/64
