v 0.03125 0 0.03125
v 0.03125 0 -0.03125
v 0.03125 -0.5 0.03125
v 0.03125 -0.5 -0.03125
v -0.03125 0 -0.03125
v -0.03125 0 0.03125
v -0.03125 -0.5 -0.03125
v -0.03125 -0.5 0.03125
vt 0 0.5
vt 0.1111111111111111 0.5
vt 0.1111111111111111 0
vt 0 0
vt 0 0.5
vt 0.1111111111111111 0.5
vt 0.1111111111111111 0
vt 0 0
vt 0 0.5
vt 0.1111111111111111 0.5
vt 0.1111111111111111 0
vt 0 0
vt 0 0.5
vt 0.1111111111111111 0.5
vt 0.1111111111111111 0
vt 0 0
vt 0 0.5
vt 0.1111111111111111 0.5
vt 0.1111111111111111 0.4375
vt 0 0.4375
vn 0 0 -1
vn 1 0 0
vn 0 0 1
vn -1 0 0
vn 0 1 0
f 4/4/1 7/3/1 5/2/1 2/1/1
f 3/8/2 4/7/2 2/6/2 1/5/2
f 8/12/3 3/11/3 1/10/3 6/9/3
f 7/16/4 8/15/4 6/14/4 5/13/4
f 6/20/5 1/19/5 2/18/5 5/17/5
v 0.25450143164471395 0.0258782872190938 0.125
v 0.25450143164471395 0.0258782872190938 -0.125
v 0.25450143164471395 0.0258782872190938 0.125
v 0.25450143164471395 0.0258782872190938 -0.125
v 0.013019975072446899 -0.03882647405653633 -0.125
v 0.013019975072446899 -0.03882647405653633 0.125
v 0.013019975072446899 -0.03882647405653633 -0.125
v 0.013019975072446899 -0.03882647405653633 0.125
vt 0.1111111111111111 0.25
vt 0.1111111111111111 0.5
vt 0.5555555555555556 0.5
vt 0.5555555555555556 0.25
vn -0.25881904510252074 0.9659258262890683 0
f 14/24/6 9/23/6 10/22/6 13/21/6
v -0.125 0.02587828721909502 0.2545014316447137
v 0.125 0.02587828721909502 0.2545014316447137
v -0.125 0.02587828721909502 0.2545014316447137
v 0.125 0.02587828721909502 0.2545014316447137
v 0.125 -0.038826474056536275 0.01301997507244701
v -0.125 -0.038826474056536275 0.01301997507244701
v 0.125 -0.038826474056536275 0.01301997507244701
v -0.125 -0.038826474056536275 0.01301997507244701
vt 0.5555555555555556 0
vt 0.5555555555555556 0.25
vt 1 0.25
vt 1 0
vn 0 0.9659258262890673 -0.25881904510252507
f 22/28/7 17/27/7 18/26/7 21/25/7
v -0.25450143164471395 0.0258782872190938 -0.12499999999999994
v -0.25450143164471395 0.0258782872190938 0.125
v -0.25450143164471395 0.0258782872190938 -0.12499999999999994
v -0.25450143164471395 0.0258782872190938 0.125
v -0.013019975072446954 -0.03882647405653633 0.125
v -0.01301997507244701 -0.03882647405653633 -0.125
v -0.013019975072446954 -0.03882647405653633 0.125
v -0.01301997507244701 -0.03882647405653633 -0.125
vt 0.1111111111111111 0
vt 0.1111111111111111 0.25
vt 0.5555555555555556 0.25
vt 0.5555555555555556 0
vn 0.25881904510252063 0.9659258262890684 -1.2246467991473535e-16
f 30/32/8 25/31/8 26/30/8 29/29/8
v 0.125 0.02587828721909502 -0.2545014316447137
v -0.125 0.02587828721909502 -0.2545014316447137
v 0.125 0.02587828721909502 -0.2545014316447137
v -0.125 0.02587828721909502 -0.2545014316447137
v -0.125 -0.038826474056536275 -0.01301997507244701
v 0.125 -0.038826474056536275 -0.01301997507244701
v -0.125 -0.038826474056536275 -0.01301997507244701
v 0.125 -0.038826474056536275 -0.01301997507244701
vt 0.5555555555555556 0.25
vt 0.5555555555555556 0.5
vt 1 0.5
vt 1 0.25
vn 0 0.9659258262890673 0.25881904510252507
f 38/36/9 33/35/9 34/34/9 37/33/9
v 0.15625 -0.25 0.15625
v 0.15625 -0.25 0.09375
v 0.15625 -0.5 0.15625
v 0.15625 -0.5 0.09375
v 0.09375 -0.25 0.09375
v 0.09375 -0.25 0.15625
v 0.09375 -0.5 0.09375
v 0.09375 -0.5 0.15625
vt 0 1
vt 0.1111111111111111 1
vt 0.1111111111111111 0.75
vt 0 0.75
vt 0 1
vt 0.1111111111111111 1
vt 0.1111111111111111 0.75
vt 0 0.75
vt 0 1
vt 0.1111111111111111 1
vt 0.1111111111111111 0.75
vt 0 0.75
vt 0 1
vt 0.1111111111111111 1
vt 0.1111111111111111 0.75
vt 0 0.75
vt 0 1
vt 0.1111111111111111 1
vt 0.1111111111111111 0.9375
vt 0 0.9375
vn 0 0 -1
vn 1 0 0
vn 0 0 1
vn -1 0 0
vn 0 1 0
f 44/40/10 47/39/10 45/38/10 42/37/10
f 43/44/11 44/43/11 42/42/11 41/41/11
f 48/48/12 43/47/12 41/46/12 46/45/12
f 47/52/13 48/51/13 46/50/13 45/49/13
f 46/56/14 41/55/14 42/54/14 45/53/14
v 0.33337685594502064 -0.2916147984342358 0.2501164939192325
v 0.3333664670780395 -0.29209046074187317 0.00011694664476136207
v 0.33337685594502064 -0.2916147984342358 0.2501164939192325
v 0.3333664670780395 -0.29209046074187317 0.00011694664476136207
v 0.08929471000693023 -0.2379705126357331 0.0000241177151079075
v 0.08930509887391136 -0.2374948503280957 0.25002366498957906
v 0.08929471000693023 -0.2379705126357331 0.0000241177151079075
v 0.08930509887391136 -0.2374948503280957 0.25002366498957906
vt 0.1111111111111111 0.75
vt 0.1111111111111111 1
vt 0.5555555555555556 1
vt 0.5555555555555556 0.75
vn 0.2164801068844125 0.9762852448939935 -0.0018665276822312524
f 54/60/15 49/59/15 50/58/15 53/57/15
v -0.2873545298412656 -0.375 0.013642952243026585
v -0.3087307887991196 -0.375 0.072373741042146
v -0.2873545298412656 -0.625 0.013642952243026585
v -0.3087307887991196 -0.625 0.072373741042146
v -0.2500000000000001 -0.375 0.09375
v -0.2286237410421461 -0.375 0.035019211200880696
v -0.2500000000000001 -0.625 0.09375
v -0.2286237410421461 -0.625 0.035019211200880584
vt 0 1
vt 0.1111111111111111 1
vt 0.1111111111111111 0.75
vt 0 0.75
vt 0 1
vt 0.1111111111111111 1
vt 0.1111111111111111 0.75
vt 0 0.75
vt 0 1
vt 0.1111111111111111 1
vt 0.1111111111111111 0.75
vt 0 0.75
vt 0 1
vt 0.1111111111111111 1
vt 0.1111111111111111 0.75
vt 0 0.75
vt 0 1
vt 0.1111111111111111 1
vt 0.1111111111111111 0.9375
vt 0 0.9375
vn -0.34202014332566416 -8.057929253796596e-17 0.9396926207859102
vn -0.9396926207859102 1.1507915602278525e-16 -0.34202014332566416
vn 0.34202014332566416 8.057929253796596e-17 -0.9396926207859102
vn 0.9396926207859102 -1.1507915602278525e-16 0.34202014332566416
vn 8.057929253796596e-17 1 1.1507915602278525e-16
f 60/64/16 63/63/16 61/62/16 58/61/16
f 59/68/17 60/67/17 58/66/17 57/65/17
f 64/72/18 59/71/18 57/70/18 62/69/18
f 63/76/19 64/75/19 62/74/19 61/73/19
f 62/80/20 57/79/20 58/78/20 61/77/20
v -0.42537938485082666 -0.41661479843423566 -0.14130350948107406
v -0.5108745034993529 -0.4170904607418739 0.09362277349433823
v -0.42537938485082666 -0.41661479843423566 -0.14130350948107406
v -0.5108745034993529 -0.4170904607418739 0.09362277349433823
v -0.2815538238012056 -0.36297051263573354 0.17718746148973763
v -0.1960587051526793 -0.36249485032809525 -0.05773882148567466
v -0.2815538238012056 -0.36297051263573354 0.17718746148973763
v -0.1960587051526793 -0.36249485032809525 -0.05773882148567466
vt 0.1111111111111111 0.75
vt 0.1111111111111111 1
vt 0.5555555555555556 1
vt 0.5555555555555556 0.75
vn -0.20406314905162745 0.9762852448939934 -0.07228659489427448
f 70/84/21 65/83/21 66/82/21 69/81/21
v 0.03125 -0.25 -0.15625
v 0.03125 -0.25 -0.21875
v 0.03125 -0.5 -0.15625
v 0.03125 -0.5 -0.21875
v -0.03125 -0.25 -0.21875
v -0.03125 -0.25 -0.15625
v -0.03125 -0.5 -0.21875
v -0.03125 -0.5 -0.15625
vt 0 0.75
vt 0.1111111111111111 0.75
vt 0.1111111111111111 0.5
vt 0 0.5
vt 0 0.75
vt 0.1111111111111111 0.75
vt 0.1111111111111111 0.5
vt 0 0.5
vt 0 0.75
vt 0.1111111111111111 0.75
vt 0.1111111111111111 0.5
vt 0 0.5
vt 0 0.75
vt 0.1111111111111111 0.75
vt 0.1111111111111111 0.5
vt 0 0.5
vt 0 1
vt 0.1111111111111111 1
vt 0.1111111111111111 0.9375
vt 0 0.9375
vn 0 0 -1
vn 1 0 0
vn 0 0 1
vn -1 0 0
vn 0 1 0
f 76/88/22 79/87/22 77/86/22 74/85/22
f 75/92/23 76/91/23 74/90/23 73/89/23
f 80/96/24 75/95/24 73/94/24 78/93/24
f 79/100/25 80/99/25 78/98/25 77/97/25
f 78/104/26 73/103/26 74/102/26 77/101/26
v 0.23061824013976528 -0.3961776804147278 -0.25845053521531997
v 0.03227354099143287 -0.39604455403880834 -0.4106325400553324
v 0.23061824013976528 -0.3961776804147278 -0.25845053521531997
v 0.03227354099143287 -0.39604455403880834 -0.4106325400553324
v -0.08004326519123695 -0.2274840750443039 -0.26409824383063313
v 0.11830143395709536 -0.22761720142022335 -0.11191623899062075
v -0.08004326519123695 -0.2274840750443039 -0.26409824383063313
v 0.11830143395709536 -0.22761720142022335 -0.11191623899062075
vt 0.1111111111111111 0.5
vt 0.1111111111111111 0.75
vt 0.5555555555555556 0.75
vt 0.5555555555555556 0.5
vn 0.41074206735969215 0.7385103622673017 -0.5346900026416288
f 86/108/27 81/107/27 82/106/27 85/105/27