v 0.40625 -0.48124999999999996 0.40625
v 0.40625 -0.48124999999999996 -0.40625
v 0.40625 -0.48124999999999996 0.40625
v 0.40625 -0.48124999999999996 -0.40625
v -0.40625 -0.48124999999999996 -0.40625
v -0.40625 -0.48124999999999996 0.40625
v -0.40625 -0.48124999999999996 -0.40625
v -0.40625 -0.48124999999999996 0.40625
vt 0.1875 0.8125
vt 1 0.8125
vt 1 0
vt 0.1875 0
vn 0 1 0
f 6/4/1 1/3/1 2/2/1 5/1/1
v -0.1176890400788434 0.04961095387146375 0.03125
v -0.1176890400788434 0.04961095387146375 -0.03125
v 0.004058242761339481 -0.49955555013349884 0.03125
v 0.004058242761339481 -0.49955555013349884 -0.03125
v -0.1176890400788434 0.04961095387146375 -0.03125
v -0.1176890400788434 0.04961095387146375 0.03125
v 0.004058242761339481 -0.49955555013349884 -0.03125
v 0.004058242761339481 -0.49955555013349884 0.03125
vt 0.0625 0.5625
vt 0.125 0.5625
vt 0.125 0
vt 0.0625 0
vn -0.9762960071199334 -0.21643961393810288 0
f 15/8/2 16/7/2 14/6/2 13/5/2
v -0.026161289411349653 0.06990216767816082 0.09375
v -0.026161289411349653 0.06990216767816082 -0.09375
v -0.026161289411349653 0.06990216767816082 0.09375
v -0.026161289411349653 0.06990216767816082 -0.09375
v -0.20921679074633714 0.029319740064766564 -0.09375
v -0.20921679074633714 0.029319740064766564 0.09375
v -0.20921679074633714 0.029319740064766564 -0.09375
v -0.20921679074633714 0.029319740064766564 0.09375
vt 0 1
vt 0.1875 1
vt 0.1875 0.8125
vt 0 0.8125
vn -0.21643961393810288 0.9762960071199334 0
f 22/12/3 17/11/3 18/10/3 21/9/3
v 0.2833791352902817 -0.07409340038525719 0.2527469915203915
v 0.2330279466684636 -0.06431317525814423 0.21703487871768723
v 0.2102375411736892 -0.6296589647076358 0.20372188622483367
v 0.15988635255187122 -0.6198787395805228 0.1680097734221293
v 0.2330279466684636 -0.06431317525814423 0.21703487871768723
v 0.2833791352902817 -0.07409340038525719 0.2527469915203915
v 0.15988635255187122 -0.6198787395805228 0.1680097734221293
v 0.2102375411736892 -0.6296589647076358 0.20372188622483367
vt 0.0625 0.5625
vt 0.125 0.5625
vt 0.125 0
vt 0.0625 0
vn -0.5779881719196406 0.004083727238264542 0.8160349234517084
f 31/16/4 32/15/4 30/14/4 29/13/4
v 0.38791671502956615 -0.0842564749409575 0.21195583024949793
v 0.236863149164112 -0.05491579955961856 0.10481949184138495
v 0.38791671502956615 -0.0842564749409575 0.21195583024949793
v 0.236863149164112 -0.05491579955961856 0.10481949184138495
v 0.12849036692917926 -0.054150100702443915 0.25782603998858045
v 0.2795439327946334 -0.0834907760837828 0.3649623783966933
v 0.12849036692917926 -0.054150100702443915 0.25782603998858045
v 0.2795439327946334 -0.0834907760837828 0.3649623783966933
vt 0 0.75
vt 0.1875 0.75
vt 0.1875 0.5625
vt 0 0.5625
vn 0.13002950065171995 0.9876721143508955 0.08715574274765842
f 38/20/5 33/19/5 34/18/5 37/17/5
v 0.2623000081026914 -0.1436164353907765 -0.16998968877211063
v 0.2230780720549954 -0.14124483496949913 -0.2185928290421822
v 0.1405527252625085 -0.6880847438251168 -0.09830907610954542
v 0.10133078921481264 -0.6857131434038394 -0.14691221637961693
v 0.2230780720549954 -0.14124483496949913 -0.2185928290421822
v 0.2623000081026914 -0.1436164353907765 -0.16998968877211063
v 0.10133078921481264 -0.6857131434038394 -0.14691221637961693
v 0.1405527252625085 -0.6880847438251168 -0.09830907610954542
vt 0.0625 0.5625
vt 0.125 0.5625
vt 0.125 0
vt 0.0625 0
vn -0.7478861310934709 0.24828452042218024 0.6156469214060667
f 47/24/6 48/23/6 46/22/6 45/21/6
v 0.37163626894040014 -0.16926470960163337 -0.1791034473838578
v 0.25397046079731234 -0.16214990833780113 -0.3249128681940724
v 0.37163626894040014 -0.16926470960163337 -0.1791034473838578
v 0.25397046079731234 -0.16214990833780113 -0.3249128681940724
v 0.11374181121728666 -0.11559656075864244 -0.2094790704304349
v 0.23140761936037446 -0.12271136202247462 -0.06366964962022037
v 0.11374181121728666 -0.11559656075864244 -0.2094790704304349
v 0.23140761936037446 -0.12271136202247462 -0.06366964962022037
vt 0.25 1
vt 0.4375 1
vt 0.4375 0.8125
vt 0.25 0.8125
vn 0.21643961393810288 0.9679436594388272 -0.12743220028900484
f 54/28/7 49/27/7 50/26/7 53/25/7
v 0 -0.19793973679586507 -0.2355476737029623
v 0 -0.21411592711477268 -0.2959180378460291
v 0 -0.741273014083466 -0.0899619608327944
v 0 -0.7574492044023735 -0.1503323249758612
v 0 -0.21411592711477268 -0.2959180378460291
v 0 -0.19793973679586507 -0.2355476737029623
v 0 -0.7574492044023735 -0.1503323249758612
v 0 -0.741273014083466 -0.0899619608327944
vt 0.0625 0.5625
vt 0.125 0.5625
vt 0.125 0
vt 0.0625 0
vn -1 0 0
f 63/32/8 64/31/8 62/30/8 61/29/8
v 0.09375 -0.1817635464769577 -0.17517730955989558
v 0.09375 -0.23029211743368033 -0.3562884019890959
v 0.09375 -0.1817635464769577 -0.17517730955989558
v 0.09375 -0.23029211743368033 -0.3562884019890959
v -0.09375 -0.23029211743368033 -0.3562884019890959
v -0.09375 -0.1817635464769577 -0.17517730955989558
v -0.09375 -0.23029211743368033 -0.3562884019890959
v -0.09375 -0.1817635464769577 -0.17517730955989558
vt 0.4375 1
vt 0.625 1
vt 0.625 0.8125
vt 0.4375 0.8125
vn 0 0.9659258262890683 -0.25881904510252074
f 70/36/9 65/35/9 66/34/9 69/33/9
v -0.1875 -0.38868728985170353 0.1876964388880249
v -0.1875 -0.37783427874752035 0.12614595432476183
v -0.1875 -0.9426416509210707 0.09001933895037662
v -0.1875 -0.9317886398168875 0.02846885438711355
v -0.1875 -0.37783427874752035 0.12614595432476183
v -0.1875 -0.38868728985170353 0.1876964388880249
v -0.1875 -0.9317886398168875 0.02846885438711355
v -0.1875 -0.9426416509210707 0.09001933895037662
vt 0.0625 0.5625
vt 0.125 0.5625
vt 0.125 0
vt 0.0625 0
vn -1 0 0
f 79/40/10 80/39/10 78/38/10 77/37/10
v -0.09375 -0.3995403009558866 0.24924692345128796
v -0.09375 -0.3669812676433372 0.06459546976149888
v -0.09375 -0.3995403009558866 0.24924692345128796
v -0.09375 -0.3669812676433372 0.06459546976149888
v -0.28125 -0.3669812676433372 0.06459546976149888
v -0.28125 -0.3995403009558866 0.24924692345128796
v -0.28125 -0.3669812676433372 0.06459546976149888
v -0.28125 -0.3995403009558866 0.24924692345128796
vt 0.625 1
vt 0.8125 1
vt 0.8125 0.8125
vt 0.625 0.8125
vn 0 0.984807753012208 0.17364817766693033
f 86/44/11 81/43/11 82/42/11 85/41/11