v 0.5 0.5 0.5
v 0.5 0.5 -0.5
v 0.5 -0.5 0.5
v 0.5 -0.5 -0.5
v -0.5 0.5 -0.5
v -0.5 0.5 0.5
v -0.5 -0.5 -0.5
v -0.5 -0.5 0.5
vt 0.47058823529411764 1
vt 0.9411764705882353 1
vt 0.9411764705882353 0
vt 0.47058823529411764 0
vt 0.47058823529411764 1
vt 0.9411764705882353 1
vt 0.9411764705882353 0
vt 0.47058823529411764 0
vt 0.47058823529411764 1
vt 0.9411764705882353 1
vt 0.9411764705882353 0
vt 0.47058823529411764 0
vt 0.47058823529411764 1
vt 0.9411764705882353 1
vt 0.9411764705882353 0
vt 0.47058823529411764 0
vt 0 1
vt 0.47058823529411764 1
vt 0.47058823529411764 0
vt 0 0
vt 0 1
vt 0.47058823529411764 1
vt 0.47058823529411764 0
vt 0 0
vn 0 0 -1
vn 1 0 0
vn 0 0 1
vn -1 0 0
vn 0 1 0
vn 0 -1 0
f 4/4/1 7/3/1 5/2/1 2/1/1
f 3/8/2 4/7/2 2/6/2 1/5/2
f 8/12/3 3/11/3 1/10/3 6/9/3
f 7/16/4 8/15/4 6/14/4 5/13/4
f 6/20/5 1/19/5 2/18/5 5/17/5
f 7/24/6 4/23/6 3/22/6 8/21/6
v -0.3125 0.5 0.625
v -0.3125 0.5 0.5
v -0.3125 -0.5 0.625
v -0.3125 -0.5 0.5
v -0.3125 0.5 0.5
v -0.3125 0.5 0.625
v -0.3125 -0.5 0.5
v -0.3125 -0.5 0.625
vt 0.9411764705882353 1
vt 1 1
vt 1 0
vt 0.9411764705882353 0
vn -1 0 0
f 15/28/7 16/27/7 14/26/7 13/25/7
v 0 0.4375 0.625
v 0 0.4375 0.5
v 0 -0.5625 0.625
v 0 -0.5625 0.5
v 0 0.4375 0.5
v 0 0.4375 0.625
v 0 -0.5625 0.5
v 0 -0.5625 0.625
vt 0.9411764705882353 1
vt 1 1
vt 1 0
vt 0.9411764705882353 0
vn -1 0 0
f 23/32/8 24/31/8 22/30/8 21/29/8
v 0.3125 0.5 0.625
v 0.3125 0.5 0.5
v 0.3125 -0.5 0.625
v 0.3125 -0.5 0.5
v 0.3125 0.5 0.5
v 0.3125 0.5 0.625
v 0.3125 -0.5 0.5
v 0.3125 -0.5 0.625
vt 0.9411764705882353 1
vt 1 1
vt 1 0
vt 0.9411764705882353 0
vn -1 0 0
f 31/36/9 32/35/9 30/34/9 29/33/9
v 0.625 0.5 -0.3124999999999999
v 0.5 0.5 -0.3124999999999999
v 0.625 -0.5 -0.3124999999999999
v 0.5 -0.5 -0.3124999999999999
v 0.5 0.5 -0.3124999999999999
v 0.625 0.5 -0.3124999999999999
v 0.5 -0.5 -0.3124999999999999
v 0.625 -0.5 -0.3124999999999999
vt 0.9411764705882353 1
vt 1 1
vt 1 0
vt 0.9411764705882353 0
vn -2.220446049250313e-16 0 1
f 39/40/10 40/39/10 38/38/10 37/37/10
v 0.625 0.4375 1.1102230246251565e-16
v 0.5 0.4375 1.1102230246251565e-16
v 0.625 -0.5625 1.1102230246251565e-16
v 0.5 -0.5625 1.1102230246251565e-16
v 0.5 0.4375 1.1102230246251565e-16
v 0.625 0.4375 1.1102230246251565e-16
v 0.5 -0.5625 1.1102230246251565e-16
v 0.625 -0.5625 1.1102230246251565e-16
vt 0.9411764705882353 1
vt 1 1
vt 1 0
vt 0.9411764705882353 0
vn -2.220446049250313e-16 0 1
f 47/44/11 48/43/11 46/42/11 45/41/11
v 0.625 0.5 0.3125000000000001
v 0.5 0.5 0.3125000000000001
v 0.625 -0.5 0.3125000000000001
v 0.5 -0.5 0.3125000000000001
v 0.5 0.5 0.3125000000000001
v 0.625 0.5 0.3125000000000001
v 0.5 -0.5 0.3125000000000001
v 0.625 -0.5 0.3125000000000001
vt 0.9411764705882353 1
vt 1 1
vt 1 0
vt 0.9411764705882353 0
vn -2.220446049250313e-16 0 1
f 55/48/12 56/47/12 54/46/12 53/45/12
v -0.31250000000000006 0.5 -0.625
v -0.31250000000000006 0.5 -0.49999999999999994
v -0.31250000000000006 -0.5 -0.625
v -0.31250000000000006 -0.5 -0.49999999999999994
v -0.31250000000000006 0.5 -0.49999999999999994
v -0.31250000000000006 0.5 -0.625
v -0.31250000000000006 -0.5 -0.49999999999999994
v -0.31250000000000006 -0.5 -0.625
vt 0.9411764705882353 1
vt 1 1
vt 1 0
vt 0.9411764705882353 0
vn 1 0 -1.2246467991473532e-16
f 63/52/13 64/51/13 62/50/13 61/49/13
v -5.551115123125783e-17 0.4375 -0.625
v -5.551115123125783e-17 0.4375 -0.5
v -5.551115123125783e-17 -0.5625 -0.625
v -5.551115123125783e-17 -0.5625 -0.5
v -5.551115123125783e-17 0.4375 -0.5
v -5.551115123125783e-17 0.4375 -0.625
v -5.551115123125783e-17 -0.5625 -0.5
v -5.551115123125783e-17 -0.5625 -0.625
vt 0.9411764705882353 1
vt 1 1
vt 1 0
vt 0.9411764705882353 0
vn 1 0 -1.2246467991473532e-16
f 71/56/14 72/55/14 70/54/14 69/53/14
v 0.3125 0.5 -0.625
v 0.3125 0.5 -0.5
v 0.3125 -0.5 -0.625
v 0.3125 -0.5 -0.5
v 0.3125 0.5 -0.5
v 0.3125 0.5 -0.625
v 0.3125 -0.5 -0.5
v 0.3125 -0.5 -0.625
vt 0.9411764705882353 1
vt 1 1
vt 1 0
vt 0.9411764705882353 0
vn 1 0 -1.2246467991473532e-16
f 79/60/15 80/59/15 78/58/15 77/57/15
v -0.6249999999999999 0.5 0.3125000000000001
v -0.49999999999999994 0.5 0.3125000000000001
v -0.6249999999999999 -0.5 0.3125000000000001
v -0.49999999999999994 -0.5 0.3125000000000001
v -0.49999999999999994 0.5 0.3125000000000001
v -0.6249999999999999 0.5 0.3125000000000001
v -0.49999999999999994 -0.5 0.3125000000000001
v -0.6249999999999999 -0.5 0.3125000000000001
vt 0.9411764705882353 1
vt 1 1
vt 1 0
vt 0.9411764705882353 0
vn -2.220446049250313e-16 0 -1
f 87/64/16 88/63/16 86/62/16 85/61/16
v -0.625 0.4375 1.1102230246251565e-16
v -0.5 0.4375 1.1102230246251565e-16
v -0.625 -0.5625 1.1102230246251565e-16
v -0.5 -0.5625 1.1102230246251565e-16
v -0.5 0.4375 1.1102230246251565e-16
v -0.625 0.4375 1.1102230246251565e-16
v -0.5 -0.5625 1.1102230246251565e-16
v -0.625 -0.5625 1.1102230246251565e-16
vt 0.9411764705882353 1
vt 1 1
vt 1 0
vt 0.9411764705882353 0
vn -2.220446049250313e-16 0 -1
f 95/68/17 96/67/17 94/66/17 93/65/17
v -0.6250000000000001 0.5 -0.3124999999999999
v -0.5000000000000001 0.5 -0.3124999999999999
v -0.6250000000000001 -0.5 -0.3124999999999999
v -0.5000000000000001 -0.5 -0.3124999999999999
v -0.5000000000000001 0.5 -0.3124999999999999
v -0.6250000000000001 0.5 -0.3124999999999999
v -0.5000000000000001 -0.5 -0.3124999999999999
v -0.6250000000000001 -0.5 -0.3124999999999999
vt 0.9411764705882353 1
vt 1 1
vt 1 0
vt 0.9411764705882353 0
vn -2.220446049250313e-16 0 -1
f 103/72/18 104/71/18 102/70/18 101/69/18