v 0.390648 0.953312 -0.031017
v 0.390648 0.953312 -0.031017
v 0.195603 -0.526709 0.115598
v 0.195603 -0.526709 0.115598
v 0.151168 0.978204 -0.098322
v 0.151168 0.978204 -0.098322
v -0.043876 -0.501817 0.048292
v -0.043876 -0.501817 0.048292
v 0.414276 0.941974 0.522929
v 0.414276 0.941974 0.522929
v 0.143061 -0.518813 0.316661
v 0.143061 -0.518813 0.316661
v 0.543297 0.948243 0.308886
v 0.543297 0.948243 0.308886
v 0.272083 -0.512543 0.102618
v 0.272083 -0.512543 0.102618
v -0.420850 0.969210 0.016994
v -0.420850 0.969210 0.016994
v -0.212738 -0.514010 -0.065150
v -0.212738 -0.514010 -0.065150
v -0.290746 0.975647 0.230375
v -0.290746 0.975647 0.230375
v -0.082634 -0.507573 0.148231
v -0.082634 -0.507573 0.148231
v 0.108828 0.893368 -0.650243
v 0.108828 0.893368 -0.650243
v 0.211335 -0.530261 -0.188971
v 0.211335 -0.530261 -0.188971
v -0.121509 0.907917 -0.554154
v -0.121509 0.907917 -0.554154
v -0.019002 -0.515712 -0.092881
v -0.019002 -0.515712 -0.092881
v -0.191442 0.766119 -0.602980
v -0.191442 0.766119 -0.602980
v -0.158121 -0.713777 -0.360504
v -0.158121 -0.713777 -0.360504
v -0.371670 0.790174 -0.431401
v -0.371670 0.790174 -0.431401
v -0.338349 -0.689723 -0.188925
v -0.338349 -0.689723 -0.188925
v -0.260858 0.870626 0.543813
v -0.260858 0.870626 0.543813
v -0.062841 -0.596338 0.301314
v -0.062841 -0.596338 0.301314
v -0.013187 0.901794 0.557505
v -0.013187 0.901794 0.557505
v 0.184830 -0.565170 0.315006
v 0.184830 -0.565170 0.315006
v -0.423290 0.676518 0.431656
v -0.423290 0.676518 0.431656
v -0.166237 -0.797032 0.319524
v -0.166237 -0.797032 0.319524
v -0.547390 0.671380 0.214693
v -0.547390 0.671380 0.214693
v -0.290337 -0.802170 0.102561
v -0.290337 -0.802170 0.102561
v 0.502708 0.864405 -0.207911
v 0.502708 0.864405 -0.207911
v 0.306296 -0.597887 0.062505
v 0.306296 -0.597887 0.062505
v 0.510225 0.817989 -0.453449
v 0.510225 0.817989 -0.453449
v 0.313813 -0.644303 -0.183033
v 0.313813 -0.644303 -0.183033
vn 0.2559 -0.1286 -0.9581
vn -0.0000 -0.0000 1.0000
vn 0.1305 0.9902 -0.0489
vn 0.1305 0.9902 0.0489
vn -0.1305 -0.9902 -0.0489
vn -0.1305 -0.9902 0.0489
vn 0.9854 -0.1024 0.1359
vn 0.9854 -0.1025 -0.1359
vn -0.9854 0.1025 0.1359
vn -0.9854 0.1024 -0.1359
vn 0.8372 -0.2258 0.4981
vn -0.1822 -0.9809 0.0689
vn -0.1821 -0.9809 -0.0689
vn 0.1821 0.9809 0.0689
vn 0.1822 0.9809 -0.0689
vn 0.8698 0.0422 0.4916
vn 0.8698 0.0423 -0.4916
vn -0.8698 -0.0423 0.4916
vn -0.8698 -0.0422 -0.4916
vn -0.8426 -0.1469 0.5182
vn -0.1389 0.9899 0.0274
vn -0.1388 0.9899 -0.0274
vn 0.1388 -0.9899 0.0274
vn 0.1389 -0.9899 -0.0274
vn -0.8710 -0.0431 -0.4894
vn -0.8710 -0.0431 0.4894
vn 0.8710 0.0431 -0.4894
vn 0.8710 0.0431 0.4894
vn -0.3827 -0.3096 -0.8705
vn 0.0709 -0.9853 -0.1557
vn 0.0709 -0.9853 0.1557
vn -0.0709 0.9853 -0.1557
vn -0.0709 0.9853 0.1557
vn -0.9787 0.0619 -0.1960
vn -0.9787 0.0618 0.1960
vn 0.9787 -0.0618 -0.1960
vn 0.9787 -0.0619 0.1960
vn -0.6927 -0.1318 -0.7091
vn 0.0224 -0.9965 -0.0811
vn 0.0224 -0.9965 0.0811
vn -0.0224 0.9965 -0.0811
vn -0.0224 0.9965 0.0811
vn -0.9212 0.1230 -0.3693
vn -0.9212 0.1229 0.3693
vn 0.9212 -0.1229 -0.3693
vn 0.9212 -0.1230 0.3693
vn -0.0334 -0.1674 0.9853
vn -0.1333 0.9877 0.0811
vn -0.1333 0.9878 -0.0811
vn 0.1333 -0.9878 0.0811
vn 0.1333 -0.9877 -0.0811
vn -0.9918 -0.1248 -0.0274
vn -0.9918 -0.1248 0.0274
vn 0.9918 0.1248 -0.0274
vn 0.9918 0.1248 0.0274
vn 0.8510 0.1858 -0.4912
vn 0.1717 -0.9844 0.0374
vn 0.1717 -0.9844 -0.0374
vn -0.1717 0.9844 0.0374
vn -0.1717 0.9844 -0.0374
vn -0.8644 -0.0355 0.5016
vn -0.8644 -0.0358 -0.5016
vn 0.8644 0.0358 0.5016
vn 0.8644 0.0357 -0.5016
vn 0.9909 -0.1232 0.0536
vn 0.1326 0.9870 -0.0905
vn 0.1326 0.9870 0.0905
vn -0.1326 -0.9870 -0.0905
vn -0.1326 -0.9870 0.0905
vn -0.1232 0.7608 0.6371
vn -0.1232 0.7608 -0.6371
vn 0.1232 -0.7608 0.6371
vn 0.1232 -0.7608 -0.6371
vt 0.166667 0.000000
vt 0.000000 0.000000
vt 0.000000 1.000000
vt 0.166667 1.000000
vt 0.250000 1.000000
vt 0.500000 0.000000
vt 0.333333 0.000000
vt 0.333333 1.000000
vt 0.500000 1.000000
vt 0.833333 0.000000
vt 0.666667 0.000000
vt 0.666667 1.000000
vt 0.833333 1.000000
vt 1.000000 0.000000
vt 1.000000 1.000000
s 0
f 4/1/1 7/2/1 5/3/1 2/4/1
f 3/2/2 4/2/3 2/3/2 1/3/4
f 7/2/2 8/2/5 6/3/2 5/3/6
f 6/3/7 1/5/2 2/5/8 5/3/2
f 7/3/9 4/5/2 3/5/10 8/3/2
f 12/6/11 15/7/11 13/8/11 10/9/11
f 11/2/2 12/2/12 10/3/2 9/3/13
f 15/2/2 16/2/14 14/3/2 13/3/15
f 14/3/16 9/5/2 10/5/17 13/3/2
f 15/3/18 12/5/2 11/5/19 16/3/2
f 20/10/20 23/11/20 21/12/20 18/13/20
f 19/2/2 20/2/21 18/3/2 17/3/22
f 23/2/2 24/2/23 22/3/2 21/3/24
f 22/3/25 17/5/2 18/5/26 21/3/2
f 23/3/27 20/5/2 19/5/28 24/3/2
f 28/14/29 31/10/29 29/13/29 26/15/29
f 27/2/2 28/2/30 26/3/2 25/3/31
f 31/2/2 32/2/32 30/3/2 29/3/33
f 30/3/34 25/5/2 26/5/35 29/3/2
f 31/3/36 28/5/2 27/5/37 32/3/2
f 36/11/38 39/6/38 37/9/38 34/12/38
f 35/2/2 36/2/39 34/3/2 33/3/40
f 39/2/2 40/2/41 38/3/2 37/3/42
f 38/3/43 33/5/2 34/5/44 37/3/2
f 39/3/45 36/5/2 35/5/46 40/3/2
f 44/1/47 47/2/47 45/3/47 42/4/47
f 43/2/2 44/2/48 42/3/2 41/3/49
f 47/2/2 48/2/50 46/3/2 45/3/51
f 46/3/52 41/5/2 42/5/53 45/3/2
f 47/3/54 44/5/2 43/5/55 48/3/2
f 52/7/56 55/1/56 53/4/56 50/8/56
f 51/2/2 52/2/57 50/3/2 49/3/58
f 55/2/2 56/2/59 54/3/2 53/3/60
f 54/3/61 49/5/2 50/5/62 53/3/2
f 55/3/63 52/5/2 51/5/64 56/3/2
f 60/11/65 63/6/65 61/9/65 58/12/65
f 59/2/2 60/2/66 58/3/2 57/3/67
f 63/2/2 64/2/68 62/3/2 61/3/69
f 62/3/70 57/5/2 58/5/71 61/3/2
f 63/3/72 60/5/2 59/5/73 64/3/2
