v 0.066717 0.937719 -0.182479
v 0.066717 0.937719 -0.182479
v 0.131152 -0.558931 -0.105762
v 0.131152 -0.558931 -0.105762
v -0.117759 0.928129 -0.214620
v -0.117759 0.928129 -0.214620
v -0.053324 -0.568521 -0.137902
v -0.053324 -0.568521 -0.137902
v 0.162299 0.937936 0.254533
v 0.162299 0.937936 0.254533
v 0.260181 -0.554321 0.137963
v 0.260181 -0.554321 0.137963
v -0.000370 0.934545 0.161348
v -0.000370 0.934545 0.161348
v 0.097512 -0.557712 0.044779
v 0.097512 -0.557712 0.044779
v -0.454636 0.849618 0.163841
v -0.454636 0.849618 0.163841
v -0.083278 -0.600719 0.071024
v -0.083278 -0.600719 0.071024
v -0.560289 0.832417 0.009900
v -0.560289 0.832417 0.009900
v -0.188931 -0.617920 -0.082917
v -0.188931 -0.617920 -0.082917
v 0.502423 0.842615 -0.330713
v 0.502423 0.842615 -0.330713
v 0.253986 -0.613694 -0.071011
v 0.253986 -0.613694 -0.071011
v 0.510586 0.808380 -0.514880
v 0.510586 0.808380 -0.514880
v 0.262149 -0.647929 -0.255178
v 0.262149 -0.647929 -0.255178
v -0.650829 0.670619 0.435881
v -0.650829 0.670619 0.435881
v -0.204788 -0.738542 0.180320
v -0.204788 -0.738542 0.180320
v -0.472375 0.722653 0.460434
v -0.472375 0.722653 0.460434
v -0.026334 -0.686509 0.204873
v -0.026334 -0.686509 0.204873
v 0.173127 0.822504 0.610004
v 0.173127 0.822504 0.610004
v 0.099502 -0.649993 0.333721
v 0.099502 -0.649993 0.333721
v 0.289385 0.843996 0.464476
v 0.289385 0.843996 0.464476
v 0.215760 -0.628501 0.188193
v 0.215760 -0.628501 0.188193
v -0.286305 0.774918 -0.604681
v -0.286305 0.774918 -0.604681
v -0.064044 -0.677881 -0.304726
v -0.064044 -0.677881 -0.304726
v -0.468715 0.741338 -0.632162
v -0.468715 0.741338 -0.632162
v -0.246454 -0.711462 -0.332207
v -0.246454 -0.711462 -0.332207
v 0.564824 0.867499 0.207968
v 0.564824 0.867499 0.207968
v 0.371342 -0.604820 -0.003795
v 0.371342 -0.604820 -0.003795
v 0.496034 0.851556 0.381663
v 0.496034 0.851556 0.381663
v 0.302552 -0.620762 0.169900
v 0.302552 -0.620762 0.169900
v 0.000000 0.375000 0.062500
v 0.000000 0.375000 -0.000000
v 0.000000 -0.500000 0.062500
v 0.000000 -0.500000 0.000000
v -0.062500 0.375000 -0.000000
v -0.062500 0.375000 0.062500
v -0.062500 -0.500000 0.000000
v -0.062500 -0.500000 0.062500
v -0.062500 0.875000 0.062500
v -0.062500 0.875000 -0.000000
v -0.062500 0.375000 0.062500
v -0.062500 0.375000 -0.000000
v -0.125000 0.875000 -0.000000
v -0.125000 0.875000 0.062500
v -0.125000 0.375000 -0.000000
v -0.125000 0.375000 0.062500
v -0.125000 1.375000 0.062500
v -0.125000 1.375000 -0.000000
v -0.125000 0.875000 0.062500
v -0.125000 0.875000 -0.000000
v -0.187500 1.375000 -0.000000
v -0.187500 1.375000 0.062500
v -0.187500 0.875000 -0.000000
v -0.187500 0.875000 0.062500
v -0.156250 1.625000 0.031250
v -0.156250 1.625000 0.031250
v -0.156250 1.187500 0.031250
v -0.156250 1.187500 0.031250
v -0.406250 1.625000 0.031250
v -0.406250 1.625000 0.031250
v -0.406250 1.187500 0.031250
v -0.406250 1.187500 0.031250
v 0.216904 1.125000 -0.223823
v 0.216904 1.125000 -0.223823
v 0.216904 0.687500 -0.223822
v 0.216904 0.687500 -0.223822
v 0.408415 1.125000 -0.384519
v 0.408415 1.125000 -0.384519
v 0.408415 0.687500 -0.384519
v 0.408415 0.687500 -0.384519
v 0.125000 0.375000 -0.187500
v 0.165174 0.375000 -0.139622
v 0.125000 -0.500000 -0.187500
v 0.165174 -0.500000 -0.139622
v 0.213052 0.375000 -0.179796
v 0.172878 0.375000 -0.227674
v 0.213052 -0.500000 -0.179796
v 0.172878 -0.500000 -0.227674
v 0.172878 0.875000 -0.227674
v 0.213052 0.875000 -0.179797
v 0.172878 0.375000 -0.227674
v 0.213052 0.375000 -0.179796
v 0.260930 0.875000 -0.219971
v 0.220756 0.875000 -0.267849
v 0.260930 0.375000 -0.219971
v 0.220756 0.375000 -0.267848
vn 0.1736 -0.0430 -0.9839
vn -0.0000 -0.0000 1.0000
vn -0.0430 0.9987 -0.0256
vn -0.0430 0.9987 0.0256
vn 0.0430 -0.9987 -0.0256
vn 0.0430 -0.9987 0.0256
vn 0.9949 0.0517 0.0860
vn 0.9950 0.0517 -0.0860
vn -0.9950 -0.0517 0.0860
vn -0.9949 -0.0517 -0.0860
vn 0.4930 0.0999 -0.8643
vn 0.0654 -0.9971 0.0389
vn 0.0654 -0.9971 -0.0389
vn -0.0654 0.9971 0.0389
vn -0.0654 0.9971 -0.0389
vn -0.9662 -0.0201 0.2571
vn -0.9662 -0.0201 -0.2571
vn 0.9662 0.0201 0.2571
vn 0.9662 0.0201 -0.2571
vn 0.7882 0.2381 -0.5675
vn 0.2479 -0.9683 0.0310
vn 0.2479 -0.9683 -0.0310
vn -0.2479 0.9683 0.0310
vn -0.2479 0.9683 -0.0310
vn -0.8747 -0.1424 0.4632
vn -0.8747 -0.1424 -0.4632
vn 0.8747 0.1424 0.4632
vn 0.8748 0.1420 -0.4632
vn 0.9852 -0.1551 0.0725
vn 0.1675 0.9820 -0.0869
vn 0.1676 0.9820 0.0869
vn -0.1676 -0.9820 -0.0869
vn -0.1675 -0.9820 0.0869
vn -0.1787 0.7496 0.6373
vn -0.1787 0.7496 -0.6373
vn 0.1787 -0.7496 0.6373
vn 0.1787 -0.7496 -0.6373
vn -0.0757 -0.2011 0.9766
vn -0.3007 0.9499 0.0855
vn -0.3006 0.9499 -0.0855
vn 0.3006 -0.9499 0.0855
vn 0.3007 -0.9499 -0.0855
vn -0.9580 -0.2793 -0.0656
vn -0.9580 -0.2793 0.0656
vn 0.9580 0.2793 -0.0656
vn 0.9580 0.2793 0.0656
vn 0.7830 -0.1523 0.6030
vn -0.0498 -0.9945 0.0925
vn -0.0497 -0.9945 -0.0925
vn 0.0497 0.9945 0.0925
vn 0.0498 0.9945 -0.0925
vn 0.8879 0.1641 0.4298
vn 0.8879 0.1641 -0.4298
vn -0.8879 -0.1641 0.4298
vn -0.8879 -0.1641 -0.4298
vn 0.1778 -0.1728 -0.9688
vn -0.1505 0.9835 -0.1005
vn -0.1501 0.9835 0.1005
vn 0.1501 -0.9835 -0.1005
vn 0.1505 -0.9835 0.1005
vn 0.9808 0.1806 0.0735
vn 0.9808 0.1805 -0.0735
vn -0.9808 -0.1805 0.0735
vn -0.9808 -0.1806 -0.0735
vn -0.9213 0.1713 -0.3491
vn 0.1300 0.9890 0.0708
vn 0.1300 0.9890 -0.0708
vn -0.1300 -0.9890 0.0708
vn -0.1300 -0.9890 -0.0708
vn 0.8082 0.1873 -0.5583
vn 0.8082 0.1873 0.5583
vn -0.8082 -0.1873 -0.5583
vn -0.8082 -0.1873 0.5583
vn -0.0000 -0.0000 -1.0000
vn 1.0000 -0.0000 -0.0000
vn -1.0000 -0.0000 -0.0000
vn -0.0000 1.0000 -0.0000
vn -0.0000 -1.0000 -0.0000
vn -0.6428 -0.0000 -0.7660
vn -0.9397 -0.0000 0.3420
vn -0.9397 -0.0000 -0.3420
vn 0.9397 -0.0000 0.3420
vn 0.9397 -0.0000 -0.3420
vn 0.6428 -0.0000 0.7660
vn -0.7660 -0.0000 0.6428
vn 0.7660 -0.0000 -0.6428
vt 0.125000 0.000000
vt 0.000000 0.000000
vt 0.000000 1.000000
vt 0.125000 1.000000
vt 0.187500 1.000000
vt 0.500000 0.000000
vt 0.375000 0.000000
vt 0.375000 1.000000
vt 0.500000 1.000000
vt 0.750000 0.000000
vt 0.625000 0.000000
vt 0.625000 1.000000
vt 0.750000 1.000000
vt 0.208333 0.000000
vt 0.083333 0.000000
vt 0.083333 1.000000
vt 0.208333 1.000000
vt 0.416667 0.000000
vt 0.291667 0.000000
vt 0.291667 1.000000
vt 0.416667 1.000000
vt 0.250000 0.000000
vt 0.250000 1.000000
vt 0.958333 0.000000
vt 1.000000 0.000000
vt 1.000000 0.583333
vt 0.958333 0.583333
vt 0.958333 0.541667
vt 1.000000 0.541667
vt 1.000000 0.041667
vt 0.958333 0.041667
vt 0.791667 0.208333
vt 0.833333 0.208333
vt 0.833333 0.541667
vt 0.791667 0.541667
vt 0.791667 0.500000
vt 0.833333 0.500000
vt 0.833333 0.250000
vt 0.791667 0.250000
vt 0.833333 0.875000
vt 0.791667 0.875000
vt 0.791667 0.833333
vt 0.833333 0.833333
vt 0.833333 0.583333
vt 0.791667 0.583333
vt 0.791667 0.708333
vt 0.958333 0.708333
vt 0.958333 1.000000
vt 0.791667 1.000000
vt 0.000000 0.500000
vt 0.833333 0.416667
vt 1.000000 0.416667
vt 1.000000 0.708333
vt 0.833333 0.708333
s 0
f 4/1/1 7/2/1 5/3/1 2/4/1
f 3/2/2 4/2/3 2/3/2 1/3/4
f 7/2/2 8/2/5 6/3/2 5/3/6
f 6/3/7 1/5/2 2/5/8 5/3/2
f 7/3/9 4/5/2 3/5/10 8/3/2
f 12/6/11 15/7/11 13/8/11 10/9/11
f 11/2/2 12/2/12 10/3/2 9/3/13
f 15/2/2 16/2/14 14/3/2 13/3/15
f 14/3/16 9/5/2 10/5/17 13/3/2
f 15/3/18 12/5/2 11/5/19 16/3/2
f 20/10/20 23/11/20 21/12/20 18/13/20
f 19/2/2 20/2/21 18/3/2 17/3/22
f 23/2/2 24/2/23 22/3/2 21/3/24
f 22/3/25 17/5/2 18/5/26 21/3/2
f 23/3/27 20/5/2 19/5/28 24/3/2
f 28/14/29 31/15/29 29/16/29 26/17/29
f 27/2/2 28/2/30 26/3/2 25/3/31
f 31/2/2 32/2/32 30/3/2 29/3/33
f 30/3/34 25/5/2 26/5/35 29/3/2
f 31/3/36 28/5/2 27/5/37 32/3/2
f 36/18/38 39/19/38 37/20/38 34/21/38
f 35/2/2 36/2/39 34/3/2 33/3/40
f 39/2/2 40/2/41 38/3/2 37/3/42
f 38/3/43 33/5/2 34/5/44 37/3/2
f 39/3/45 36/5/2 35/5/46 40/3/2
f 44/7/47 47/22/47 45/23/47 42/8/47
f 43/2/2 44/2/48 42/3/2 41/3/49
f 47/2/2 48/2/50 46/3/2 45/3/51
f 46/3/52 41/5/2 42/5/53 45/3/2
f 47/3/54 44/5/2 43/5/55 48/3/2
f 52/22/56 55/1/56 53/4/56 50/23/56
f 51/2/2 52/2/57 50/3/2 49/3/58
f 55/2/2 56/2/59 54/3/2 53/3/60
f 54/3/61 49/5/2 50/5/62 53/3/2
f 55/3/63 52/5/2 51/5/64 56/3/2
f 60/11/65 63/6/65 61/9/65 58/12/65
f 59/2/2 60/2/66 58/3/2 57/3/67
f 63/2/2 64/2/68 62/3/2 61/3/69
f 62/3/70 57/5/2 58/5/71 61/3/2
f 63/3/72 60/5/2 59/5/73 64/3/2
f 68/24/74 71/25/74 69/26/74 66/27/74
f 67/25/75 68/24/75 66/27/75 65/26/75
f 72/24/2 67/25/2 65/26/2 70/27/2
f 71/24/76 72/25/76 70/26/76 69/27/76
f 70/28/77 65/29/77 66/26/77 69/27/77
f 71/24/78 68/25/78 67/30/78 72/31/78
f 76/32/74 79/33/74 77/34/74 74/35/74
f 75/32/75 76/33/75 74/34/75 73/35/75
f 80/32/2 75/33/2 73/34/2 78/35/2
f 79/32/76 80/33/76 78/34/76 77/35/76
f 78/36/77 73/37/77 74/34/77 77/35/77
f 79/32/78 76/33/78 75/38/78 80/39/78
f 84/35/74 87/34/74 85/40/74 82/41/74
f 83/35/75 84/34/75 82/40/75 81/41/75
f 88/35/2 83/34/2 81/40/2 86/41/2
f 87/35/76 88/34/76 86/40/76 85/41/76
f 86/42/77 81/43/77 82/40/77 85/41/77
f 87/35/78 84/34/78 83/44/78 88/45/78
f 92/46/74 95/47/74 93/48/74 90/49/74
f 91/50/2 92/50/77 90/3/2 89/3/77
f 95/50/2 96/50/78 94/3/2 93/3/78
f 94/3/76 89/5/2 90/5/76 93/3/2
f 95/3/75 92/5/2 91/5/75 96/3/2
f 99/50/2 100/50/78 98/3/2 97/3/78
f 104/51/79 99/52/79 97/53/79 102/54/79
f 103/50/2 104/50/77 102/3/2 101/3/77
f 102/3/80 97/5/2 98/5/81 101/3/2
f 103/3/82 100/5/2 99/5/83 104/3/2
f 108/24/84 111/25/84 109/26/84 106/27/84
f 107/25/85 108/24/85 106/27/85 105/26/85
f 112/24/79 107/25/79 105/26/79 110/27/79
f 111/24/86 112/25/86 110/26/86 109/27/86
f 110/28/77 105/29/77 106/26/77 109/27/77
f 111/24/78 108/25/78 107/30/78 112/31/78
f 116/32/84 119/33/84 117/34/84 114/35/84
f 115/32/85 116/33/85 114/34/85 113/35/85
f 120/32/79 115/33/79 113/34/79 118/35/79
f 119/32/86 120/33/86 118/34/86 117/35/86
f 118/36/77 113/37/77 114/34/77 117/35/77
f 119/32/78 116/33/78 115/38/78 120/39/78
