v 0.03125 0 0.03125
v 0.03125 0 -0.03125
v 0.03125 -0.5 0.03125
v 0.03125 -0.5 -0.03125
v -0.03125 0 -0.03125
v -0.03125 0 0.03125
v -0.03125 -0.5 -0.03125
v -0.03125 -0.5 0.03125
vt 0 1
vt 0.0625 1
vt 0.0625 0.5
vt 0 0.5
vt 0 1
vt 0.0625 1
vt 0.0625 0.5
vt 0 0.5
vt 0 1
vt 0.0625 1
vt 0.0625 0.5
vt 0 0.5
vt 0 1
vt 0.0625 1
vt 0.0625 0.5
vt 0 0.5
vn 0 0 -1
vn 1 0 0
vn 0 0 1
vn -1 0 0
f 4/4/1 7/3/1 5/2/1 2/1/1
f 3/8/2 4/7/2 2/6/2 1/5/2
f 8/12/3 3/11/3 1/10/3 6/9/3
f 7/16/4 8/15/4 6/14/4 5/13/4
v 0.1546796083845573 -0.0625 0.1546796083845572
v -0.1546796083845573 -0.0625 -0.15467960838455724
v 0.1546796083845573 -0.5 0.1546796083845572
v -0.1546796083845573 -0.5 -0.15467960838455724
v -0.1546796083845573 -0.0625 -0.15467960838455724
v 0.1546796083845573 -0.0625 0.1546796083845572
v -0.1546796083845573 -0.5 -0.15467960838455724
v 0.1546796083845573 -0.5 0.1546796083845572
vt 0.125 1
vt 0.5625 1
vt 0.5625 0.5625
vt 0.125 0.5625
vn -0.7071067811865475 0 0.7071067811865476
f 15/20/5 16/19/5 14/18/5 13/17/5
v -0.1546796083845573 -0.0625 0.1546796083845572
v 0.1546796083845573 -0.0625 -0.15467960838455724
v -0.1546796083845573 -0.5 0.1546796083845572
v 0.1546796083845573 -0.5 -0.15467960838455724
v 0.1546796083845573 -0.0625 -0.15467960838455724
v -0.1546796083845573 -0.0625 0.1546796083845572
v 0.1546796083845573 -0.5 -0.15467960838455724
v -0.1546796083845573 -0.5 0.1546796083845572
vt 0.5625 1
vt 1 1
vt 1 0.5625
vt 0.5625 0.5625
vn 0.7071067811865475 0 0.7071067811865476
f 19/24/6 20/23/6 18/22/6 17/21/6
v 0.0625 0.1875 0.0625
v 0.0625 0.1875 -0.0625
v 0.0625 0 0.0625
v 0.0625 0 -0.0625
v -0.0625 0.1875 -0.0625
v -0.0625 0.1875 0.0625
v -0.0625 0 -0.0625
v -0.0625 0 0.0625
vt 0.25 0.1875
vt 0.375 0.1875
vt 0.375 0
vt 0.25 0
vt 0.0625 0.1875
vt 0.1875 0.1875
vt 0.1875 0
vt 0.0625 0
vt 0.625 0.1875
vt 0.75 0.1875
vt 0.75 0
vt 0.625 0
vt 0.4375 0.1875
vt 0.5625 0.1875
vt 0.5625 0
vt 0.4375 0
vt 0.8125 0.125
vt 0.9375 0.125
vt 0.9375 0
vt 0.8125 0
vt 0.8125 0.125
vt 0.9375 0.125
vt 0.9375 0
vt 0.8125 0
vn 0 0 -1
vn 1 0 0
vn 0 0 1
vn -1 0 0
vn 0 1 0
vn 0 -1 0
f 28/28/7 31/27/7 29/26/7 26/25/7
f 27/32/8 28/31/8 26/30/8 25/29/8
f 32/36/9 27/35/9 25/34/9 30/33/9
f 31/40/10 32/39/10 30/38/10 29/37/10
f 30/44/11 25/43/11 26/42/11 29/41/11
f 31/48/12 28/47/12 27/46/12 32/45/12
v -0.06629126073623881 0.25 0.06629126073623881
v 0.06629126073623881 0.25 -0.06629126073623881
v -0.06629126073623881 0.125 0.06629126073623881
v 0.06629126073623881 0.125 -0.06629126073623881
v 0.06629126073623881 0.25 -0.06629126073623881
v -0.06629126073623881 0.25 0.06629126073623881
v 0.06629126073623881 0.125 -0.06629126073623881
v -0.06629126073623881 0.125 0.06629126073623881
vt 0.0625 0.3125
vt 0.25 0.3125
vt 0.25 0.1875
vt 0.0625 0.1875
vn -0.7071067811865475 0 -0.7071067811865476
f 39/52/13 40/51/13 38/50/13 37/49/13