# Blender v2.82 (sub 7) OBJ File: 'Rook.blend'
# www.blender.org
mtllib chess_rook.mtl
o Rook_Chess_Piece_Base
v -0.000000 -0.500000 -0.400000
v 0.276605 -0.500000 -0.282843
v 0.391179 -0.500000 0.000000
v 0.276605 -0.500000 0.282843
v 0.136062 0.504667 -0.139130
v -0.000000 -0.500000 0.400000
v -0.136062 0.504667 0.139130
v -0.276605 -0.500000 0.282843
v -0.391179 -0.500000 -0.000000
v -0.276605 -0.500000 -0.282843
v -0.000000 -0.016442 -0.341805
v -0.000000 -0.035239 -0.348279
v 0.236363 -0.016442 -0.241693
v 0.240840 -0.035239 -0.246271
v 0.334267 -0.016442 0.000000
v 0.340599 -0.035239 0.000000
v 0.236363 -0.016442 0.241693
v 0.240840 -0.035239 0.246271
v -0.000000 -0.016442 0.341805
v -0.000000 -0.035239 0.348280
v -0.236363 -0.016442 0.241693
v -0.240840 -0.035239 0.246271
v -0.334267 -0.016442 -0.000000
v -0.340599 -0.035239 -0.000000
v -0.236362 -0.016442 -0.241693
v -0.240839 -0.035239 -0.246271
v 0.219077 -0.089079 -0.224017
v 0.309822 -0.089079 0.000000
v 0.219077 -0.089079 0.224018
v -0.000000 -0.089079 0.316809
v -0.219077 -0.089079 0.224017
v -0.309822 -0.089079 -0.000000
v -0.219077 -0.089079 -0.224018
v -0.000000 -0.089079 -0.316808
v -0.000000 -0.210466 -0.408926
v -0.000000 -0.235226 -0.409020
v 0.282843 -0.235226 -0.289221
v 0.282777 -0.210466 -0.289154
v 0.400000 -0.235226 0.000000
v 0.399908 -0.210466 0.000000
v 0.282843 -0.235226 0.289221
v 0.282777 -0.210466 0.289154
v -0.000000 -0.235226 0.409020
v -0.000000 -0.210466 0.408926
v -0.282843 -0.235226 0.289221
v -0.282778 -0.210466 0.289154
v -0.400000 -0.235226 -0.000000
v -0.399908 -0.210466 -0.000000
v -0.282842 -0.235226 -0.289221
v -0.282777 -0.210466 -0.289154
v -0.000000 -0.292430 -0.381889
v 0.264081 -0.292430 -0.270036
v 0.373467 -0.292430 0.000000
v 0.264081 -0.292430 0.270037
v -0.000000 -0.292430 0.381889
v -0.264081 -0.292430 0.270036
v -0.373467 -0.292430 -0.000000
v -0.264081 -0.292430 -0.270037
v 0.276605 -0.343614 -0.282843
v 0.391179 -0.343614 0.000000
v 0.276605 -0.343614 0.282843
v -0.000000 -0.343614 0.400000
v -0.276605 -0.343614 0.282843
v -0.391179 -0.343614 -0.000000
v -0.276605 -0.343614 -0.282843
v -0.000000 -0.343614 -0.400000
v 0.186472 0.013054 -0.190677
v -0.136062 0.504667 -0.139130
v 0.136062 0.504667 0.139130
v -0.186472 0.013054 0.190677
v -0.000000 0.504667 0.196760
v 0.000000 0.504667 -0.196760
v 0.192421 0.504667 0.000000
v -0.192421 0.504667 -0.000000
v -0.192421 0.324667 -0.000000
v 0.192421 0.324667 0.000000
v 0.000000 0.324667 -0.196760
v -0.000000 0.324667 0.196760
v 0.136062 0.324667 0.139130
v -0.186472 0.013054 -0.190677
v 0.186472 0.013054 0.190677
v -0.000000 0.013054 0.269658
v -0.136062 0.324667 -0.139130
v -0.000000 0.013054 -0.269658
v 0.263711 0.013054 0.000000
v -0.136062 0.324667 0.139130
v -0.263711 0.013054 -0.000000
v 0.136062 0.324667 -0.139130
v 0.147270 0.504667 -0.150591
v -0.147270 0.504667 0.150591
v -0.147270 0.504667 -0.150591
v 0.147270 0.504667 0.150591
v -0.000000 0.504667 0.212968
v 0.000000 0.504667 -0.212968
v 0.208272 0.504667 0.000000
v -0.208272 0.504667 -0.000000
v 0.147270 0.553054 -0.150591
v -0.147270 0.553054 0.150591
v -0.147270 0.553054 -0.150591
v 0.147270 0.553054 0.150591
v -0.000000 0.553054 0.212968
v 0.000000 0.553054 -0.212968
v 0.208272 0.553054 0.000000
v -0.208272 0.553054 -0.000000
v 0.177206 0.583054 -0.181202
v -0.177207 0.583054 0.181202
v -0.177206 0.583054 -0.181203
v 0.177206 0.583054 0.181203
v -0.000000 0.583054 0.256259
v 0.000000 0.583054 -0.256259
v 0.250608 0.583054 0.000000
v -0.250608 0.583054 -0.000000
v 0.184509 0.602409 -0.188669
v -0.184509 0.602409 -0.188670
v 0.184509 0.602409 0.188670
v 0.150224 0.813523 -0.154549
v -0.153260 0.813523 0.155779
v -0.153260 0.813523 -0.154549
v 0.150224 0.813523 0.155779
v -0.001518 0.813523 0.220050
v -0.001518 0.813523 -0.218820
v 0.213078 0.813523 0.000615
v -0.216114 0.813523 0.000615
v -0.186027 0.813523 0.189284
v -0.186027 0.813523 -0.188055
v -0.262453 0.813523 0.000615
v 0.259417 0.813523 0.000615
v 0.074353 0.813523 -0.186685
v 0.181651 0.813523 -0.076967
v 0.074353 0.813523 0.187915
v -0.077389 0.813523 0.187914
v -0.184687 0.813523 0.078197
v -0.184687 0.813523 -0.076967
v -0.001518 0.813523 0.267434
v -0.001518 0.813523 -0.266204
v 0.182991 0.813523 -0.188055
v 0.182991 0.813523 0.189285
v 0.221204 0.813523 -0.093720
v -0.224240 0.813523 0.094950
v -0.224240 0.813523 -0.093720
v -0.184509 0.602409 0.188669
v -0.000000 0.602409 0.266819
v -0.000000 0.602409 -0.266819
v -0.260935 0.602409 -0.000000
v 0.260935 0.602409 0.000000
v -0.093773 0.813523 0.228359
v -0.186027 0.891890 -0.188055
v 0.182991 0.891890 -0.188055
v 0.182991 0.891890 0.189285
v -0.153260 0.891890 -0.154549
v 0.150224 0.891890 -0.154549
v 0.150224 0.891890 0.155779
v -0.186027 0.891890 0.189284
v -0.153260 0.891890 0.155779
v 0.221204 0.813523 0.094950
v 0.090736 0.813523 0.228359
v 0.090736 0.813523 -0.227129
v -0.077389 0.813523 -0.186685
v -0.093772 0.813523 -0.227129
v 0.181651 0.813523 0.078197
v 0.052801 0.891890 -0.243197
v 0.052801 0.813523 -0.243197
v 0.036418 0.813523 -0.202752
v 0.036418 0.891890 -0.202752
v -0.039454 0.813523 -0.202752
v -0.055837 0.813523 -0.243197
v 0.197364 0.813523 -0.038176
v 0.236917 0.813523 -0.054929
v 0.197364 0.813523 0.039406
v 0.236917 0.813523 0.056159
v 0.036417 0.813523 0.203982
v 0.052801 0.813523 0.244427
v -0.200400 0.813523 -0.038176
v -0.239953 0.813523 -0.054929
v -0.200400 0.813523 0.039406
v -0.200400 0.891890 0.039406
v -0.039454 0.813523 0.203982
v -0.055837 0.813523 0.244427
v -0.239953 0.813523 0.056159
v -0.039454 0.891890 -0.202752
v -0.055837 0.891890 -0.243197
v 0.197364 0.891890 -0.038176
v 0.236917 0.891890 -0.054929
v 0.197364 0.891890 0.039406
v 0.236917 0.891890 0.056159
v 0.036417 0.891890 0.203982
v 0.052801 0.891890 0.244427
v -0.200400 0.891890 -0.038176
v -0.239953 0.891890 -0.054929
v -0.039454 0.891890 0.203982
v -0.055837 0.891890 0.244427
v -0.239953 0.891890 0.056159
v -0.001308 0.726442 0.219965
v -0.153050 0.726442 -0.154634
v -0.215904 0.726442 0.000530
v -0.153050 0.726442 0.155694
v 0.148916 0.734744 -0.154019
v -0.002826 0.734744 -0.218290
v 0.211770 0.734744 0.001145
v 0.148916 0.734744 0.156309
v -0.002067 0.730593 0.000837
v -0.001628 -0.500000 0.399311
v -0.000813 -0.500000 -0.000831
v 0.000000 -0.500000 0.000000
v -0.000814 -0.500000 -0.000000
v -0.277023 -0.500000 0.281812
vt 0.319914 0.112355
vt 0.208559 0.112355
vt 0.208559 0.000000
vt 0.319914 0.000000
vt 0.097041 0.112355
vt 0.097041 0.000000
vt 0.207973 0.000000
vt 0.999960 0.112355
vt 0.885201 0.112355
vt 0.885201 0.000000
vt 0.999588 0.000000
vt 0.999960 0.000000
vt 0.770600 0.112355
vt 0.770600 0.000000
vt 0.659430 0.112355
vt 0.659430 0.000000
vt 0.319971 0.333906
vt 0.320015 0.295225
vt 0.434311 0.295225
vt 0.434283 0.333906
vt 0.434245 0.112355
vt 0.434245 0.000000
vt 0.659087 0.000000
vt 0.434240 0.190227
vt 0.434257 0.149128
vt 0.548421 0.149128
vt 0.548423 0.190226
vt 0.885207 0.208015
vt 0.770608 0.208015
vt 0.770608 0.190227
vt 0.885207 0.190227
vt 0.659436 0.208015
vt 0.659436 0.190226
vt 0.659386 0.333906
vt 0.659353 0.295225
vt 0.770498 0.295225
vt 0.770542 0.333906
vt 0.885135 0.295225
vt 0.885164 0.333906
vt 0.999970 0.295225
vt 0.999965 0.333906
vt 0.097047 0.333906
vt 0.097051 0.295225
vt 0.208637 0.295225
vt 0.208603 0.333906
vt 0.548404 0.368602
vt 0.434366 0.368602
vt 0.434288 0.347411
vt 0.548416 0.347411
vt 0.548412 0.295225
vt 0.548417 0.333906
vt 0.770534 0.347411
vt 0.770413 0.368602
vt 0.659288 0.368602
vt 0.659380 0.347411
vt 0.885079 0.368602
vt 0.885158 0.347411
vt 0.999978 0.368602
vt 0.999966 0.347411
vt 0.208702 0.368602
vt 0.097060 0.368602
vt 0.097047 0.347411
vt 0.208610 0.347411
vt 0.320101 0.368602
vt 0.319980 0.347411
vt 0.659416 0.149128
vt 0.319905 0.208015
vt 0.434240 0.208015
vt 0.208553 0.208015
vt 0.097040 0.208015
vt 0.999959 0.208015
vt 0.548423 0.112355
vt 0.548423 0.000000
vt 0.319932 0.149128
vt 0.208573 0.149128
vt 0.097043 0.149128
vt 0.999961 0.149128
vt 0.885189 0.149128
vt 0.770581 0.149128
vt 0.999959 0.190227
vt 0.097040 0.190227
vt 0.208553 0.190227
vt 0.319905 0.190227
vt 0.548423 0.208015
vt 0.659127 0.592480
vt 0.770200 0.592480
vt 0.770200 0.721801
vt 0.659127 0.721801
vt 0.884940 0.592480
vt 1.000000 0.592480
vt 1.000000 0.721801
vt 0.884940 0.721801
vt 0.548383 0.592480
vt 0.548383 0.721801
vt 0.208865 0.592480
vt 0.320313 0.592480
vt 0.320313 0.721801
vt 0.208865 0.721801
vt 0.097081 0.592480
vt 0.097081 0.721801
vt 0.434504 0.592480
vt 0.434504 0.721801
vt 0.659173 0.721801
vt 0.548389 0.721801
vt 0.659173 0.756564
vt 0.548389 0.756564
vt 0.320253 0.721801
vt 0.208819 0.721801
vt 0.097075 0.721801
vt 0.884979 0.721801
vt 0.770260 0.721801
vt 0.434465 0.721801
vt 0.999994 0.721801
vt 0.434465 0.756564
vt 0.548401 0.778118
vt 0.434386 0.778118
vt 0.999994 0.756564
vt 0.884979 0.756564
vt 0.770260 0.756564
vt 0.320253 0.756564
vt 0.208819 0.756564
vt 0.097075 0.756564
vt 0.320131 0.778118
vt 0.434370 0.792023
vt 0.320107 0.792023
vt 0.885059 0.778118
vt 0.770383 0.778118
vt 0.208725 0.778118
vt 0.097063 0.778118
vt 0.659266 0.778118
vt 0.999981 0.778118
vt 0.548403 0.792023
vt 0.885075 0.792023
vt 0.770406 0.792023
vt 0.208707 0.792023
vt 0.097060 0.792023
vt 0.659284 0.792023
vt 0.999979 0.792023
vt 0.660181 0.943698
vt 0.715473 0.943698
vt 0.771284 0.943698
vt 0.771146 0.881134
vt 0.661041 0.887099
vt 0.660100 0.943698
vt 0.715395 0.943698
vt 0.096639 1.000000
vt 0.181277 1.000000
vt 0.181277 0.943698
vt 0.152478 0.943698
vt 0.096639 0.943698
vt 0.942785 0.943698
vt 0.885407 0.943698
vt 0.885415 0.943698
vt 0.942828 0.943698
vt 0.491813 0.943698
vt 0.434041 0.943698
vt 0.434033 0.943698
vt 0.491769 0.943698
vt 0.771284 1.000000
vt 0.686693 1.000000
vt 0.691608 1.000000
vt 0.771231 1.000000
vt 0.857818 1.000000
vt 0.857818 0.943698
vt 0.828029 0.943698
vt 0.604895 0.943698
vt 0.604810 0.943698
vt 0.319281 1.000000
vt 0.239382 1.000000
vt 0.239382 0.943698
vt 0.263209 0.943698
vt 0.319281 0.943698
vt 0.376269 0.943698
vt 0.376296 0.943698
vt 0.828002 0.943698
vt 0.263131 0.943698
vt 0.319228 0.943698
vt 0.318359 0.887099
vt 0.207944 0.881134
vt 0.207807 0.943698
vt 0.039867 0.943698
vt 0.010073 0.943698
vt 0.010073 1.000000
vt 0.319228 1.000000
vt 0.234298 1.000000
vt 0.176362 1.000000
vt 0.096704 1.000000
vt 0.548825 1.000000
vt 0.461819 1.000000
vt 0.467017 1.000000
vt 0.548760 1.000000
vt 0.999622 0.943698
vt 0.691608 0.943698
vt 0.771231 0.943698
vt 0.207888 0.943698
vt 0.152563 0.943698
vt 0.015292 1.000000
vt 0.852617 0.943698
vt 0.852617 1.000000
vt 0.548760 0.943698
vt 0.686693 0.943698
vt 0.461819 0.943698
vt 0.548825 0.943698
vt 0.234298 0.943698
vt 0.176362 0.943698
vt 0.096704 0.943698
vt 0.015292 0.943698
vt 0.039910 0.943698
vt 0.406267 1.000000
vt 0.406267 0.943698
vt 0.467017 0.943698
vt 0.628624 1.000000
vt 0.633708 1.000000
vt 0.628624 0.943698
vt 0.401052 0.943698
vt 0.401052 1.000000
vt 0.633708 0.943698
vt 0.999618 0.881134
vt 0.902919 0.884117
vt 0.885350 0.881134
vt 0.096699 0.881134
vt 0.549204 0.887099
vt 0.433683 0.887099
vt 0.999558 0.943698
vt 0.000000 0.884117
vt 0.658670 0.000000
vt 0.534016 0.000000
vn 0.3900 0.0000 0.9208
vn -0.3900 0.0000 0.9208
vn -0.9268 0.0000 0.3754
vn -0.9268 0.0000 -0.3754
vn -0.3900 0.0000 -0.9208
vn 0.8190 -0.4682 0.3318
vn 0.9268 0.0000 0.3754
vn 0.0000 -1.0000 0.0000
vn 0.8515 -0.3949 -0.3449
vn -0.9268 0.0035 -0.3754
vn -0.3900 0.0035 -0.9208
vn -0.3434 -0.4739 -0.8108
vn -0.8190 -0.4682 -0.3318
vn -0.8190 -0.4682 0.3318
vn -0.3434 -0.4739 0.8108
vn 0.3434 -0.4739 0.8108
vn 0.3811 0.9116 -0.1544
vn 0.8190 -0.4682 -0.3318
vn -0.1583 0.9140 -0.3737
vn -0.3811 0.9116 -0.1544
vn -0.3811 0.9116 0.1544
vn -0.1583 0.9140 0.3737
vn 0.1583 0.9140 0.3737
vn 0.3811 0.9116 0.1544
vn 0.3574 -0.4002 -0.8438
vn 0.7636 0.5667 0.3093
vn 0.3197 0.5728 0.7548
vn -0.3197 0.5728 0.7548
vn -0.7636 0.5667 0.3093
vn -0.7636 0.5667 -0.3093
vn -0.3197 0.5728 -0.7548
vn 0.3900 0.0000 -0.9208
vn 0.3434 -0.4739 -0.8108
vn 0.1583 0.9140 -0.3737
vn 0.3718 0.3023 -0.8777
vn 0.8847 0.2980 -0.3584
vn 0.8847 0.2980 0.3584
vn 0.3718 0.3023 0.8777
vn -0.3718 0.3023 0.8777
vn -0.8847 0.2980 0.3584
vn 0.8826 0.3054 -0.3575
vn 0.8826 0.3054 0.3575
vn 0.3708 0.3098 0.8755
vn -0.3708 0.3098 0.8755
vn -0.8826 0.3054 0.3575
vn -0.8826 0.3054 -0.3575
vn -0.3708 0.3098 -0.8755
vn -0.3718 0.3023 -0.8777
vn 0.3708 0.3098 -0.8755
vn -0.9268 0.0035 0.3754
vn -0.3900 0.0035 0.9208
vn -0.3574 -0.4002 -0.8438
vn 0.3900 0.0035 0.9208
vn -0.8515 -0.3949 -0.3449
vn 0.9268 0.0035 0.3754
vn -0.8515 -0.3949 0.3449
vn 0.9268 0.0035 -0.3754
vn -0.3574 -0.4002 0.8438
vn 0.3900 0.0035 -0.9208
vn 0.3574 -0.4002 0.8438
vn 0.3197 0.5728 -0.7548
vn 0.8515 -0.3949 0.3449
vn 0.7636 0.5667 -0.3093
vn 0.9268 0.0000 -0.3754
vn -0.8847 0.2980 -0.3584
vn 0.3813 0.2106 -0.9002
vn -0.3813 0.2106 0.9002
vn -0.9067 0.2074 0.3673
vn 0.3813 0.2106 0.9002
vn -0.3813 0.2106 -0.9002
vn 0.9067 0.2074 0.3673
vn 0.9067 0.2074 -0.3673
vn -0.9067 0.2074 -0.3673
vn 0.5629 -0.7944 -0.2280
vn 0.8308 -0.4433 0.3365
vn -0.5629 -0.7944 -0.2280
vn -0.2345 -0.7990 0.5537
vn 0.2345 -0.7990 0.5537
vn 0.2345 -0.7990 -0.5537
vn -0.5629 -0.7944 0.2280
vn -0.2345 -0.7990 -0.5537
vn 0.5629 -0.7944 0.2280
vn 0.8308 -0.4433 -0.3365
vn -0.8308 -0.4433 -0.3365
vn -0.3485 -0.4489 0.8228
vn 0.3485 -0.4489 0.8228
vn 0.3485 -0.4489 -0.8228
vn -0.8308 -0.4433 0.3365
vn -0.3485 -0.4489 -0.8228
vn 0.3901 -0.0001 0.9208
vn 0.0000 1.0000 0.0000
vn -0.3901 0.0001 -0.9208
vn -0.9268 -0.0078 0.3754
vn 0.3900 0.0055 -0.9208
vn 0.9268 0.0056 0.3754
vn -0.9268 -0.0056 -0.3754
vn -0.3900 -0.0001 -0.9208
vn -0.3900 -0.0055 0.9208
vn 0.9268 0.0078 -0.3754
vn -0.0194 0.9998 0.0079
vn 0.3900 0.0018 -0.9208
vn -0.9267 0.0179 0.3754
vn 0.9268 0.0019 0.3754
vn 0.9268 0.0026 -0.3754
vn -0.3900 0.0127 0.9207
vn -0.9268 0.0129 -0.3754
vn 0.3900 0.0001 0.9208
vn -0.0080 0.9998 0.0190
vn -0.0471 0.9987 0.0191
vn -0.0194 0.9998 -0.0079
usemtl None
s off
f 61/1/1 62/2/1 6/3/1 4/4/1
f 62/2/2 63/5/2 8/6/2 202/7/2 6/3/2
f 63/8/3 64/9/3 9/10/3 206/11/3 8/12/3
f 64/9/4 65/13/4 10/14/4 9/10/4
f 65/13/5 66/15/5 1/16/5 10/14/5
f 18/17/6 29/18/6 28/19/6 16/20/6
f 60/21/7 61/1/7 4/4/7 3/22/7
f 1/16/8 203/23/8 10/14/8
f 39/24/9 53/25/9 52/26/9 37/27/9
f 48/28/10 50/29/10 49/30/10 47/31/10
f 50/29/11 35/32/11 36/33/11 49/30/11
f 12/34/12 34/35/12 33/36/12 26/37/12
f 26/37/13 33/36/13 32/38/13 24/39/13
f 24/39/14 32/38/14 31/40/14 22/41/14
f 22/42/15 31/43/15 30/44/15 20/45/15
f 20/45/16 30/44/16 29/18/16 18/17/16
f 67/46/17 85/47/17 15/48/17 13/49/17
f 16/20/18 28/19/18 27/50/18 14/51/18
f 25/52/19 80/53/19 84/54/19 11/55/19
f 87/56/20 80/53/20 25/52/20 23/57/20
f 70/58/21 87/56/21 23/57/21 21/59/21
f 82/60/22 70/61/22 21/62/22 19/63/22
f 81/64/23 82/60/23 19/63/23 17/65/23
f 85/47/24 81/64/24 17/65/24 15/48/24
f 37/27/25 52/26/25 51/66/25 36/33/25
f 42/67/26 40/68/26 28/19/26 29/18/26
f 44/69/27 42/67/27 29/18/27 30/44/27
f 46/70/28 44/69/28 30/44/28 31/43/28
f 48/28/29 46/71/29 31/40/29 32/38/29
f 50/29/30 48/28/30 32/38/30 33/36/30
f 35/32/31 50/29/31 33/36/31 34/35/31
f 66/15/32 59/72/32 2/73/32 1/16/32
f 14/51/33 27/50/33 34/35/33 12/34/33
f 84/54/34 67/46/34 13/49/34 11/55/34
f 14/51/35 12/34/35 11/55/35 13/49/35
f 16/20/36 14/51/36 13/49/36 15/48/36
f 18/17/37 16/20/37 15/48/37 17/65/37
f 20/45/38 18/17/38 17/65/38 19/63/38
f 22/42/39 20/45/39 19/63/39 21/62/39
f 24/39/40 22/41/40 21/59/40 23/57/40
f 60/21/41 59/72/41 52/26/41 53/25/41
f 61/1/42 60/21/42 53/25/42 54/74/42
f 62/2/43 61/1/43 54/74/43 55/75/43
f 63/5/44 62/2/44 55/75/44 56/76/44
f 64/9/45 63/8/45 56/77/45 57/78/45
f 65/13/46 64/9/46 57/78/46 58/79/46
f 66/15/47 65/13/47 58/79/47 51/66/47
f 12/34/48 26/37/48 25/52/48 11/55/48
f 59/72/49 66/15/49 51/66/49 52/26/49
f 46/71/50 48/28/50 47/31/50 45/80/50
f 44/69/51 46/70/51 45/81/51 43/82/51
f 49/30/52 36/33/52 51/66/52 58/79/52
f 42/67/53 44/69/53 43/82/53 41/83/53
f 49/30/54 58/79/54 57/78/54 47/31/54
f 40/68/55 42/67/55 41/83/55 39/24/55
f 47/31/56 57/78/56 56/77/56 45/80/56
f 38/84/57 40/68/57 39/24/57 37/27/57
f 45/81/58 56/76/58 55/75/58 43/82/58
f 35/32/59 38/84/59 37/27/59 36/33/59
f 43/82/60 55/75/60 54/74/60 41/83/60
f 38/84/61 35/32/61 34/35/61 27/50/61
f 41/83/62 54/74/62 53/25/62 39/24/62
f 40/68/63 38/84/63 27/50/63 28/19/63
f 59/72/64 60/21/64 3/22/64 2/73/64
f 26/37/65 24/39/65 23/57/65 25/52/65
f 77/85/5 83/86/5 68/87/5 72/88/5
f 75/89/3 86/90/3 7/91/3 74/92/3
f 88/93/32 77/85/32 72/88/32 5/94/32
f 78/95/1 79/96/1 69/97/1 71/98/1
f 86/99/2 78/95/2 71/98/2 7/100/2
f 83/86/4 75/89/4 74/92/4 68/87/4
f 76/101/64 88/93/64 5/94/64 73/102/64
f 5/94/8 72/88/8 94/103/8 89/104/8
f 67/46/66 84/54/66 77/85/66 88/93/66
f 70/61/67 82/60/67 78/95/67 86/99/67
f 87/56/68 70/58/68 86/90/68 75/89/68
f 82/60/69 81/64/69 79/96/69 78/95/69
f 84/54/70 80/53/70 83/86/70 77/85/70
f 81/64/71 85/47/71 76/101/71 79/96/71
f 85/47/72 67/46/72 88/93/72 76/101/72
f 80/53/73 87/56/73 75/89/73 83/86/73
f 79/96/7 76/101/7 73/102/7 69/97/7
f 89/104/32 94/103/32 102/105/32 97/106/32
f 71/98/8 69/97/8 92/107/8 93/108/8
f 7/100/8 71/98/8 93/108/8 90/109/8
f 68/87/8 74/92/8 96/110/8 91/111/8
f 73/102/8 5/94/8 89/104/8 95/112/8
f 69/97/8 73/102/8 95/112/8 92/107/8
f 72/88/8 68/87/8 91/111/8 94/103/8
f 74/92/8 7/91/8 90/113/8 96/110/8
f 103/114/74 97/106/74 105/115/74 111/116/74
f 96/110/3 90/113/3 98/117/3 104/118/3
f 94/103/5 91/111/5 99/119/5 102/105/5
f 93/108/1 92/107/1 100/120/1 101/121/1
f 92/107/7 95/112/7 103/114/7 100/120/7
f 95/112/64 89/104/64 97/106/64 103/114/64
f 91/111/4 96/110/4 104/118/4 99/119/4
f 90/109/2 93/108/2 101/121/2 98/122/2
f 108/123/75 111/116/75 145/124/75 115/125/75
f 99/119/76 104/118/76 112/126/76 107/127/76
f 98/122/77 101/121/77 109/128/77 106/129/77
f 101/121/78 100/120/78 108/123/78 109/128/78
f 97/106/79 102/105/79 110/130/79 105/115/79
f 104/118/80 98/117/80 106/131/80 112/126/80
f 102/105/81 99/119/81 107/127/81 110/130/81
f 100/120/82 103/114/82 111/116/82 108/123/82
f 111/116/83 105/115/83 113/132/83 145/124/83
f 107/127/84 112/126/84 144/133/84 114/134/84
f 106/129/85 109/128/85 142/135/85 141/136/85
f 109/128/86 108/123/86 115/125/86 142/135/86
f 105/115/87 110/130/87 143/137/87 113/132/87
f 112/126/88 106/131/88 141/138/88 144/133/88
f 110/130/89 107/127/89 114/134/89 143/137/89
f 121/139/90 158/140/90 118/141/90 194/142/90 198/143/90
f 158/140/91 121/139/91 135/144/91 159/145/91
f 154/146/32 190/147/32 177/148/32 131/149/32 117/150/32
f 132/151/91 123/152/91 126/153/91 139/154/91
f 129/155/91 122/156/91 127/157/91 138/158/91
f 150/159/91 180/160/91 181/161/91 147/162/91
f 150/159/7 188/163/7 173/164/7 133/165/7 118/141/7
f 121/139/91 128/166/91 157/167/91 135/144/91
f 149/168/1 187/169/1 172/170/1 156/171/1 137/172/1
f 122/156/91 160/173/91 155/174/91 127/157/91
f 123/152/91 133/165/91 140/175/91 126/153/91
f 130/176/92 119/177/92 200/178/92 193/179/92 120/180/92
f 132/181/64 175/182/64 176/183/64 154/146/64 117/150/64
f 152/184/91 186/185/91 187/169/91 149/168/91
f 191/186/91 190/147/91 154/146/91 153/187/91
f 151/188/91 182/189/91 183/190/91 148/191/91
f 139/154/93 126/153/93 144/133/93 141/138/93 124/192/93
f 181/161/5 166/193/5 159/145/5 125/194/5 147/162/5
f 130/176/91 120/180/91 134/195/91 156/171/91
f 120/180/91 131/149/91 146/196/91 134/195/91
f 154/146/91 176/183/91 192/197/91 153/187/91
f 140/175/4 174/198/4 189/199/4 147/162/4 125/194/4
f 157/167/94 136/200/94 113/132/94 143/137/94 135/144/94
f 127/157/95 155/174/95 137/172/95 115/125/95 145/124/95
f 158/140/1 165/201/1 180/160/1 150/159/1 118/141/1
f 129/155/3 167/202/3 182/189/3 151/188/3 116/203/3
f 130/176/5 171/204/5 186/185/5 152/184/5 119/177/5
f 146/196/2 178/205/2 191/186/2 153/187/2 124/206/2
f 153/187/3 192/197/3 179/207/3 139/208/3 124/206/3
f 126/153/96 140/175/96 125/194/96 114/134/96 144/133/96
f 125/194/97 159/145/97 135/144/97 143/137/97 114/134/97
f 134/195/98 146/196/98 124/206/98 141/136/98 142/135/98
f 160/173/4 119/177/4 152/184/4 184/209/4 169/210/4
f 136/200/99 138/158/99 127/157/99 145/124/99 113/132/99
f 148/191/64 183/190/64 168/211/64 138/158/64 136/200/64
f 148/191/91 161/212/91 164/213/91 151/188/91
f 147/162/91 189/199/91 188/163/91 150/159/91
f 157/167/32 162/214/32 161/212/32 148/191/32 136/200/32
f 155/174/7 170/215/7 185/216/7 149/168/7 137/172/7
f 171/204/3 172/170/3 187/169/3 186/185/3
f 162/214/4 163/217/4 164/213/4 161/212/4
f 167/202/1 168/211/1 183/190/1 182/189/1
f 174/198/2 173/164/2 188/163/2 189/199/2
f 178/205/7 177/148/7 190/147/7 191/186/7
f 165/201/64 166/193/64 181/161/64 180/160/64
f 175/182/5 179/207/5 192/197/5 176/183/5
f 170/215/32 169/210/32 184/209/32 185/216/32
f 158/140/8 159/145/8 166/193/8 165/201/8
f 157/167/8 128/166/8 163/217/8 162/214/8
f 129/155/8 138/158/8 168/211/8 167/202/8
f 149/168/91 185/216/91 184/209/91 152/184/91
f 155/174/8 160/173/8 169/210/8 170/215/8
f 130/176/8 156/171/8 172/170/8 171/204/8
f 140/175/8 133/165/8 173/164/8 174/198/8
f 146/196/8 131/149/8 177/148/8 178/205/8
f 132/181/8 139/208/8 179/207/8 175/182/8
f 196/218/100 201/219/100 195/220/100
f 117/150/101 131/149/101 120/180/101 193/179/101 196/221/101
f 129/155/102 116/203/102 197/222/102 199/223/102 122/156/102
f 133/165/103 123/152/103 195/220/103 194/142/103 118/141/103
f 123/152/104 132/151/104 117/224/104 196/218/104 195/220/104
f 116/203/105 128/166/105 121/139/105 198/143/105 197/222/105
f 119/177/106 160/173/106 122/156/106 199/223/106 200/178/106
f 137/172/107 156/171/107 134/195/107 142/135/107 115/125/107
f 151/188/2 164/213/2 163/217/2 128/166/2 116/203/2
f 197/222/100 201/219/100 199/223/100
f 193/179/108 201/225/108 196/221/108
f 198/143/108 201/219/108 197/222/108
f 200/178/109 201/225/109 193/179/109
f 194/142/109 201/219/109 198/143/109
f 199/223/110 201/225/110 200/178/110
f 195/220/110 201/219/110 194/142/110
f 202/7/8 205/226/8 204/227/8 4/4/8 6/3/8
f 4/4/8 204/227/8 3/22/8
f 10/14/8 203/23/8 205/226/8 9/10/8
f 9/10/8 205/226/8 206/11/8
f 204/227/8 205/226/8 203/23/8
f 3/22/8 204/227/8 203/23/8 2/73/8
f 2/73/8 203/23/8 1/16/8
f 206/11/8 205/226/8 202/7/8 8/12/8
