g top
v -0.5 0 0.5
v -0.5 0 -0.5
v 0.5 0 -0.5
v 0.5 0 0.5
vt 0.5 0
vt 0.5 1
vt 0 1
vt 0 0
vn 0 0.8944 -0.4472
s off
f 2/1/1 1/2/1 4/3/1 3/4/1
g bottom
v -0.5 -0.5 -0.5
v -0.5 -0.5 0.5
v 0.5 -0.5 -0.5
v 0.5 -0.5 0.5
vt 0.5 0
vt 0.5 1
vt 0 1
vt 0 0
vn 0 -1 -0
s off
f 6/5/2 5/6/2 7/7/2 8/8/2
g right
v -0.5 0 0.5
v -0.5 0 -0.5
v -0.5 -0.5 -0.5
v -0.5 -0.5 0.5
vt 0.5 0.5
vt 0 0.5
vt 0 0
vt 0.5 0
vn -1 0 0
s off
f 9/9/3 10/10/3 11/11/3 12/12/3
g left
v 0.5 0 -0.5
v 0.5 -0.5 -0.5
v 0.5 0 0.5
v 0.5 -0.5 0.5
vt 0.5 0.5
vt 0 0.5
vt 0 0
vt 0.5 0
vn 1 0 0
s off
f 13/13/4 15/14/4 16/15/4 14/16/4
g back
v -0.5 0 0.5
v -0.5 -0.5 0.5
v 0.5 0 0.5
v 0.5 -0.5 0.5
vt 0.5 0.5
vt 0 0.5
vt 0 0
vt 0.5 0
vn 0 -0 1
s off
f 19/17/5 17/18/5 18/19/5 20/20/5
g front
v -0.5 0 -0.5
v -0.5 -0.5 -0.5
v 0.5 0 -0.5
v 0.5 -0.5 -0.5
vt 0.5 0.5000
vt 0 0.5000
vt 0 0
vt 0.5 0
vn 0 0 -1
s off
f 21/21/6 23/22/6 24/23/6 22/24/6

v  0.0625 0.0100  0.5000
v -0.0625 0.0100  0.5000
v -0.5559 0.0100 -0.9720
v -0.4441 0.0100 -1.0279
v  0.0625 0.0100 -0.0148
v -0.0625 0.0100  0.0148

vt 0.5 0
vt 0.5 1
vt 1 1
vt 1 0
vt 0.5 0.5
vt 1 0.5

vn 0 1 0

f 25/25/7 29/29/7 30/30/7 26/26/7
f 29/29/7 28/28/7 27/27/7 30/30/7

