g top
v 0.500000 1.500000 -0.500000
v 0.500000 1.500000 0.500000
v -0.500000 1.500000 0.500000
v -0.500000 0.500000 -0.500000
v -0.500000 0.500000 -0.500000
vt 1.0000 1.0000
vt 0.0000 1.0000
vt 1.0000 0.0000
vt 1.0000 1.0000
vt 0.0000 1.0000
vt 0.0000 0.0000
vn 0.0000 0.7071 -0.7071
vn -0.7071 0.7071 0.0000
s 1
f 3/1/1 2/2/1 4/3/1
f 2/4/2 1/5/2 5/6/2
g bottom
v 0.500000 -0.500000 0.500000
v 0.500000 -0.500000 -0.500000
v -0.500000 -0.500000 0.500000
v -0.500000 -0.500000 -0.500000
v 0.500000 -0.500000 0.500000
v -0.500000 0.500000 -0.500000
v -0.500000 0.500000 0.500000
v 0.500000 0.500000 -0.500000
v 0.500000 0.500000 0.500000
vt 1.0000 1.0000
vt 0.0000 1.0000
vt 0.0000 0.0000
vt 1.0000 0.0000
vn 0.0000 -1.0000 -0.0000
vn -1.0000 0.0000 0.0000
vn 1.0000 0.0000 0.0000
vn 0.0000 0.0000 1.0000
vn 0.0000 0.0000 -1.0000
s 1
f 9/7/3 7/8/3 6/9/3 8/10/3
f 12/7/4 11/8/4 9/9/4 8/10/4
f 13/7/5 14/8/5 10/9/5 7/10/5
f 14/7/6 12/8/6 8/9/6 10/10/6
f 11/7/7 13/8/7 7/9/7 9/10/7
l 8 10
g right
v -0.500000 1.500000 0.500000
v -0.500000 0.500000 -0.500000
v -0.500000 0.500000 0.500000
vt 1.0000 1.0000
vt 0.0000 0.0000
vt 1.0000 0.0000
vn -1.0000 0.0000 0.0000
s 1
f 15/11/8 16/12/8 17/13/8
g left
v 0.500000 1.500000 -0.500000
v 0.500000 1.500000 0.500000
v 0.500000 0.500000 0.500000
v 0.500000 0.500000 -0.500000
v 0.500000 0.500000 0.500000
vt 1.0000 1.0000
vt 0.0000 1.0000
vt 0.0000 0.0000
vt 1.0000 0.0000
vn 1.0000 0.0000 0.0000
s 1
f 18/14/9 19/15/9 20/16/9 21/17/9
l 15 18
g back
v 0.500000 1.500000 0.500000
v 0.500000 0.500000 0.500000
v -0.500000 1.500000 0.500000
v -0.500000 0.500000 0.500000
v 0.500000 0.500000 0.500000
vt 0.0000 0.0000
vt 1.0000 0.0000
vt 1.0000 1.0000
vt 0.0000 1.0000
vn 0.0000 -0.0000 1.0000
s 1
f 26/18/10 24/19/10 23/20/10 25/21/10
l 22 23
l 19 23
g front
v 0.500000 1.500000 -0.500000
v 0.500000 0.500000 -0.500000
v -0.500000 0.500000 -0.500000
v -0.500000 0.500000 -0.500000
vt 0.0000 1.0000
vt 0.0000 0.0000
vt 1.0000 0.0000
vn 0.0000 0.0000 -1.0000
s 1
f 28/22/11 29/23/11 31/24/11
