g top
v 0.500000 1.500000 -0.500000
v 0.500000 1.500000 0.500000
v -0.500000 1.500000 0.500000
v -0.500000 1.000000 -0.500000
v -0.500000 1.000000 -0.500000
vt 1.0000 1.0000
vt 0.0000 1.0000
vt 1.0000 0.0000
vt 0.0000 0.0000
vt 1.0000 0.0000
vn 0.0000 0.8944 -0.4472
vn -0.4472 0.8944 0.0000
s off
f 3/1/1 2/2/1 4/3/1
f 2/2/2 1/4/2 5/5/2
g bottom
v 0.500000 -0.500000 0.500000
v 0.500000 -0.500000 -0.500000
v -0.500000 -0.500000 0.500000
v -0.500000 -0.500000 -0.500000
v 0.500000 -0.500000 0.500000
v -0.500000 0.500000 -0.500000
v -0.500000 0.500000 0.500000
v 0.500000 0.500000 -0.500000
v 0.500000 0.500000 0.500000
vt 1.0000 1.0000
vt 0.0000 1.0000
vt 0.0000 0.0000
vt 1.0000 0.0000
vn 0.0000 -1.0000 -0.0000
vn -1.0000 0.0000 0.0000
vn 1.0000 0.0000 0.0000
vn 0.0000 0.0000 1.0000
vn 0.0000 0.0000 -1.0000
s off
f 8/6/3 9/7/3 7/8/3 6/9/3
f 12/6/4 11/7/4 9/8/4 8/9/4
f 13/6/5 14/7/5 10/8/5 7/9/5
f 14/6/6 12/7/6 8/8/6 10/9/6
f 11/6/7 13/7/7 7/8/7 9/9/7
l 10 8
g right
v -0.500000 1.500000 0.500000
v -0.500000 1.000000 -0.500000
v -0.500000 0.500000 0.500000
v -0.500000 1.000000 -0.500000
v -0.500000 0.500000 -0.500000
vt 1.0000 0.0000
vt 1.0000 1.0000
vt 0.0000 0.5000
vt 0.0000 0.0000
vn -1.0000 0.0000 0.0000
s off
f 17/10/8 15/11/8 16/12/8 19/13/8
g left
v 0.500000 1.500000 -0.500000
v 0.500000 1.500000 0.500000
v 0.500000 0.500000 0.500000
v 0.500000 0.500000 -0.500000
v 0.500000 0.500000 0.500000
vt 1.0000 1.0000
vt 0.0000 1.0000
vt 0.0000 0.0000
vt 1.0000 0.0000
vn 1.0000 0.0000 0.0000
s off
f 20/14/9 21/15/9 22/16/9 23/17/9
l 20 17
g back
v 0.500000 1.500000 0.500000
v 0.500000 0.500000 0.500000
v -0.500000 1.500000 0.500000
v -0.500000 0.500000 0.500000
v 0.500000 0.500000 0.500000
vt 0.0000 0.0000
vt 1.0000 0.0000
vt 1.0000 1.0000
vt 0.0000 1.0000
vn 0.0000 -0.0000 1.0000
s off
f 28/18/10 26/19/10 25/20/10 27/21/10
l 25 21
l 25 24
g front
v 0.500000 1.500000 -0.500000
v 0.500000 0.500000 -0.500000
v -0.500000 1.000000 -0.500000
v -0.500000 1.000000 -0.500000
v -0.500000 0.500000 -0.500000
vt 1.0000 0.5000
vt 0.0000 1.0000
vt 0.0000 0.0000
vt 1.0000 0.0000
vn -0.0000 0.0000 -1.0000
s off
f 32/22/11 30/23/11 31/24/11 34/25/11
l 29 26
