g top
v -0.500000 1.000000 0.500000
v 0.500000 1.500000 0.500000
v 0.500000 1.000000 -0.500000
v -0.500000 1.000000 -0.500000
vt 1.0000 0.0000
vt 0.0000 1.0000
vt 0.0000 0.0000
vt 1.0000 1.0000
vn 0.0000 0.8944 -0.4472
vn -0.4472 0.8944 0.0000
s off
f 4/1/1 2/2/1 3/3/1
f 4/1/2 1/4/2 2/2/2
g bottom
v -0.500000 -0.500000 0.500000
v 0.500000 -0.500000 0.500000
v 0.500000 -0.500000 -0.500000
v -0.500000 -0.500000 -0.500000
v -0.500000 0.500000 -0.500000
v -0.500000 0.500000 0.500000
v 0.500000 0.500000 -0.500000
v 0.500000 0.500000 0.500000
vt 0.0000 1.0000
vt 0.0000 0.0000
vt 1.0000 0.0000
vt 1.0000 1.0000
vn 0.0000 -1.0000 -0.0000
vn -1.0000 0.0000 0.0000
vn 1.0000 0.0000 0.0000
vn 0.0000 0.0000 1.0000
vn 0.0000 0.0000 -1.0000
s off
f 7/5/3 6/6/3 5/7/3 8/8/3
f 10/8/4 9/5/4 8/6/4 5/7/4
f 11/8/5 12/5/5 6/6/5 7/7/5
f 12/8/6 10/5/6 5/6/6 6/7/6
f 9/8/7 11/5/7 7/6/7 8/7/7
g right
v -0.500000 1.000000 0.500000
v -0.500000 0.500000 0.500000
v -0.500000 1.000000 -0.500000
v -0.500000 0.500000 -0.500000
vt 1.0000 0.5000
vt 0.0000 0.5000
vt 0.0000 0.0000
vt 1.0000 0.0000
vn -1.0000 0.0000 0.0000
s off
f 13/9/8 15/10/8 16/11/8 14/12/8
g left
v 0.500000 0.500000 0.500000
v 0.500000 1.500000 0.500000
v 0.500000 0.500000 -0.500000
v 0.500000 1.000000 -0.500000
vt 0.0000 1.0000
vt 0.0000 0.0000
vt 1.0000 0.0000
vt 1.0000 0.5000
vn 1.0000 0.0000 0.0000
s off
f 18/13/9 17/14/9 19/15/9 20/16/9
g back
v -0.500000 1.000000 0.500000
v -0.500000 0.500000 0.500000
v 0.500000 0.500000 0.500000
v 0.500000 1.500000 0.500000
vt 0.0000 0.5000
vt 0.0000 0.0000
vt 1.0000 0.0000
vt 1.0000 1.0000
vn -0.0000 -0.0000 1.0000
s off
f 21/17/10 22/18/10 23/19/10 24/20/10
g front
v 0.500000 0.500000 -0.500000
v 0.500000 1.000000 -0.500000
v -0.500000 1.000000 -0.500000
v -0.500000 0.500000 -0.500000
vt 0.0000 0.5000
vt 0.0000 0.0000
vt 1.0000 0.0000
vt 1.0000 0.5000
vn 0.0000 0.0000 -1.0000
s off
f 26/21/11 25/22/11 28/23/11 27/24/11
