g top
v -0.500000 0.500000 0.500000
v -0.500000 0.500000 -0.500000
v 0.500000 0.500000 -0.500000
v 0.500000 1.500000 0.500000
vt 1.0000 1.0000
vt 0.0000 0.0000
vt 1.0000 0.0000
vt 0.0000 1.0000
vt 0.0000 0.0000
vt 1.0000 0.0000
vn -0.7071 0.7071 0.0000
vn 0.0000 0.7071 -0.7071
s off
f 4/1/1 2/2/1 1/3/1
f 4/4/2 3/5/2 2/6/2
g bottom
v 0.500000 -0.500000 0.500000
v -0.500000 -0.500000 0.500000
v -0.500000 -0.500000 -0.500000
v 0.500000 -0.500000 -0.500000
v -0.500000 0.500000 -0.500000
v -0.500000 0.500000 0.500000
v 0.500000 0.500000 -0.500000
v 0.500000 0.500000 0.500000
vt 1.0000 1.0000
vt 0.0000 1.0000
vt 0.0000 0.0000
vt 1.0000 0.0000
vn 0.0000 -1.0000 -0.0000
vn -1.0000 0.0000 0.0000
vn 1.0000 0.0000 0.0000
vn 0.0000 0.0000 1.0000
vn 0.0000 0.0000 -1.0000
s off
f 5/7/3 6/8/3 7/9/3 8/10/3
f 10/7/4 9/8/4 7/9/4 6/10/4
f 11/7/5 12/8/5 5/9/5 8/10/5
f 12/7/6 10/8/6 6/9/6 5/10/6
f 9/7/7 11/8/7 8/9/7 7/10/7
g right
v 0.500000 0.500000 0.500000
v -0.500000 0.500000 0.500000
v 0.500000 1.500000 0.500000
vt 0.0000 0.0000
vt 1.0000 0.0000
vt 1.0000 1.0000
vn 0.0000 -0.0000 1.0000
s off
f 14/11/8 13/12/8 15/13/8
g left
v 0.500000 0.500000 0.500000
v 0.500000 0.500000 -0.500000
v 0.500000 1.500000 0.500000
vt 0.0000 1.0000
vt 0.0000 0.0000
vt 1.0000 0.0000
vn 1.0000 0.0000 0.0000
s off
f 18/14/9 16/15/9 17/16/9
