g top
v 0.500000 1.500000 -0.500000
v 0.500000 1.500000 0.500000
v -0.500000 1.500000 0.500000
v -0.500000 0.500000 -0.500000
vt 0.0000 0.0000
vt 1.0000 0.0000
vt 1.0000 1.0000
vt 0.5000 0.0000
vt 1.0000 1.0000
vt 0.0000 1.0000
vn 0.0000 1.0000 0.0000
vn -0.5774 0.5774 -0.5774
s 1
f 3/1/1 2/2/1 1/3/1
f 4/4/2 3/5/2 1/6/2
g bottom
v 0.500000 -0.500000 0.500000
v 0.500000 -0.500000 -0.500000
v -0.500000 -0.500000 0.500000
v -0.500000 -0.500000 -0.500000
v -0.500000 0.500000 -0.500000
v -0.500000 0.500000 0.500000
v 0.500000 0.500000 -0.500000
v 0.500000 0.500000 0.500000
vt 0.0000 0.0000
vt 1.0000 0.0000
vt 1.0000 1.0000
vt 0.0000 1.0000
vn 0.0000 -1.0000 -0.0000
vn -1.0000 0.0000 0.0000
vn 1.0000 0.0000 0.0000
vn 0.0000 0.0000 1.0000
vn 0.0000 0.0000 -1.0000
s 1
f 6/7/3 5/8/3 7/9/3 8/10/3
f 10/9/4 9/10/4 8/7/4 7/8/4
f 11/9/5 12/10/5 5/7/5 6/8/5
f 12/9/6 10/10/6 7/7/6 5/8/6
f 9/9/7 11/10/7 6/7/7 8/8/7
g right
v -0.500000 0.500000 0.500000
v -0.500000 1.500000 0.500000
v -0.500000 0.500000 -0.500000
vt 0.0000 0.0000
vt 1.0000 0.0000
vt 1.0000 1.0000
vn -1.0000 0.0000 0.0000
s 1
f 15/11/8 13/12/8 14/13/8
g left
v 0.500000 0.500000 0.500000
v 0.500000 0.500000 -0.500000
v 0.500000 1.500000 -0.500000
v 0.500000 1.500000 0.500000
vt 0.0000 0.0000
vt 1.0000 0.0000
vt 1.0000 1.0000
vt 0.0000 1.0000
vn 1.0000 0.0000 0.0000
s 1
f 16/14/9 17/15/9 18/16/9 19/17/9
g back
v 0.500000 0.500000 0.500000
v 0.500000 1.500000 0.500000
v -0.500000 0.500000 0.500000
v -0.500000 1.500000 0.500000
vt 0.0000 0.0000
vt 1.0000 0.0000
vt 1.0000 1.0000
vt 0.0000 1.0000
vn 0.0000 -0.0000 1.0000
s 1
f 22/18/10 20/19/10 21/20/10 23/21/10
g front
v 0.500000 0.500000 -0.500000
v 0.500000 1.500000 -0.500000
v -0.500000 0.500000 -0.500000
vt 0.0000 0.0000
vt 1.0000 0.0000
vt 0.0000 1.0000
vn 0.0000 0.0000 -1.0000
s 1
f 24/22/11 26/23/11 25/24/11
