g top
v 0.500000 1.500000 0.500000
v -0.500000 1.000000 0.500000
v 0.500000 1.000000 -0.500000
v -0.500000 0.500000 -0.500000
vt 0.5000 0.0000
vt 1.0000 1.0000
vt 0.5000 2.0000
vt 0.0000 1.0000
vn -0.4082 0.8165 -0.4082
s 1
f 4/1/1 2/2/1 1/3/1 3/4/1
g bottom
v -0.500000 -0.500000 0.500000
v 0.500000 -0.500000 0.500000
v 0.500000 -0.500000 -0.500000
v -0.500000 -0.500000 -0.500000
v -0.500000 0.500000 -0.500000
v -0.500000 0.500000 0.500000
v 0.500000 0.500000 -0.500000
v 0.500000 0.500000 0.500000
vt 1.0000 1.0000
vt 0.0000 1.0000
vt 0.0000 0.0000
vt 1.0000 0.0000
vn 0.0000 -1.0000 -0.0000
vn -1.0000 0.0000 0.0000
vn 1.0000 0.0000 0.0000
vn 0.0000 0.0000 1.0000
vn 0.0000 0.0000 -1.0000
s 1
f 6/5/2 5/6/2 8/7/2 7/8/2
f 10/5/3 9/6/3 8/7/3 5/8/3
f 11/5/4 12/6/4 6/7/4 7/8/4
f 12/5/5 10/6/5 5/7/5 6/8/5
f 9/5/6 11/6/6 7/7/6 8/8/6
g right
v -0.500000 0.500000 0.500000
v -0.500000 1.000000 0.500000
v -0.500000 0.500000 -0.500000
vt 0.0000 0.0000
vt 1.0000 0.0000
vt 1.0000 0.5000
vn -1.0000 0.0000 0.0000
s 1
f 15/9/7 13/10/7 14/11/7
g left
v 0.500000 0.500000 0.500000
v 0.500000 1.500000 0.500000
v 0.500000 0.500000 -0.500000
v 0.500000 1.000000 -0.500000
vt 0.0000 0.0000
vt 1.0000 0.0000
vt 1.0000 0.5000
vt 0.0000 1.0000
vn 1.0000 0.0000 0.0000
s 1
f 16/12/8 18/13/8 19/14/8 17/15/8
g back
v -0.500000 0.500000 0.500000
v 0.500000 0.500000 0.500000
v 0.500000 1.500000 0.500000
v -0.500000 1.000000 0.500000
vt 0.0000 0.0000
vt 1.0000 0.0000
vt 1.0000 1.0000
vt 0.0000 0.5000
vn -0.0000 -0.0000 1.0000
s 1
f 20/16/9 21/17/9 22/18/9 23/19/9
g front
v 0.500000 0.500000 -0.500000
v 0.500000 1.000000 -0.500000
v -0.500000 0.500000 -0.500000
vt 0.0000 0.0000
vt 1.0000 0.0000
vt 0.0000 0.5000
vn 0.0000 0.0000 -1.0000
s 1
f 24/20/10 26/21/10 25/22/10
