v -0.250000 0.166666 0.208333
v 0.250000 0.166666 0.208333
v 0.250000 0.166666 0.250000
v -0.250000 0.166666 0.250000
v -0.250000 -0.500000 0.208333
v 0.250000 -0.500000 0.208333
v 0.250000 -0.500000 0.250000
v -0.250000 -0.500000 0.250000
v -0.250000 0.166666 -0.250000
v 0.250000 0.166666 -0.250000
v 0.250000 0.166666 -0.208333
v -0.250000 0.166666 -0.208333
v -0.250000 -0.500000 -0.250000
v 0.250000 -0.500000 -0.250000
v 0.250000 -0.500000 -0.208333
v -0.250000 -0.500000 -0.208333
v 0.208333 0.166666 -0.208333
v 0.208333 0.166666 0.208333
v 0.208333 -0.500000 -0.208333
v 0.208333 -0.500000 0.208333
v -0.208333 0.166666 -0.208333
v -0.208333 0.166666 0.208333
v -0.208333 -0.500000 -0.208333
v -0.208333 -0.500000 0.208333
v -0.208333 -0.458333 -0.208333
v 0.208333 -0.458333 -0.208333
v 0.208333 -0.458333 0.208333
v -0.208333 -0.458333 0.208333
vt 0.8750 0.8125
vt 0.1250 0.8125
vt 0.1250 0.8750
vt 0.8750 0.8750
vt 0.0000 0.8125
vt 1.0000 0.8125
vt 1.0000 0.8750
vt 0.0000 0.8750
vt 0.1250 0.0000
vt 0.8750 0.0000
vt 0.8750 1.0000
vt 0.1250 1.0000
vt 0.8750 0.1250
vt 0.1250 0.1250
vt 0.1250 0.1875
vt 0.8750 0.1875
vt 0.0000 0.1250
vt 1.0000 0.1250
vt 1.0000 0.1875
vt 0.0000 0.1875
vt 0.8125 0.1875
vt 0.8125 0.8125
vt 0.8125 0.0000
vt 0.8125 1.0000
vt 0.1875 0.1875
vt 0.1875 0.8125
vt 0.1875 0.0000
vt 0.1875 1.0000
vn 0.0000 1.0000 0.0000
vn 0.0000 -1.0000 0.0000
vn 1.0000 0.0000 0.0000
vn -1.0000 0.0000 0.0000
vn 0.0000 0.0000 1.0000
vn 0.0000 0.0000 -1.0000
g top
s off
f 4/4/1 3/3/1 2/2/1 1/1/1
f 12/16/1 11/15/1 10/14/1 9/13/1
f 18/1/1 2/22/1 11/21/1 17/16/1
f 1/26/1 22/2/1 21/15/1 12/25/1
f 28/22/1 27/26/1 26/25/1 25/21/1
g bottom
s off
f 5/4/2 6/3/2 7/2/2 8/1/2
f 13/16/2 14/15/2 15/14/2 16/13/2
f 19/1/2 15/22/2 6/21/2 20/16/2
f 16/26/2 23/2/2 24/15/2 5/25/2
f 23/22/2 19/26/2 20/26/2 24/22/2
g right
s off
f 6/6/3 2/7/3 3/8/3 7/5/3
f 14/18/3 10/19/3 11/20/3 15/17/3
f 15/19/3 11/6/3 2/5/3 6/20/3
f 23/19/3 21/6/3 22/5/3 24/20/3
g left
s off
f 8/6/4 4/7/4 1/8/4 5/5/4
f 16/18/4 12/19/4 9/20/4 13/17/4
f 20/19/4 18/6/4 17/5/4 19/20/4
f 5/19/4 1/6/4 12/5/4 16/20/4
g back
s off
f 8/9/5 7/10/5 3/11/5 4/12/5
f 16/9/5 15/10/5 11/11/5 12/12/5
f 20/23/5 6/10/5 2/11/5 18/24/5
f 5/9/5 24/27/5 22/28/5 1/12/5
g front
s off
f 1/11/6 2/12/6 6/9/6 5/10/6
f 9/11/6 10/12/6 14/9/6 13/10/6
f 17/11/6 11/24/6 15/23/6 19/10/6
f 12/28/6 21/12/6 23/9/6 16/27/6
