# Blender v2.79 (sub 0) OBJ File: ''
# www.blender.org
mtllib technic_45_slope_216.mtl
o Cube_Cube.001
v -0.476301 -0.525889 0.500000
v -0.564689 -0.437501 0.500000
v -0.476301 -0.525889 -0.500000
v -0.564689 -0.437501 -0.500000
v 0.523689 0.474101 0.500000
v 0.435301 0.562489 0.500000
v 0.523689 0.474101 -0.500000
v 0.435301 0.562489 -0.500000
v -0.476301 -0.525889 -0.500000
v -0.564689 -0.437501 -0.500000
v -0.476301 -0.525889 -1.625000
v -0.564689 -0.437501 -1.625000
v 0.523689 0.474101 -0.500000
v 0.435301 0.562489 -0.500000
v 0.523689 0.474101 -1.625000
v 0.435301 0.562489 -1.625000
v -0.476301 -0.525889 1.625000
v -0.564689 -0.437501 1.625000
v -0.476301 -0.525889 0.500000
v -0.564689 -0.437501 0.500000
v 0.523689 0.474101 1.625000
v 0.435301 0.562489 1.625000
v 0.523689 0.474101 0.500000
v 0.435301 0.562489 0.500000
vt 0.999800 0.875025
vt 0.999800 1.000000
vt 0.000000 1.000000
vt 0.000000 0.875025
vt 1.000000 0.875025
vt 1.000000 1.000000
vt 0.000200 1.000000
vt 0.000200 0.875025
vt 0.999800 0.875025
vt 0.999800 1.000000
vt 0.000000 1.000000
vt 0.000000 0.875025
vt 1.000000 0.875025
vt 1.000000 1.000000
vt 0.000200 1.000000
vt 0.000200 0.875025
vt 0.999900 0.000100
vt 0.999900 0.999900
vt 0.000100 0.999900
vt 0.000100 0.000100
vt 0.000100 0.999900
vt 0.000100 0.000100
vt 0.999900 0.000100
vt 0.999900 0.999900
vn -0.7071 -0.7071 0.0000
vn 0.0000 0.0000 -1.0000
vn 0.7071 0.7071 0.0000
vn 0.0000 0.0000 1.0000
vn 0.7071 -0.7071 0.0000
vn -0.7071 0.7071 0.0000
usemtl None
s off
f 1/1/1 2/2/1 4/3/1 3/4/1
f 7/9/3 8/10/3 6/11/3 5/12/3
f 3/17/5 7/18/5 5/19/5 1/20/5
f 8/21/6 4/22/6 2/23/6 6/24/6
f 9/1/1 10/2/1 12/3/1 11/4/1
f 11/5/2 12/6/2 16/7/2 15/8/2
f 15/9/3 16/10/3 14/11/3 13/12/3
f 11/17/5 15/18/5 13/19/5 9/20/5
f 16/21/6 12/22/6 10/23/6 14/24/6
f 17/1/1 18/2/1 20/3/1 19/4/1
f 23/9/3 24/10/3 22/11/3 21/12/3
f 19/17/5 23/18/5 21/19/5 17/20/5
f 21/13/4 22/14/4 18/15/4 17/16/4
f 24/21/6 20/22/6 18/23/6 22/24/6
