# Blender v2.79 (sub 0) OBJ File: ''
# www.blender.org
mtllib technic_opposed_curved_edge.mtl
o Cylinder_Cylinder.006
v 0.500000 0.097545 -0.490393
v 0.500000 0.000000 0.000000
v 0.500000 0.000000 -0.500000
v 0.500000 0.191342 -0.461940
v 0.500000 0.277785 -0.415735
v 0.500000 0.353553 -0.353553
v 0.500000 0.415735 -0.277785
v 0.500000 0.461940 -0.191342
v 0.500000 0.490393 -0.097545
v 0.500000 0.500000 0.000000
v 0.500000 0.490393 0.097545
v 0.500000 0.461940 0.191342
v 0.500000 0.415735 0.277785
v 0.500000 0.353553 0.353553
v 0.500000 0.277785 0.415735
v 0.500000 0.191342 0.461940
v 0.500000 0.097545 0.490393
v -0.500000 0.000000 0.000000
v -0.500000 0.097545 -0.490393
v -0.500000 0.000000 -0.500000
v 0.500000 -0.000000 0.500000
v -0.500000 0.191342 -0.461940
v -0.500000 0.277785 -0.415735
v -0.500000 0.353553 -0.353554
v -0.500000 0.415735 -0.277785
v -0.500000 0.461940 -0.191342
v -0.500000 0.490393 -0.097545
v -0.500000 0.500000 0.000000
v -0.500000 -0.000000 0.500000
v -0.500000 0.097545 0.490392
v -0.500000 0.490393 0.097545
v -0.500000 0.461940 0.191341
v -0.500000 0.415735 0.277785
v -0.500000 0.353553 0.353553
v -0.500000 0.277785 0.415735
v -0.500000 0.191342 0.461940
v -0.500000 0.000000 0.000000
v -0.500000 0.000000 -0.500000
v -0.500000 -0.500000 -0.500000
v -0.500000 -0.500000 0.500000
v -0.500000 -0.000000 0.500000
v 0.500000 0.000000 0.000000
v 0.500000 -0.000000 0.500000
v 0.500000 -0.500000 0.500000
v 0.500000 -0.500000 -0.500000
v 0.500000 0.000000 -0.500000
vt 0.000100 0.999900
vt 0.000100 0.000100
vt 0.999900 0.000100
vt 0.999900 0.999900
vt 0.985658 0.594688
vt 0.497610 0.497610
vt 0.995219 0.497610
vt 0.957341 0.688037
vt 0.911357 0.774067
vt 0.849473 0.849473
vt 0.774067 0.911357
vt 0.688037 0.957341
vt 0.594688 0.985659
vt 0.497610 0.995219
vt 0.400531 0.985658
vt 0.307182 0.957341
vt 0.221153 0.911357
vt 0.145747 0.849473
vt 0.083862 0.774067
vt 0.037878 0.688037
vt 0.009561 0.594688
vt 0.498675 0.495551
vt 0.012646 0.592228
vt 0.003124 0.495551
vt 0.000000 0.497610
vt 0.040846 0.685190
vt 0.086639 0.770864
vt 0.148267 0.845958
vt 0.223362 0.907586
vt 0.309036 0.953380
vt 0.401998 0.981580
vt 0.498675 0.991101
vt 0.994226 0.495551
vt 0.984703 0.592228
vt 0.595352 0.981580
vt 0.688313 0.953380
vt 0.773988 0.907586
vt 0.849082 0.845958
vt 0.910710 0.770864
vt 0.956504 0.685190
vt 0.498675 0.495551
vt 0.003124 0.495551
vt 0.003124 0.000000
vt 0.994226 0.000000
vt 0.994226 0.495551
vt 0.497610 0.497610
vt 0.000000 0.497610
vt 0.000000 0.000000
vt 0.995219 0.000000
vt 0.995219 0.497610
vt 0.000000 0.000000
vt 0.000000 0.000000
vt 0.000000 0.000000
vt 0.000000 0.000000
vt 0.000000 0.000000
vt 0.000000 0.000000
vt 0.000000 0.000000
vt 0.000000 0.000000
vt 0.000000 0.000000
vt 0.000000 0.000000
vt 0.000000 0.000000
vt 0.000000 0.000000
vt 0.000000 0.561068
vt 1.000000 0.561069
vt 1.000000 0.672944
vt 0.000000 0.672944
vt 1.000000 0.785357
vt 0.000000 0.785357
vt 1.000000 0.893983
vt 0.000000 0.893983
vt 1.000000 0.994651
vt 0.000000 0.994651
vt 0.000063 0.001043
vt 0.999937 0.001045
vt 0.999937 0.125904
vt 0.000063 0.125903
vt 0.999937 0.250762
vt 0.000063 0.250761
vt 0.999937 0.375621
vt 0.000063 0.375620
vt 0.999937 0.495596
vt 0.000063 0.495596
vt 0.999937 0.496417
vt 0.000063 0.496416
vt 0.000063 0.376706
vt 0.999937 0.376707
vt 0.000063 0.251138
vt 0.999937 0.251138
vt 0.000063 0.125569
vt 0.999937 0.125569
vt 0.000063 0.000000
vt 0.999937 0.000000
vt 0.999732 1.003611
vt 0.000000 1.003610
vt 0.000000 0.893370
vt 0.999732 0.893371
vt 0.000000 0.783130
vt 0.999732 0.783130
vt 0.000000 0.672890
vt 0.999732 0.672890
vt 0.000000 0.562651
vt 0.999732 0.562650
vt 0.999733 0.562350
vt 0.000000 0.562350
vt 0.000000 0.000000
vt 0.999733 0.000000
vt 1.000000 0.561068
vt 0.000000 0.561068
vt 0.000000 0.000000
vt 1.000000 0.000000
vn 0.0000 -0.7071 0.7071
vn 0.0000 -0.7071 -0.7071
vn 1.0000 0.0000 0.0000
vn -1.0000 0.0000 0.0000
vn 0.0000 0.0000 0.0000
vn 0.0000 0.9988 0.0491
vn 0.0000 0.1951 -0.9808
vn 0.0000 0.3827 -0.9239
vn 0.0000 0.5556 -0.8315
vn 0.0000 0.7071 -0.7071
vn 0.0000 0.8315 -0.5556
vn 0.0000 0.9239 -0.3827
vn 0.0000 0.9808 -0.1951
vn 0.0000 1.0000 0.0000
vn -0.0000 0.9808 0.1951
vn -0.0000 0.9239 0.3827
vn -0.0000 0.8315 0.5556
vn 0.0000 0.7071 0.7071
vn 0.0000 0.5556 0.8315
vn -0.0000 0.3827 0.9239
vn -0.0000 0.1951 0.9808
vn -0.0000 0.0491 0.9988
vn 0.0000 -0.0000 1.0000
vn -0.7071 0.0000 0.7071
vn 0.7071 0.0000 0.7071
usemtl None
s 1
f 40/1/1 39/2/2 45/3/2 44/4/1
usemtl None_NONE
s off
f 1/5/3 2/6/3 3/7/3
f 4/8/3 2/6/3 1/5/3
f 5/9/3 2/6/3 4/8/3
f 6/10/3 2/6/3 5/9/3
f 7/11/3 2/6/3 6/10/3
f 8/12/3 2/6/3 7/11/3
f 9/13/3 2/6/3 8/12/3
f 10/14/3 2/6/3 9/13/3
f 11/15/3 2/6/3 10/14/3
f 11/15/3 12/16/3 2/6/3
f 2/6/3 12/16/3 13/17/3
f 2/6/3 14/18/3 15/19/3
f 2/6/3 15/19/3 16/20/3
f 2/6/3 16/20/3 17/21/3
f 18/22/4 19/23/4 20/24/4
f 21/25/3 2/6/3 17/21/3
f 2/6/3 13/17/3 14/18/3
f 18/22/4 22/26/4 19/23/4
f 18/22/4 23/27/4 22/26/4
f 18/22/4 24/28/4 23/27/4
f 18/22/4 25/29/4 24/28/4
f 18/22/4 26/30/4 25/29/4
f 18/22/4 27/31/4 26/30/4
f 18/22/4 28/32/4 27/31/4
f 18/22/4 29/33/4 30/34/4
f 31/35/4 18/22/4 32/36/4
f 32/36/4 18/22/4 33/37/4
f 33/37/4 18/22/4 34/38/4
f 34/38/4 18/22/4 35/39/4
f 35/39/4 18/22/4 36/40/4
f 36/40/4 18/22/4 30/34/4
f 31/35/4 28/32/4 18/22/4
f 37/41/4 38/42/4 39/43/4 40/44/4 41/45/4
f 42/46/3 43/47/3 44/48/3 45/49/3 46/50/3
f 29/51/5 18/52/5 37/53/5 41/54/5
f 3/55/5 2/56/5 42/57/5 46/58/5
f 2/56/5 21/59/5 43/60/5 42/57/5
f 18/52/5 20/61/5 38/62/5 37/53/5
s 1
f 3/63/6 20/64/6 19/65/7 1/66/7
f 1/66/7 19/65/7 22/67/8 4/68/8
f 4/68/8 22/67/8 23/69/9 5/70/9
f 5/70/9 23/69/9 24/71/10 6/72/10
f 6/73/10 24/74/10 25/75/11 7/76/11
f 7/76/11 25/75/11 26/77/12 8/78/12
f 8/78/12 26/77/12 27/79/13 9/80/13
f 9/80/13 27/79/13 28/81/14 10/82/14
f 10/83/14 28/84/14 31/85/15 11/86/15
f 11/86/15 31/85/15 32/87/16 12/88/16
f 12/88/16 32/87/16 33/89/17 13/90/17
f 13/90/17 33/89/17 34/91/18 14/92/18
f 14/93/18 34/94/18 35/95/19 15/96/19
f 15/96/19 35/95/19 36/97/20 16/98/20
f 16/98/20 36/97/20 30/99/21 17/100/21
f 17/100/21 30/99/21 29/101/22 21/102/22
f 43/103/23 41/104/23 40/105/1 44/106/1
f 38/107/24 46/108/25 45/109/2 39/110/2
f 21/59/22 29/51/22 41/54/23 43/60/23
f 20/61/6 3/55/6 46/58/25 38/62/24
