# Blender v2.76 (sub 0) OBJ File: ''
# www.blender.org
g top.005
v 0.000000 0.500000 0.000000
v 0.500000 0.500000 -0.000000
v 0.500000 -0.500000 -0.500000
v -0.000000 -0.500000 -0.500000
vt 0.500000 1.000000
vt 0.000000 1.000000
vt 0.000000 0.000000
vt 0.500000 0.000000
vn -0.000000 0.447200 -0.894400
s 1
f 1/1/1 2/2/1 3/3/1 4/4/1
g bottom.005
v 0.500000 -0.500000 0.500000
v 0.000000 -0.500000 0.500000
v -0.000000 -0.500000 -0.500000
v 0.500000 -0.500000 -0.500000
vt 0.000000 0.000000
vt 0.500000 0.000000
vt 0.500000 1.000000
vt 0.000000 1.000000
vn -0.000000 -1.000000 -0.000000
s 1
f 5/5/2 6/6/2 7/7/2 8/8/2
g back.005
v 0.500000 0.500000 -0.000000
v 0.000000 0.500000 0.000000
v 0.000000 -0.500000 0.500000
v 0.500000 -0.500000 0.500000
vt 1.000000 1.000000
vt 0.500000 1.000000
vt 0.500000 0.000000
vt 1.000000 0.000000
vn 0.000000 0.447200 0.894400
s 1
f 9/9/3 10/10/3 11/11/3 12/12/3
g right.005
v 0.000000 0.500000 0.000000
v -0.000000 -0.500000 -0.500000
v 0.000000 -0.500000 0.500000
vt 0.500000 1.000000
vt 0.000000 0.000000
vt 1.000000 0.000000
vn -1.000000 0.000000 0.000000
s 1
f 13/13/4 14/14/4 15/15/4
g left.005
v 0.500000 0.500000 -0.000000
v 0.500000 -0.500000 0.500000
v 0.500000 -0.500000 -0.500000
vt 0.500000 1.000000
vt 0.000000 0.000000
vt 1.000000 0.000000
vn 1.000000 0.000000 -0.000000
s 1
f 16/16/5 17/17/5 18/18/5
