# Blender v2.79 (sub 0) OBJ File: ''
# www.blender.org
o Cube_Cube.003
v -0.500000 -0.000000 0.500000
v -0.500000 -0.500000 -0.500000
v -0.500000 -0.500000 0.500000
v -0.500000 0.000000 -0.500000
v 0.500000 -0.500000 -0.500000
v 0.500000 0.000000 -0.500000
v 0.500000 -0.500000 0.500000
v 0.500000 -0.000000 0.500000
v 0.500000 0.500000 0.500000
v 0.500000 0.500000 -0.500000
v -0.500000 0.500000 0.500000
v -0.500000 -0.000000 0.500000
v 0.500000 0.000000 -0.500000
v 0.500000 -0.000000 0.500000
v -0.000000 0.000000 -0.500000
v -0.500000 0.000000 0.000000
v -0.000000 0.500000 -0.500000
v -0.500000 0.500000 0.000000
vt 0.000084 0.500084
vt 0.999916 0.500084
vt 0.999916 1.000000
vt 0.000084 1.000000
vt 0.999965 0.499965
vt 0.000106 0.000035
vt 0.999965 0.000035
vt 0.999929 0.500000
vt 0.000071 0.000071
vt 0.999929 0.000071
vt 0.000100 0.999900
vt 0.999900 0.000100
vt 0.999900 0.999900
vt 0.500000 0.500000
vt 0.000100 0.500000
vt 0.000100 0.000100
vt 0.999900 0.999900
vt 0.500000 0.999900
vt 0.500000 0.500000
vt 0.500000 0.999900
vt 0.000100 0.999900
vt 0.000100 0.000100
vt 0.000106 0.499965
vt 0.000071 0.500000
vt 0.000100 0.000100
vt 0.999900 0.000100
vt 0.999900 0.500000
vt 0.999900 0.499900
vt 0.500100 0.000100
vt 0.999900 0.000100
vt 0.999965 0.500035
vt 0.000106 0.999965
vt 0.000106 0.500035
vt 0.999929 0.500071
vt 0.000071 1.000000
vt 0.000071 0.500071
vt 0.009795 0.988265
vt 0.009796 0.018130
vt 0.494864 0.018130
vt 0.979931 0.503198
vt 0.979931 0.988265
vt 0.999965 0.999965
vt 0.999929 1.000000
vn -0.7071 0.0000 -0.7071
vn 1.0000 0.0000 -0.0000
vn 0.0000 -0.0000 1.0000
vn -0.0000 -1.0000 -0.0000
vn -1.0000 0.0000 0.0000
vn -0.7071 0.7071 0.0000
vn -0.5547 0.8321 0.0000
vn -0.0000 0.0000 -1.0000
vn 0.0000 0.8321 -0.5547
vn 0.0000 0.7071 -0.7071
vn 0.0000 1.0000 0.0000
s off
f 15/1/1 16/2/1 18/3/1 17/4/1
s 1
f 6/5/2 7/6/2 5/7/2
f 8/8/3 3/9/3 7/10/3
f 5/11/4 3/12/4 2/13/4
f 16/14/5 4/15/5 2/16/5 3/12/5
f 16/14/5 3/12/5 11/17/6 18/18/7
f 15/19/8 17/20/9 10/21/10 5/22/8
f 6/5/2 8/23/2 7/6/2
f 8/8/3 1/24/3 3/9/3
f 5/11/4 7/25/4 3/12/4
f 15/19/8 5/22/8 2/26/8 4/27/8
f 16/28/11 15/29/11 4/30/11
f 13/31/2 9/32/2 14/33/2
f 14/34/3 11/35/3 12/36/3
f 9/37/11 10/38/10 17/39/9 18/40/7 11/41/6
f 13/31/2 10/42/2 9/32/2
f 14/34/3 9/43/3 11/35/3
