# Blender v2.76 (sub 0) OBJ File: ''
# www.blender.org
g back.001
v 0.500000 0.250000 0.000000
v -0.500000 0.250000 0.000000
v -0.500000 -0.500000 0.000000
v 0.500000 -0.500000 0.000000
vt 1.000000 1.000000
vt 1.000000 0.250000
vt 0.000000 0.250000
vt 0.000000 1.000000
vn 0.000000 0.000000 -1.000000
s 1
f 1/1/1 4/2/1 3/3/1 2/4/1
g right
v -0.500000 0.500000 0.500000
v -0.500000 -0.500000 0.500000
v -0.500000 -0.500000 0.000000
v -0.500000 0.250000 0.000000
vt 0.000000 0.000000
vt 1.000000 0.000000
vt 0.750000 0.500000
vt 0.000000 0.500000
vn -1.000000 0.000000 0.000000
s off
f 6/5/2 5/6/2 8/7/2 7/8/2
g top
v -0.500000 0.500000 0.500000
v 0.500000 0.500000 0.500000
v -0.500000 0.250000 0.000000
v 0.500000 0.250000 0.000000
vt 0.000000 0.000000
vt 1.000000 0.000000
vt 1.000000 0.500000
vt 0.000000 0.500000
vn 0.000000 0.894400 -0.447200
s 1
f 9/9/3 10/10/3 12/11/3 11/12/3
g bottom
v 0.500000 -0.500000 0.500000
v -0.500000 -0.500000 0.500000
v 0.500000 -0.500000 0.000000
v -0.500000 -0.500000 0.000000
vt 0.000000 0.500000
vt 1.000000 0.500000
vt 1.000000 1.000000
vt 0.000000 1.000000
vn 0.000000 -1.000000 0.000000
s 1
f 13/13/4 14/14/4 16/15/4 15/16/4
g left
v 0.500000 0.500000 0.500000
v 0.500000 -0.500000 0.500000
v 0.500000 -0.500000 0.000000
v 0.500000 0.250000 0.000000
vt 1.000000 0.000000
vt 1.000000 0.500000
vt 0.250000 0.500000
vt 0.000000 0.000000
vn 1.000000 0.000000 0.000000
s off
f 18/17/5 19/18/5 20/19/5 17/20/5
g back
v 0.500000 0.500000 0.500000
v -0.500000 0.500000 0.500000
v -0.500000 -0.500000 0.500000
v 0.500000 -0.500000 0.500000
vt 1.000000 1.000000
vt 0.000000 1.000000
vt 0.000000 0.000000
vt 1.000000 0.000000
vn 0.000000 -0.000000 1.000000
s 1
f 21/21/6 22/22/6 23/23/6 24/24/6
