# Blender v2.79 (sub 0) OBJ File: ''
# www.blender.org
o Plane.003
v 0.500000 -0.000000 0.500000
v -0.500000 -0.000000 0.500000
v 0.500000 0.000000 -0.500000
v 0.500000 0.500000 0.500000
v 0.500000 0.500000 -0.500000
v -0.500000 0.500000 0.500000
vt 0.000000 1.000000
vt 0.000000 0.000000
vt 1.000000 1.000000
vt 0.989256 0.010744
vt -0.010625 0.489256
vt -0.010625 0.010745
vt 0.999965 0.500035
vt 0.000106 0.999965
vt 0.000106 0.500035
vt 0.999929 0.500071
vt 0.000071 1.000000
vt 0.000071 0.500071
vt 0.989256 0.489256
vt 0.999965 0.999965
vt 0.999929 1.000000
vn 0.0000 1.0000 0.0000
vn -0.7071 0.0000 -0.7071
vn 1.0000 0.0000 0.0000
vn 0.0000 0.0000 1.0000
s 1
f 4/1/1 5/2/1 6/3/1
f 2/4/2 5/5/2 3/6/2
f 3/7/3 4/8/3 1/9/3
f 1/10/4 6/11/4 2/12/4
f 2/4/2 6/13/2 5/5/2
f 3/7/3 5/14/3 4/8/3
f 1/10/4 4/15/4 6/11/4
o Cube_Cube.003
v -0.500000 -0.500000 0.500000
v -0.500000 -0.000000 0.500000
v -0.500000 0.000000 -0.500000
v -0.500000 -0.500000 -0.500000
v 0.500000 0.000000 -0.500000
v 0.500000 -0.500000 -0.500000
v 0.500000 -0.000000 0.500000
v 0.500000 -0.500000 0.500000
vt 0.999965 0.499964
vt 0.000106 0.000035
vt 0.999965 0.000035
vt 0.999929 0.500000
vt 0.000071 0.000071
vt 0.999929 0.000071
vt 0.999965 0.499965
vt 0.000106 0.000035
vt 0.999965 0.000035
vt 0.999929 0.500000
vt 0.000071 0.000071
vt 0.999929 0.000071
vt 0.000100 0.999900
vt 0.999900 0.000100
vt 0.999900 0.999900
vt 1.000000 -0.000000
vt 0.000000 1.000000
vt -0.000000 0.000000
vt 0.000106 0.499965
vt 0.000071 0.500000
vt 0.000106 0.499965
vt 0.000071 0.500000
vt 0.000100 0.000100
vt 1.000000 1.000000
vn -1.0000 0.0000 0.0000
vn 0.0000 0.0000 -1.0000
vn 1.0000 0.0000 0.0000
vn 0.0000 -0.0000 1.0000
vn 0.0000 -1.0000 -0.0000
vn 0.0000 1.0000 0.0000
s 1
f 8/16/5 10/17/5 7/18/5
f 9/19/6 12/20/6 10/21/6
f 11/22/7 14/23/7 12/24/7
f 13/25/8 7/26/8 14/27/8
f 12/28/9 7/29/9 10/30/9
f 9/31/10 13/32/10 11/33/10
f 8/16/5 9/34/5 10/17/5
f 9/19/6 11/35/6 12/20/6
f 11/22/7 13/36/7 14/23/7
f 13/25/8 8/37/8 7/26/8
f 12/28/9 14/38/9 7/29/9
f 9/31/10 8/39/10 13/32/10
