# Blender v3.0.1 OBJ File: 'moreblocks_horizontal_slat.blend'
# www.blender.org
mtllib moreblocks_horizontal_slat.mtl
o Cube
v -0.500000 -0.250000 -0.125000
v 0.500000 -0.250000 -0.125000
v -0.500000 -0.250000 0.125000
v 0.500000 -0.250000 0.125000
v -0.500000 -0.500000 -0.125000
v 0.500000 -0.500000 -0.125000
v -0.500000 -0.500000 0.125000
v 0.500000 -0.500000 0.125000
vt 0.000000 0.000000
vt 0.800000 0.000000
vt 0.800000 0.200000
vt 0.000000 0.200000
vt 0.800000 0.800000
vt 0.800000 0.000000
vt 1.000000 0.000000
vt 1.000000 0.800000
vt 0.400000 0.600000
vt 0.400000 0.400000
vt 0.600000 0.400000
vt 0.600000 0.600000
vt 0.200000 1.000000
vt 0.200000 0.200000
vt 0.400000 0.200000
vt 0.400000 1.000000
vt 0.000000 1.000000
vt 0.000000 0.200000
vt 0.600000 0.400000
vt 0.400000 0.400000
vt 0.600000 0.200000
vn 0.0000 0.0000 1.0000
vn 0.0000 -1.0000 0.0000
vn 1.0000 0.0000 0.0000
vn -0.0000 1.0000 0.0000
vn -0.0000 0.0000 -1.0000
vn -1.0000 0.0000 0.0000
usemtl Material
s off
f 4/1/1 3/2/1 7/3/1 8/4/1
f 8/5/2 7/6/2 5/7/2 6/8/2
f 6/9/3 2/10/3 4/11/3 8/12/3
f 2/13/4 1/14/4 3/15/4 4/16/4
f 6/17/5 5/18/5 1/14/5 2/13/5
f 5/19/6 7/20/6 3/15/6 1/21/6
