# Blender v3.0.1 OBJ File: 'moreblocks_sloped_slat.blend'
# www.blender.org
mtllib moreblocks_sloped_slat.mtl
o Cube
v -0.411612 0.588387 -0.125000
v 0.588388 -0.411613 -0.125000
v -0.411612 0.588387 0.125000
v 0.588388 -0.411613 0.125000
v -0.588388 0.411610 -0.125000
v 0.411612 -0.588390 -0.125000
v -0.588388 0.411610 0.125000
v 0.411612 -0.588390 0.125000
vt 0.000000 1.000000
vt 0.000000 0.000000
vt 0.176777 0.000000
vt 0.176777 1.000000
vt 0.530330 0.000000
vt 0.530330 1.000000
vt 0.353554 1.000000
vt 0.353554 0.000000
vt 0.883884 0.000000
vt 0.883884 0.176777
vt 0.707107 0.176777
vt 0.707107 0.000000
vt 0.353554 0.000000
vt 0.353553 1.000000
vt 0.176777 1.000000
vt 0.176777 0.000000
vt 0.530330 1.000000
vt 0.530330 0.000000
vt 0.707107 0.000000
vt 0.707107 1.000000
vt 0.707107 0.176777
vt 0.883884 0.176777
vt 0.883884 0.353553
vt 0.707107 0.353553
vn -0.0000 0.0000 1.0000
vn -0.7071 -0.7071 0.0000
vn 0.7071 -0.7071 0.0000
vn 0.7071 0.7071 0.0000
vn -0.0000 0.0000 -1.0000
vn -0.7071 0.7071 0.0000
usemtl Material
s off
f 4/1/1 3/2/1 7/3/1 8/4/1
f 8/5/2 7/6/2 5/7/2 6/8/2
f 6/9/3 2/10/3 4/11/3 8/12/3
f 2/13/4 1/14/4 3/15/4 4/16/4
f 6/17/5 5/18/5 1/19/5 2/20/5
f 5/21/6 7/22/6 3/23/6 1/24/6
