# Blender v3.0.1 OBJ File: 'moreblocks_horizontal_corner_slat.blend'
# www.blender.org
mtllib moreblocks_horizontal_corner_slat.mtl
o Cube
v -0.125000 -0.250000 -0.125000
v 0.500000 -0.250000 -0.125000
v -0.125000 -0.250000 0.125000
v 0.500000 -0.250000 0.125000
v -0.125000 -0.500000 -0.125000
v 0.500000 -0.500000 -0.125000
v -0.125000 -0.500000 0.125000
v 0.500000 -0.500000 0.125000
v -0.125000 -0.250000 -0.125000
v -0.125000 -0.250000 -0.500000
v 0.125000 -0.250000 -0.125000
v 0.125000 -0.250000 -0.500000
v -0.125000 -0.500000 -0.125000
v -0.125000 -0.500000 -0.500000
v 0.125000 -0.500000 -0.125000
v 0.125000 -0.500000 -0.500000
vt 0.222222 0.000000
vt 0.222222 0.555555
vt 0.000000 0.555556
vt 0.000000 0.000000
vt 0.000000 0.555556
vt 0.555555 0.555556
vt 0.555555 0.777778
vt 0.000000 0.777778
vt 0.777778 0.777778
vt 0.777778 0.555555
vt 1.000000 0.555555
vt 1.000000 0.777778
vt 0.777778 0.000000
vt 1.000000 0.000000
vt 0.222222 0.000000
vt 0.777778 0.000000
vt 0.777778 0.222222
vt 0.222222 0.222222
vt 0.555555 1.000000
vt 0.333333 1.000000
vt 0.333333 0.777778
vt 0.555555 0.777778
vt 0.777778 0.222222
vt 0.777778 0.555556
vt 0.555556 0.555556
vt 0.555556 0.222222
vt 0.000000 0.777778
vt 0.333333 0.777778
vt 0.333333 1.000000
vt 0.000000 1.000000
vt 0.777778 0.777778
vt 1.000000 0.777778
vt 1.000000 1.000000
vt 0.777778 1.000000
vt 0.555556 0.888889
vt 0.555556 0.555556
vt 0.777778 0.888889
vt 0.222222 0.222222
vt 0.555556 0.222222
vt 0.555556 0.444445
vt 0.222222 0.444445
vn 0.0000 0.0000 1.0000
vn 0.0000 -1.0000 0.0000
vn 1.0000 0.0000 0.0000
vn -0.0000 1.0000 0.0000
vn -0.0000 0.0000 -1.0000
vn -1.0000 0.0000 0.0000
usemtl Material
s off
f 4/1/1 3/2/1 7/3/1 8/4/1
f 8/5/2 7/6/2 5/7/2 6/8/2
f 6/9/3 2/10/3 4/11/3 8/12/3
f 2/10/4 1/13/4 3/14/4 4/11/4
f 6/15/5 5/16/5 1/17/5 2/18/5
f 5/19/6 7/20/6 3/21/6 1/22/6
f 12/23/3 11/24/3 15/25/3 16/26/3
f 16/27/2 15/28/2 13/29/2 14/30/2
f 14/31/5 10/32/5 12/33/5 16/34/5
f 10/35/4 9/36/4 11/24/4 12/37/4
f 14/38/6 13/39/6 9/40/6 10/41/6
