# Blender v3.0.1 OBJ File: 'moreblocks_horizontal_folded_slat.blend'
# www.blender.org
mtllib moreblocks_horizontal_folded_slat.mtl
o Cube.001_Cube.002
v -0.500000 -0.250000 -0.125000
v -0.500000 -0.250000 0.125000
v -0.500000 -0.500000 -0.125000
v -0.500000 -0.500000 0.125000
v 0.426775 -0.250000 -0.125000
v 0.426775 -0.250000 0.125000
v 0.323221 -0.500000 0.125000
v 0.323221 -0.500000 -0.125000
v 0.588388 -0.411613 -0.125000
v 0.588388 -0.411613 0.125000
v 0.411612 -0.588390 -0.125000
v 0.411612 -0.588390 0.125000
vt 0.692460 0.708482
vt 0.879252 0.708482
vt 0.879252 0.895274
vt 0.692460 0.895274
vt 0.879252 0.615084
vt 0.692460 0.615084
vt 0.692460 0.000000
vt 0.879252 0.000000
vt 0.505668 0.692456
vt 0.692460 0.692456
vt 0.692460 0.000000
vt 0.505669 0.000000
vt 0.252834 0.692456
vt 0.132082 0.813208
vt 0.000000 0.681126
vt 0.066042 0.615084
vt 0.879252 0.708482
vt 0.692460 0.708482
vt 0.318876 0.198124
vt 0.252834 0.132082
vt 0.384916 0.000000
vt 0.505668 0.120752
vt 0.692460 0.863225
vt 0.505668 0.863225
vt 0.066042 0.000000
vt 0.252834 0.000000
vt 0.505668 0.813208
vt 0.318876 0.813208
vt 0.186792 1.000000
vt 0.186792 0.813208
vt 0.000000 0.813208
vt 0.000000 1.000000
vn -1.0000 0.0000 0.0000
vn 0.0000 -1.0000 0.0000
vn -0.0000 1.0000 0.0000
vn -0.0000 0.0000 -1.0000
vn -0.7071 -0.7071 0.0000
vn 0.0000 0.0000 1.0000
vn 0.7071 0.7071 0.0000
vn 0.7071 -0.7071 0.0000
usemtl Material
s off
f 3/1/1 4/2/1 2/3/1 1/4/1
f 8/5/2 7/6/2 4/7/2 3/8/2
f 6/9/3 5/10/3 1/11/3 2/12/3
f 5/13/4 9/14/4 11/15/4 8/16/4
f 8/5/5 11/17/5 12/18/5 7/6/5
f 7/19/6 12/20/6 10/21/6 6/22/6
f 9/23/7 5/10/7 6/9/7 10/24/7
f 5/13/4 8/16/4 3/25/4 1/26/4
f 7/19/6 6/22/6 2/27/6 4/28/6
usemtl Material.002
f 11/29/8 9/30/8 10/31/8 12/32/8
