# Blender v2.76 (sub 0) OBJ File: ''
# www.blender.org
g right.003
v -0.500000 0.500000 0.500000
v -0.500000 0.000000 -0.500000
v -0.500000 -0.500000 -0.500000
v -0.500000 -0.500000 0.500000
vt 1.000000 1.000000
vt 0.000000 0.500000
vt 0.000000 0.000000
vt 1.000000 0.000000
vn -1.000000 0.000000 0.000000
s 1
f 1/1/1 2/2/1 3/3/1 4/4/1
g left.003
v -0.000000 0.000000 -0.500000
v 0.000000 0.500000 0.500000
v 0.000000 -0.500000 0.500000
v -0.000000 -0.500000 -0.500000
vt 1.000000 0.500000
vt 0.000000 1.000000
vt 0.000000 0.000000
vt 1.000000 0.000000
vn 1.000000 0.000000 -0.000000
s 1
f 5/5/2 6/6/2 7/7/2 8/8/2
g bottom.003
v -0.500000 -0.500000 0.500000
v -0.500000 -0.500000 -0.500000
v -0.000000 -0.500000 -0.500000
v 0.000000 -0.500000 0.500000
vt 1.000000 0.000000
vt 1.000000 1.000000
vt 0.500000 1.000000
vt 0.500000 0.000000
vn -0.000000 -1.000000 -0.000000
s 1
f 9/9/3 10/10/3 11/11/3 12/12/3
g front
v -0.500000 0.000000 -0.500000
v -0.000000 0.000000 -0.500000
v -0.000000 -0.500000 -0.500000
v -0.500000 -0.500000 -0.500000
vt 1.000000 0.500000
vt 0.500000 0.500000
vt 0.500000 0.000000
vt 1.000000 0.000000
vn -0.000000 0.000000 -1.000000
s 1
f 13/13/4 14/14/4 15/15/4 16/16/4
g back.003
v 0.000000 0.500000 0.500000
v -0.500000 0.500000 0.500000
v -0.500000 -0.500000 0.500000
v 0.000000 -0.500000 0.500000
vt 0.500000 1.000000
vt 0.000000 1.000000
vt 0.000000 0.000000
vt 0.500000 0.000000
vn 0.000000 -0.000000 1.000000
s 1
f 17/17/5 18/18/5 19/19/5 20/20/5
g top.003
v -0.500000 0.000000 -0.500000
v -0.500000 0.500000 0.500000
v 0.000000 0.500000 0.500000
v -0.000000 0.000000 -0.500000
vt 1.000000 0.000000
vt 1.000000 1.000000
vt 0.500000 1.000000
vt 0.500000 0.000000
vn -0.000000 0.894400 -0.447200
s 1
f 21/21/6 22/22/6 23/23/6 24/24/6
