# Blender v2.76 (sub 0) OBJ File: ''
# www.blender.org
g right
v 0.000000 -0.000000 0.500000
v 0.500000 -0.500000 -0.500000
v 0.000000 -0.500000 0.500000
vt 1.000000 0.500000
vt 0.000000 0.000000
vt 1.000000 0.000000
vn -0.894400 0.000000 -0.447200
s 1
f 1/1/1 2/2/1 3/3/1
g top
v 0.000000 -0.000000 0.500000
v 0.500000 -0.000000 0.500000
v 0.500000 -0.500000 -0.500000
v 0.500000 -0.500000 -0.500000
vt 0.500000 0.000000
vt 1.000000 0.000000
vt 1.000000 1.000000
vn 0.000000 0.894400 -0.447200
s 1
f 4/4/2 5/5/2 6/6/2 7/4/2
g bottom
v 0.500000 -0.500000 0.500000
v 0.000000 -0.500000 0.500000
v 0.500000 -0.500000 -0.500000
v 0.500000 -0.500000 -0.500000
vt 1.000000 0.000000
vt 0.500000 0.000000
vt 1.000000 1.000000
vn 0.000000 -1.000000 0.000000
s 1
f 8/7/3 9/8/3 10/9/3 11/9/3
g left
v 0.500000 -0.000000 0.500000
v 0.500000 -0.500000 0.500000
v 0.500000 -0.500000 -0.500000
vt 0.500000 0.000000
vt 0.000000 0.000000
vt 0.000000 1.000000
vn 1.000000 0.000000 0.000000
s 1
f 12/10/4 13/11/4 14/12/4
g back
v 0.500000 -0.000000 0.500000
v 0.000000 -0.000000 0.500000
v 0.000000 -0.500000 0.500000
v 0.500000 -0.500000 0.500000
vt 1.000000 0.500000
vt 0.500000 0.500000
vt 0.500000 0.000000
vt 1.000000 0.000000
vn 0.000000 -0.000000 1.000000
s 1
f 15/13/5 16/14/5 17/15/5 18/16/5
