# Blender v2.79 (sub 0) OBJ File: ''
# www.blender.org
o top
v -0.500000 0.500000 0.000000
v -0.500000 -0.500000 0.500000
v 0.500000 -0.500000 0.500000
v 0.500000 0.500000 0.500000
v -0.500000 0.500000 0.500000
v 0.500000 -0.500000 0.500000
v 0.500000 -0.500000 -0.500000
v 0.500000 0.500000 -0.500000
v 0.500000 0.500000 0.500000
v -0.500000 0.500000 0.500000
v 0.500000 -0.500000 -0.500000
v 0.500000 -0.500000 0.500000
v -0.500000 -0.500000 0.500000
v -0.500000 -0.500000 -0.500000
v -0.000000 0.500000 -0.500000
vt 1.000000 1.000000
vt 0.000000 1.000000
vt 1.000000 0.500000
vt 0.750000 1.000000
vt 0.250000 1.000000
vt 0.500000 0.000000
vt 0.500000 1.000000
vt 0.000000 0.000000
vt 1.000000 0.000000
vt 0.000000 0.000000
vt 1.000000 0.000000
vt 1.000000 1.000000
vt 0.000000 1.000000
vt 0.000000 0.000000
vt 1.000000 0.000000
vt 1.000000 1.000000
vt -0.000071 1.000000
vt 0.000071 0.000000
vt 0.499929 1.000071
vt 1.000000 0.000000
vt 1.000000 1.000000
vt 0.000000 1.000000
vt 0.000000 0.000000
vt 0.500000 0.000000
vt 1.000000 0.000000
vt 0.500000 1.000000
vt 0.000000 0.000000
vn 0.0000 1.0000 0.0000
vn -0.6667 0.3333 -0.6667
vn -0.0000 0.0000 -1.0000
vn 0.0000 -0.0000 1.0000
vn 1.0000 -0.0000 -0.0000
vn -0.0000 -1.0000 -0.0000
vn -1.0000 0.0000 0.0000
s off
f 10/1/1 9/2/1 1/3/1
f 1/4/2 15/5/2 14/6/2
f 15/7/3 11/8/3 14/9/3
f 2/10/4 3/11/4 4/12/4 5/13/4
f 6/14/5 7/15/5 8/16/5 9/2/5
f 8/17/3 11/18/3 15/19/3
f 11/8/6 12/20/6 13/21/6 14/22/6
f 9/2/1 8/23/1 15/24/1
f 15/24/1 1/3/1 9/2/1
f 13/25/7 10/1/7 1/26/7
f 14/27/7 13/25/7 1/26/7
