# Blender v2.79 (sub 0) OBJ File: ''
# www.blender.org
o top.003
v -0.500000 0.500000 0.500000
v 0.500000 0.500000 0.500000
v -0.500000 0.500000 0.000000
v -0.000000 0.500000 -0.500000
v -0.500000 -0.500000 -0.500000
v 0.500000 -0.500000 -0.500000
v -0.500000 -0.500000 0.500000
v 0.500000 -0.500000 0.500000
v 0.500000 0.500000 0.500000
v -0.500000 0.500000 0.500000
v 0.500000 -0.500000 0.500000
v 0.500000 -0.500000 -0.500000
v 0.500000 0.500000 -0.500000
v 0.500000 -0.500000 0.500000
v -0.500000 -0.500000 0.500000
v 0.000000 0.500000 0.000000
vt 1.000000 0.000000
vt 1.000000 1.000000
vt 0.500000 1.000000
vt 0.500000 1.000000
vt 0.000000 0.000000
vt 0.000000 0.000000
vt 1.000000 0.000000
vt 1.000000 1.000000
vt 0.000000 1.000000
vt 0.000000 0.000000
vt 1.000000 0.000000
vt 1.000000 1.000000
vt 0.000000 1.000000
vt -0.000071 1.000000
vt 0.000071 0.000000
vt 0.499929 1.000071
vt 1.000000 0.000000
vt 1.000000 1.000000
vt 0.000000 1.000000
vt 1.000000 0.000000
vt 1.000000 1.000000
vt 0.500000 1.000000
vt 0.000000 0.000000
vt 0.000000 1.000000
vt 0.999900 0.999900
vt 0.500000 0.500000
vt 0.500000 0.000100
vt 0.999900 0.000100
vt 0.000100 0.999900
vt 0.000100 0.500000
vn -0.0000 0.4472 -0.8944
vn -0.0000 0.0000 -1.0000
vn 0.0000 -0.0000 1.0000
vn 1.0000 -0.0000 -0.0000
vn -0.0000 -1.0000 -0.0000
vn -1.0000 0.0000 0.0000
vn -0.8944 0.4472 0.0000
vn 0.0000 1.0000 0.0000
s off
f 5/1/1 3/2/1 16/3/1
f 4/4/2 6/5/2 5/1/2
f 7/6/3 8/7/3 9/8/3 10/9/3
f 11/10/4 12/11/4 13/12/4 2/13/4
f 13/14/2 6/15/2 4/16/2
f 6/5/5 14/17/5 15/18/5 5/19/5
f 15/20/6 1/21/6 3/22/6
f 5/23/6 15/20/6 3/22/6
f 16/3/7 4/24/7 5/23/7
f 9/25/8 16/26/8 3/27/8 10/28/8
f 16/26/8 9/25/8 13/29/8 4/30/8
l 1 2
