v -0.500000 0.750000 -0.500000
v 0.500000 0.750000 -0.500000
v 0.500000 0.750000 0.500000
v -0.500000 0.750000 0.500000
v -0.500000 -0.500000 -0.500000
v 0.500000 -0.500000 -0.500000
v 0.500000 -0.500000 0.500000
v -0.500000 -0.500000 0.500000
v -0.375000 1.500000 -0.375000
v 0.375000 1.500000 -0.375000
v 0.375000 1.500000 0.375000
v -0.375000 1.500000 0.375000
v -0.375000 0.750000 -0.375000
v 0.375000 0.750000 -0.375000
v 0.375000 0.750000 0.375000
v -0.375000 0.750000 0.375000
v -1.000000 0.875000 0.000000
v 1.000000 0.875000 0.000000
v -1.000000 -0.500000 0.000000
v 1.000000 -0.500000 0.000000
vt 0.7500 0.2500
vt 0.2500 0.2500
vt 0.2500 0.7500
vt 0.7500 0.7500
vt 0.7500 0.8750
vt 0.2500 0.8750
vt 0.6875 0.3125
vt 0.3125 0.3125
vt 0.3125 0.6875
vt 0.6875 0.6875
vt 0.3125 0.8750
vt 0.6875 0.8750
vt 0.6875 1.2500
vt 0.3125 1.2500
vt 1.0000 0.5000
vt 0.0000 0.5000
vt 0.5000 0.2500
vt 0.5000 0.9375
vt 0.0000 0.2500
vt 1.0000 0.2500
vt 1.0000 0.9375
vt 0.0000 0.9375
vn 0.0000 1.0000 0.0000
vn 0.0000 -1.0000 0.0000
vn 1.0000 0.0000 0.0000
vn -1.0000 0.0000 0.0000
vn 0.0000 0.0000 1.0000
vn 0.0000 0.0000 -1.0000
g top
s off
f 4/4/1 3/3/1 2/2/1 1/1/1
f 12/10/1 11/9/1 10/8/1 9/7/1
f 17/15/1 18/16/1 18/16/1 17/15/1
g bottom
s off
f 5/4/2 6/3/2 7/2/2 8/1/2
f 13/10/2 14/9/2 15/8/2 16/7/2
f 19/15/2 20/16/2 20/16/2 19/15/2
g right
s off
f 8/1/4 4/5/4 1/6/4 5/2/4
f 16/12/4 12/13/4 9/14/4 13/11/4
f 19/17/4 17/18/4 17/18/4 19/17/4
g left
s off
f 6/1/3 2/5/3 3/6/3 7/2/3
f 14/12/3 10/13/3 11/14/3 15/11/3
f 20/17/3 18/18/3 18/18/3 20/17/3
g back
s off
f 8/2/5 7/1/5 3/5/5 4/6/5
f 16/11/5 15/12/5 11/13/5 12/14/5
f 19/19/5 20/20/5 18/21/5 17/22/5
g front
s off
f 1/5/6 2/6/6 6/2/6 5/1/6
f 9/13/6 10/14/6 14/11/6 13/12/6
f 17/21/6 18/22/6 20/19/6 19/20/6
