# Blender v3.0.1 OBJ File: 'slopes.blend'
# www.blender.org
mtllib advtrains_dtrack_vst41.mtl
v 0.753760 -0.500000 -0.500000
v 0.753760 -0.500000 0.500000
v 0.753760 -0.250000 0.500000
v -0.753760 -0.500000 -0.500000
v -0.753760 -0.500000 0.500000
v -0.753760 -0.250000 0.500000
v 0.329165 -0.364007 0.171599
v 0.329165 -0.199947 0.171599
v 0.329165 -0.449807 -0.171599
v 0.329165 -0.285746 -0.171599
v 0.462280 -0.364007 0.171599
v 0.462280 -0.199947 0.171599
v 0.462280 -0.449807 -0.171599
v 0.462280 -0.285746 -0.171599
v 0.412289 -0.210000 0.500000
v 0.412289 -0.460000 -0.500000
v 0.560528 -0.460000 -0.500000
v 0.560528 -0.210000 0.500000
v 0.474055 -0.190000 0.500000
v 0.474055 -0.440000 -0.500000
v 0.498762 -0.440000 -0.500000
v 0.498762 -0.190000 0.500000
v 0.474055 -0.140000 0.500000
v 0.474055 -0.390000 -0.500000
v 0.498762 -0.390000 -0.500000
v 0.498762 -0.140000 0.500000
v 0.529645 -0.385000 -0.500000
v 0.529645 -0.135000 0.500000
v 0.443172 -0.135000 0.500000
v 0.443172 -0.385000 -0.500000
v 0.529645 -0.360000 -0.500000
v 0.529645 -0.110000 0.500000
v 0.443172 -0.110000 0.500000
v 0.443172 -0.360000 -0.500000
v 0.741194 -0.276250 0.435000
v -0.741194 -0.276250 0.435000
v -0.741194 -0.306250 0.315000
v 0.741194 -0.306250 0.315000
v 0.741193 -0.226250 0.435000
v -0.741194 -0.226250 0.435000
v -0.741194 -0.256250 0.315000
v 0.741194 -0.256250 0.315000
v -0.011733 2.629186 0.500000
v -0.011732 2.379186 -0.500001
v -0.011733 2.650814 0.500000
v -0.011732 2.400814 -0.500000
v 0.011732 2.379186 -0.500000
v 0.011732 2.629186 0.500000
v 0.011732 2.400814 -0.500000
v 0.011732 2.650814 0.500000
v -0.412289 -0.460000 -0.500000
v -0.412289 -0.210000 0.500000
v -0.560528 -0.210000 0.500000
v -0.560528 -0.460000 -0.500000
v -0.474055 -0.440000 -0.500000
v -0.474055 -0.190000 0.500000
v -0.498762 -0.190000 0.500000
v -0.498762 -0.440000 -0.500000
v -0.474055 -0.390000 -0.500000
v -0.474055 -0.140000 0.500000
v -0.498762 -0.140000 0.500000
v -0.498762 -0.390000 -0.500000
v -0.529645 -0.135000 0.500000
v -0.529645 -0.385000 -0.500000
v -0.443172 -0.385000 -0.500000
v -0.443172 -0.135000 0.500000
v -0.529645 -0.110000 0.500000
v -0.529645 -0.360000 -0.500000
v -0.443172 -0.360000 -0.500000
v -0.443172 -0.110000 0.500000
v -0.741194 -0.493750 -0.435000
v 0.741194 -0.493750 -0.435000
v 0.741194 -0.463750 -0.315000
v -0.741194 -0.463750 -0.315000
v -0.741193 -0.443750 -0.435000
v 0.741194 -0.443750 -0.435000
v 0.741194 -0.413750 -0.315000
v -0.741194 -0.413750 -0.315000
v 0.741194 -0.338034 0.187862
v -0.741194 -0.338034 0.187862
v -0.741194 -0.368034 0.067862
v 0.741194 -0.368034 0.067862
v 0.741193 -0.288034 0.187862
v -0.741194 -0.288034 0.187862
v -0.741194 -0.318034 0.067862
v 0.741194 -0.318034 0.067862
v -0.741194 -0.431965 -0.187862
v 0.741194 -0.431965 -0.187862
v 0.741194 -0.401965 -0.067862
v -0.741194 -0.401965 -0.067862
v -0.741193 -0.381965 -0.187862
v 0.741194 -0.381965 -0.187862
v 0.741194 -0.351965 -0.067862
v -0.741194 -0.351965 -0.067862
v -0.329165 -0.364007 0.171599
v -0.329165 -0.199947 0.171599
v -0.329165 -0.449807 -0.171599
v -0.329165 -0.285746 -0.171599
v -0.462280 -0.364007 0.171599
v -0.462280 -0.199947 0.171599
v -0.462280 -0.449807 -0.171599
v -0.462280 -0.285746 -0.171599
vt 0.742661 0.116874
vt 0.742661 0.331656
vt 0.639988 0.331656
vt 0.639988 0.116874
vt 0.825967 0.331656
vt 0.825967 0.434329
vt 0.742661 0.434329
vt 0.825967 0.116874
vt 0.742661 0.014201
vt 0.825967 0.014202
vt 0.569095 0.297086
vt 0.569094 0.922911
vt 0.537803 0.922911
vt 0.537804 0.297086
vt 0.341316 0.297086
vt 0.381947 0.297086
vt 0.381947 0.922911
vt 0.341316 0.922911
vt 0.429134 0.985493
vt 0.467789 0.972977
vt 0.483250 0.972977
vt 0.521905 0.985494
vt 0.609725 0.922911
vt 0.609725 0.297086
vt 0.467791 0.247020
vt 0.429136 0.234503
vt 0.521907 0.234503
vt 0.483253 0.247020
vt 0.483252 0.278311
vt 0.467790 0.278311
vt 0.413238 0.297086
vt 0.413238 0.922911
vt 0.467789 0.941686
vt 0.483250 0.941686
vt 0.518224 0.922911
vt 0.518225 0.297086
vt 0.432817 0.297086
vt 0.432816 0.922911
vt 0.502578 0.922911
vt 0.502580 0.297086
vt 0.448463 0.297086
vt 0.448461 0.922911
vt 0.502580 0.281440
vt 0.448463 0.281440
vt 0.448461 0.938557
vt 0.502578 0.938557
vt 0.958794 0.962518
vt 0.883696 0.962519
vt 0.883694 0.034812
vt 0.958793 0.034812
vt 0.990085 0.962519
vt 0.990085 0.034812
vt 0.958793 0.003520
vt 0.883694 0.003521
vt 0.852403 0.034812
vt 0.852404 0.962519
vt 0.958794 0.993809
vt 0.883696 0.993810
vt 0.655433 0.362679
vt 0.668968 0.362679
vt 0.668967 0.988500
vt 0.655431 0.988500
vt 0.697188 0.988500
vt 0.683652 0.988500
vt 0.683653 0.362679
vt 0.697187 0.362679
vt 0.711873 0.362679
vt 0.711873 0.988500
vt 0.569095 0.297086
vt 0.569094 0.922911
vt 0.537803 0.922911
vt 0.537804 0.297086
vt 0.341316 0.297086
vt 0.381947 0.297086
vt 0.381947 0.922911
vt 0.341316 0.922911
vt 0.429134 0.985493
vt 0.467789 0.972977
vt 0.483250 0.972977
vt 0.521905 0.985494
vt 0.609725 0.922911
vt 0.609725 0.297086
vt 0.467791 0.247020
vt 0.429136 0.234503
vt 0.521907 0.234503
vt 0.483253 0.247020
vt 0.483252 0.278311
vt 0.467790 0.278311
vt 0.413238 0.297086
vt 0.413238 0.922911
vt 0.467789 0.941686
vt 0.483250 0.941686
vt 0.518224 0.922911
vt 0.518225 0.297086
vt 0.432817 0.297086
vt 0.432816 0.922911
vt 0.502578 0.922911
vt 0.502580 0.297086
vt 0.448463 0.297086
vt 0.448461 0.922911
vt 0.502580 0.281440
vt 0.448463 0.281440
vt 0.448461 0.938557
vt 0.502578 0.938557
vt 0.958794 0.962518
vt 0.883696 0.962519
vt 0.883694 0.034812
vt 0.958793 0.034812
vt 0.990085 0.962519
vt 0.990085 0.034812
vt 0.958793 0.003520
vt 0.883694 0.003521
vt 0.852403 0.034812
vt 0.852404 0.962519
vt 0.958794 0.993809
vt 0.883696 0.993810
vt 0.958794 0.962518
vt 0.883696 0.962519
vt 0.883694 0.034812
vt 0.958793 0.034812
vt 0.990085 0.962519
vt 0.990085 0.034812
vt 0.958793 0.003520
vt 0.883694 0.003521
vt 0.852403 0.034812
vt 0.852404 0.962519
vt 0.958794 0.993809
vt 0.883696 0.993810
vt 0.958794 0.962518
vt 0.883696 0.962519
vt 0.883694 0.034812
vt 0.958793 0.034812
vt 0.990085 0.962519
vt 0.990085 0.034812
vt 0.958793 0.003520
vt 0.883694 0.003521
vt 0.852403 0.034812
vt 0.852404 0.962519
vt 0.958794 0.993809
vt 0.883696 0.993810
vt 0.742661 0.116874
vt 0.639988 0.116874
vt 0.639988 0.331656
vt 0.742661 0.331656
vt 0.742661 0.434329
vt 0.825967 0.434329
vt 0.825967 0.331656
vt 0.825967 0.116874
vt 0.825967 0.014202
vt 0.742661 0.014201
vt 1.252069 0.250000
vt -0.252069 0.250000
vt -0.252069 -0.000000
vt 1.252069 0.000000
vt -0.252069 0.998879
vt -0.252069 0.001121
vt 1.252069 0.001121
vt 1.252069 0.998879
vt 1.000000 0.000000
vt -0.000000 0.250000
vt 0.000000 -0.000000
vt 1.000000 0.250000
vt 0.000000 -0.000000
vt 1.000000 0.000000
vt -0.252069 1.057763
vt -0.252069 -0.057763
vt 1.252070 -0.057763
vt 1.252069 1.057763
vn -1.0000 0.0000 -0.0000
vn 0.0000 0.0000 -1.0000
vn -0.0000 0.0000 1.0000
vn 0.0000 0.9701 -0.2425
vn 1.0000 0.0000 0.0000
vn -0.2997 0.9256 -0.2314
vn 0.2997 0.9256 -0.2314
vn 0.1552 -0.9584 0.2396
vn -0.1552 -0.9584 0.2396
vn -0.0000 -0.9701 0.2425
vn 0.2997 0.9255 -0.2314
vn -0.2997 0.9255 -0.2314
vn -0.0000 -1.0000 -0.0000
g vst41_Cube.010_SlopeRailMaterial.007
usemtl SlopeRailMaterial.007
s off
f 8/1/1 10/2/1 9/3/1 7/4/1
f 10/2/2 14/5/2 13/6/2 9/7/2
f 12/8/3 8/1/3 7/9/3 11/10/3
f 12/8/4 14/5/4 10/2/4 8/1/4
f 22/11/5 21/12/5 25/13/5 26/14/5
f 15/15/6 19/16/6 20/17/6 16/18/6
f 16/19/2 20/20/2 21/21/2 17/22/2
f 17/23/7 21/12/7 22/11/7 18/24/7
f 19/25/3 15/26/3 18/27/3 22/28/3
f 26/29/3 23/30/3 19/25/3 22/28/3
f 19/16/1 23/31/1 24/32/1 20/17/1
f 21/21/2 20/20/2 24/33/2 25/34/2
f 26/14/8 25/13/8 27/35/8 28/36/8
f 24/32/9 23/31/9 29/37/9 30/38/9
f 28/36/5 27/35/5 31/39/5 32/40/5
f 30/38/1 29/37/1 33/41/1 34/42/1
f 31/39/4 34/42/4 33/41/4 32/40/4
f 23/30/3 26/29/3 28/43/3 32/40/3 33/41/3 29/44/3
f 24/33/2 30/45/2 34/42/2 31/39/2 27/46/2 25/34/2
f 39/47/4 42/48/4 41/49/4 40/50/4
f 35/51/3 39/47/3 40/50/3 36/52/3
f 36/53/1 40/50/1 41/49/1 37/54/1
f 37/55/2 41/49/2 42/48/2 38/56/2
f 39/47/5 35/57/5 38/58/5 42/48/5
f 43/59/1 45/60/1 46/61/1 44/62/1
f 47/63/5 49/64/5 50/65/5 48/66/5
f 43/67/10 44/68/10 47/63/10 48/66/10
f 45/60/4 50/65/4 49/64/4 46/61/4
f 58/69/1 57/70/1 61/71/1 62/72/1
f 51/73/11 55/74/11 56/75/11 52/76/11
f 52/77/3 56/78/3 57/79/3 53/80/3
f 53/81/12 57/70/12 58/69/12 54/82/12
f 55/83/2 51/84/2 54/85/2 58/86/2
f 62/87/2 59/88/2 55/83/2 58/86/2
f 55/74/5 59/89/5 60/90/5 56/75/5
f 57/79/3 56/78/3 60/91/3 61/92/3
f 62/72/9 61/71/9 63/93/9 64/94/9
f 60/90/8 59/89/8 65/95/8 66/96/8
f 64/94/1 63/93/1 67/97/1 68/98/1
f 66/96/5 65/95/5 69/99/5 70/100/5
f 67/97/4 70/100/4 69/99/4 68/98/4
f 59/88/2 62/87/2 64/101/2 68/98/2 69/99/2 65/102/2
f 60/91/3 66/103/3 70/100/3 67/97/3 63/104/3 61/92/3
f 75/105/4 78/106/4 77/107/4 76/108/4
f 71/109/2 75/105/2 76/108/2 72/110/2
f 72/111/5 76/108/5 77/107/5 73/112/5
f 73/113/3 77/107/3 78/106/3 74/114/3
f 75/105/1 71/115/1 74/116/1 78/106/1
f 83/117/4 86/118/4 85/119/4 84/120/4
f 79/121/3 83/117/3 84/120/3 80/122/3
f 80/123/1 84/120/1 85/119/1 81/124/1
f 81/125/2 85/119/2 86/118/2 82/126/2
f 83/117/5 79/127/5 82/128/5 86/118/5
f 91/129/4 94/130/4 93/131/4 92/132/4
f 87/133/2 91/129/2 92/132/2 88/134/2
f 88/135/5 92/132/5 93/131/5 89/136/5
f 89/137/3 93/131/3 94/130/3 90/138/3
f 91/129/1 87/139/1 90/140/1 94/130/1
f 96/141/5 95/142/5 97/143/5 98/144/5
f 98/144/2 97/145/2 101/146/2 102/147/2
f 100/148/3 99/149/3 95/150/3 96/141/3
f 100/148/4 96/141/4 98/144/4 102/147/4
g vst41_Cube.010_SlopeGravelMaterial.007
usemtl SlopeGravelMaterial.007
f 3/151/3 6/152/3 5/153/3 2/154/3
f 1/155/13 2/156/13 5/157/13 4/158/13
f 1/159/5 3/160/5 2/161/5
f 6/162/1 4/163/1 5/164/1
f 4/165/4 6/166/4 3/167/4 1/168/4
