# Blender 3.5.1
# www.blender.org
mtllib haut_angle.mtl
o SketchUp.001
v -0.500000 -0.174118 -0.149407
v -0.146000 -0.200000 -0.146000
v -0.500000 -0.200000 -0.146000
v -0.149407 -0.174118 -0.149407
v -0.500000 -0.200000 -0.146000
v -0.146000 -0.500000 -0.146000
v -0.500000 -0.500000 -0.146000
v -0.146000 -0.200000 -0.146000
v -0.500000 0.400000 -0.346000
v -0.500000 0.450000 -0.446000
v -0.500000 0.400000 -0.446000
v -0.500000 0.096593 -0.320118
v -0.500000 0.100000 -0.346000
v -0.500000 -0.103407 -0.220118
v -0.500000 0.000000 -0.246000
v -0.500000 -0.100000 -0.246000
v -0.500000 -0.500000 0.500000
v -0.500000 -0.200000 -0.146000
v -0.500000 -0.500000 -0.146000
v -0.500000 0.500000 -0.500000
v -0.500000 0.450000 -0.500000
v -0.500000 0.500000 0.500000
v -0.500000 0.086603 -0.296000
v -0.500000 0.070711 -0.275289
v -0.500000 0.050000 -0.259397
v -0.500000 0.025882 -0.249407
v -0.500000 -0.113398 -0.196000
v -0.500000 -0.129289 -0.175289
v -0.500000 -0.150000 -0.159397
v -0.500000 -0.174118 -0.149407
v -0.500000 -0.150000 -0.159397
v -0.149407 -0.174118 -0.149407
v -0.500000 -0.174118 -0.149407
v -0.159397 -0.150000 -0.159397
v -0.146000 -0.200000 -0.146000
v -0.149407 -0.174118 -0.500000
v -0.146000 -0.200000 -0.500000
v -0.149407 -0.174118 -0.149407
v -0.146000 -0.500000 -0.146000
v -0.146000 -0.200000 -0.500000
v -0.146000 -0.500000 -0.500000
v -0.146000 -0.200000 -0.146000
v -0.146000 -0.500000 -0.500000
v 0.500000 -0.500000 0.500000
v 0.500000 -0.500000 -0.500000
v -0.146000 -0.500000 -0.146000
v -0.500000 -0.500000 0.500000
v -0.500000 -0.500000 -0.146000
v -0.500000 0.450000 -0.446000
v -0.446000 0.450000 -0.500000
v -0.446000 0.450000 -0.446000
v -0.500000 0.450000 -0.500000
v -0.500000 0.450000 -0.446000
v -0.446000 0.400000 -0.446000
v -0.500000 0.400000 -0.446000
v -0.446000 0.450000 -0.446000
v -0.500000 0.400000 -0.346000
v -0.346000 0.400000 -0.500000
v -0.346000 0.400000 -0.346000
v -0.446000 0.400000 -0.446000
v -0.500000 0.400000 -0.446000
v -0.446000 0.400000 -0.500000
v -0.500000 0.400000 -0.346000
v -0.346000 0.100000 -0.346000
v -0.500000 0.100000 -0.346000
v -0.346000 0.400000 -0.346000
v -0.500000 0.096593 -0.320118
v -0.346000 0.100000 -0.346000
v -0.320118 0.096593 -0.320118
v -0.500000 0.100000 -0.346000
v -0.500000 0.086603 -0.296000
v -0.320118 0.096593 -0.320118
v -0.296000 0.086603 -0.296000
v -0.500000 0.096593 -0.320118
v -0.500000 0.070711 -0.275289
v -0.296000 0.086603 -0.296000
v -0.275289 0.070711 -0.275289
v -0.500000 0.086603 -0.296000
v -0.500000 0.070711 -0.275289
v -0.259398 0.050000 -0.259397
v -0.500000 0.050000 -0.259397
v -0.275289 0.070711 -0.275289
v -0.500000 0.050000 -0.259397
v -0.249407 0.025882 -0.249407
v -0.500000 0.025882 -0.249407
v -0.259398 0.050000 -0.259397
v -0.500000 0.025882 -0.249407
v -0.246000 0.000000 -0.246000
v -0.500000 0.000000 -0.246000
v -0.249407 0.025882 -0.249407
v -0.500000 0.000000 -0.246000
v -0.246000 -0.100000 -0.246000
v -0.500000 -0.100000 -0.246000
v -0.246000 0.000000 -0.246000
v -0.500000 -0.103407 -0.220118
v -0.246000 -0.100000 -0.246000
v -0.220118 -0.103407 -0.220118
v -0.500000 -0.100000 -0.246000
v -0.500000 -0.113398 -0.196000
v -0.220118 -0.103407 -0.220118
v -0.196000 -0.113398 -0.196000
v -0.500000 -0.103407 -0.220118
v -0.500000 -0.129289 -0.175289
v -0.196000 -0.113398 -0.196000
v -0.175289 -0.129289 -0.175289
v -0.500000 -0.113398 -0.196000
v -0.500000 -0.129289 -0.175289
v -0.159397 -0.150000 -0.159397
v -0.500000 -0.150000 -0.159397
v -0.175289 -0.129289 -0.175289
v 0.500000 0.500000 0.500000
v -0.500000 -0.500000 0.500000
v 0.500000 -0.500000 0.500000
v -0.500000 0.500000 0.500000
v -0.500000 0.500000 -0.500000
v 0.500000 0.500000 0.500000
v 0.500000 0.500000 -0.500000
v -0.500000 0.500000 0.500000
v -0.446000 0.450000 -0.500000
v -0.346000 0.400000 -0.500000
v -0.446000 0.400000 -0.500000
v -0.500000 0.500000 -0.500000
v -0.500000 0.450000 -0.500000
v -0.146000 -0.200000 -0.500000
v 0.500000 -0.500000 -0.500000
v -0.146000 -0.500000 -0.500000
v 0.500000 0.500000 -0.500000
v -0.149407 -0.174118 -0.500000
v -0.159397 -0.150000 -0.500000
v -0.175289 -0.129289 -0.500000
v -0.196000 -0.113398 -0.500000
v -0.220118 -0.103407 -0.500000
v -0.246000 -0.100000 -0.500000
v -0.246000 0.000000 -0.500000
v -0.249407 0.025882 -0.500000
v -0.259398 0.050000 -0.500000
v -0.275289 0.070711 -0.500000
v -0.296000 0.086603 -0.500000
v -0.320118 0.096593 -0.500000
v -0.346000 0.100000 -0.500000
v -0.149407 -0.174118 -0.149407
v -0.159397 -0.150000 -0.500000
v -0.149407 -0.174118 -0.500000
v -0.159397 -0.150000 -0.159397
v 0.500000 0.500000 0.500000
v 0.500000 -0.500000 -0.500000
v 0.500000 0.500000 -0.500000
v 0.500000 -0.500000 0.500000
v -0.446000 0.400000 -0.446000
v -0.446000 0.450000 -0.500000
v -0.446000 0.400000 -0.500000
v -0.446000 0.450000 -0.446000
v -0.346000 0.100000 -0.346000
v -0.346000 0.400000 -0.500000
v -0.346000 0.100000 -0.500000
v -0.346000 0.400000 -0.346000
v -0.346000 0.100000 -0.346000
v -0.320118 0.096593 -0.500000
v -0.320118 0.096593 -0.320118
v -0.346000 0.100000 -0.500000
v -0.320118 0.096593 -0.320118
v -0.296000 0.086603 -0.500000
v -0.296000 0.086603 -0.296000
v -0.320118 0.096593 -0.500000
v -0.296000 0.086603 -0.296000
v -0.275289 0.070711 -0.500000
v -0.275289 0.070711 -0.275289
v -0.296000 0.086603 -0.500000
v -0.259398 0.050000 -0.259397
v -0.275289 0.070711 -0.500000
v -0.259398 0.050000 -0.500000
v -0.275289 0.070711 -0.275289
v -0.249407 0.025882 -0.249407
v -0.259398 0.050000 -0.500000
v -0.249407 0.025882 -0.500000
v -0.259398 0.050000 -0.259397
v -0.246000 0.000000 -0.246000
v -0.249407 0.025882 -0.500000
v -0.246000 0.000000 -0.500000
v -0.249407 0.025882 -0.249407
v -0.246000 -0.100000 -0.246000
v -0.246000 0.000000 -0.500000
v -0.246000 -0.100000 -0.500000
v -0.246000 0.000000 -0.246000
v -0.246000 -0.100000 -0.246000
v -0.220118 -0.103407 -0.500000
v -0.220118 -0.103407 -0.220118
v -0.246000 -0.100000 -0.500000
v -0.220118 -0.103407 -0.220118
v -0.196000 -0.113398 -0.500000
v -0.196000 -0.113398 -0.196000
v -0.220118 -0.103407 -0.500000
v -0.196000 -0.113398 -0.196000
v -0.175289 -0.129289 -0.500000
v -0.175289 -0.129289 -0.175289
v -0.196000 -0.113398 -0.500000
v -0.159397 -0.150000 -0.159397
v -0.175289 -0.129289 -0.500000
v -0.159397 -0.150000 -0.500000
v -0.175289 -0.129289 -0.175289
vn -0.0000 -0.1305 -0.9914
vn -0.0000 -0.0000 -1.0000
vn -1.0000 -0.0000 -0.0000
vn -0.0000 -0.3827 -0.9239
vn -0.9914 -0.1305 -0.0000
vn -0.0000 1.0000 -0.0000
vn -0.0000 -1.0000 -0.0000
vn -0.0000 -0.9914 -0.1305
vn -0.0000 -0.9239 -0.3827
vn -0.0000 -0.7934 -0.6088
vn -0.0000 -0.6088 -0.7934
vn -0.0000 -0.7934 -0.6087
vn -0.0000 -0.0000 1.0000
vn -0.9239 -0.3827 -0.0000
vn 1.0000 -0.0000 -0.0000
vn -0.1305 -0.9914 -0.0000
vn -0.3827 -0.9239 -0.0000
vn -0.6088 -0.7934 -0.0000
vn -0.7934 -0.6087 -0.0000
vn -0.6087 -0.7934 -0.0000
vn -0.7934 -0.6088 -0.0000
vt 1.286713 2.355298
vt 1.312762 2.001102
vt 1.312762 2.355298
vt 1.286713 2.004511
vt 0.299669 2.355298
vt 0.599339 2.001102
vt 0.599339 2.355298
vt 0.299669 2.001102
vt 2.900110 0.846467
vt 2.950055 0.946522
vt 2.900110 0.946522
vt 2.597038 0.820570
vt 2.600441 0.846466
vt 2.397258 0.720515
vt 2.500551 0.746411
vt 2.400661 0.746411
vt 2.001102 0.000000
vt 2.300771 0.646356
vt 2.001102 0.646356
vt 3.000000 1.000551
vt 2.950055 1.000551
vt 3.000000 0.000000
vt 2.587059 0.796439
vt 2.571184 0.775716
vt 2.550496 0.759816
vt 2.526404 0.749820
vt 2.387278 0.696384
vt 2.371405 0.675661
vt 2.350716 0.659761
vt 2.326625 0.649765
vt 1.337428 2.351889
vt 1.362094 2.001102
vt 1.362094 2.351889
vt 1.337428 2.011098
vt 1.260664 2.001102
vt 1.286713 2.355298
vt 1.260664 2.355298
vt 1.286713 2.004511
vt 0.000000 2.001102
vt 0.299669 2.355298
vt 0.000000 2.355298
vt 0.299669 2.001103
vt 0.354195 2.001103
vt 1.000551 1.000551
vt 1.000551 2.001103
vt 0.354195 1.646907
vt 0.000000 1.000551
vt 0.000000 1.646907
vt 1.842864 2.001102
vt 1.896645 2.055380
vt 1.842864 2.054886
vt 1.896645 2.001596
vt 1.896645 2.055132
vt 1.946590 2.001102
vt 1.946590 2.055132
vt 1.896645 2.001102
vt 1.260664 2.001102
vt 1.107288 2.155893
vt 1.107288 2.002511
vt 1.206882 2.101195
vt 1.260664 2.100701
vt 1.206882 2.154979
vt 0.753423 2.300772
vt 0.599339 2.001102
vt 0.753423 2.001102
vt 0.599339 2.300772
vt 1.842864 2.180263
vt 1.816760 2.026968
vt 1.842864 2.001102
vt 1.816760 2.180350
vt 1.746355 2.204284
vt 1.721377 2.025852
vt 1.746355 2.001102
vt 1.721377 2.205013
vt 1.790657 2.224912
vt 1.768506 2.023051
vt 1.790657 2.001102
vt 1.768506 2.226233
vt 1.674796 2.241837
vt 1.696398 2.001102
vt 1.696398 2.241837
vt 1.674796 2.017002
vt 1.628529 2.251833
vt 1.653194 2.001102
vt 1.653194 2.251833
vt 1.628529 2.011099
vt 1.577813 2.255242
vt 1.603863 2.001102
vt 1.603863 2.255242
vt 1.577813 2.004511
vt 1.007398 2.255242
vt 1.107288 2.001102
vt 1.107288 2.255242
vt 1.007398 2.001102
vt 1.507462 2.279862
vt 1.481359 2.026968
vt 1.507462 2.001102
vt 1.481359 2.279949
vt 1.412050 2.303883
vt 1.387072 2.025852
vt 1.412050 2.001102
vt 1.387072 2.304611
vt 1.551764 2.324511
vt 1.529613 2.023051
vt 1.551764 2.001102
vt 1.529613 2.325831
vt 1.433653 2.341893
vt 1.455255 2.001102
vt 1.455255 2.341893
vt 1.433653 2.017003
vt 1.000551 1.000551
vt 2.001102 2.001103
vt 1.000551 2.001103
vt 2.001103 1.000551
vt 1.000551 1.000551
vt 2.001102 0.000000
vt 2.001102 1.000551
vt 1.000551 0.000000
vt 2.051047 1.947073
vt 2.100992 1.847018
vt 2.100992 1.947073
vt 2.001102 2.001102
vt 2.051047 2.001102
vt 2.700331 1.646907
vt 3.000000 1.000551
vt 3.000000 1.646907
vt 2.001102 1.000551
vt 2.674477 1.650316
vt 2.650386 1.660312
vt 2.629698 1.676213
vt 2.613824 1.696935
vt 2.603844 1.721066
vt 2.600441 1.746962
vt 2.500551 1.746962
vt 2.474698 1.750371
vt 2.450606 1.760368
vt 2.429918 1.776268
vt 2.414044 1.796990
vt 2.404065 1.821121
vt 2.400661 1.847018
vt 1.312763 2.001102
vt 1.337428 2.351889
vt 1.312762 2.351889
vt 1.337428 2.011098
vt 0.000000 0.000000
vt 1.000551 1.000551
vt 0.000000 1.000551
vt 1.000551 0.000000
vt 1.946590 2.001102
vt 1.996535 2.055132
vt 1.946590 2.055132
vt 1.996535 2.001102
vt 0.907508 2.001102
vt 0.753423 2.300772
vt 0.753423 2.001102
vt 0.907508 2.300772
vt 1.816760 2.026968
vt 1.790657 2.180263
vt 1.790657 2.001102
vt 1.816760 2.180350
vt 1.721377 2.025852
vt 1.696398 2.204284
vt 1.696398 2.001102
vt 1.721376 2.205013
vt 1.768506 2.023051
vt 1.746355 2.224912
vt 1.746355 2.001102
vt 1.768506 2.226233
vt 1.653194 2.001102
vt 1.674796 2.241838
vt 1.653194 2.241838
vt 1.674796 2.017003
vt 1.603863 2.001102
vt 1.628529 2.251833
vt 1.603863 2.251833
vt 1.628529 2.011098
vt 1.551764 2.001102
vt 1.577813 2.255242
vt 1.551764 2.255242
vt 1.577813 2.004511
vt 0.907508 2.001102
vt 1.007398 2.255242
vt 0.907508 2.255242
vt 1.007398 2.001102
vt 1.481358 2.026968
vt 1.455255 2.279861
vt 1.455255 2.001102
vt 1.481358 2.279948
vt 1.387072 2.025852
vt 1.362094 2.303883
vt 1.362094 2.001102
vt 1.387072 2.304612
vt 1.529613 2.023051
vt 1.507462 2.324511
vt 1.507462 2.001102
vt 1.529613 2.325831
vt 1.412051 2.001102
vt 1.433653 2.341893
vt 1.412051 2.341893
vt 1.433653 2.017003
s 0
usemtl material.003
f 1/1/1 2/2/1 3/3/1
f 2/2/1 1/1/1 4/4/1
f 5/5/2 6/6/2 7/7/2
f 6/6/2 5/5/2 8/8/2
f 9/9/3 10/10/3 11/11/3
f 12/12/3 9/9/3 13/13/3
f 14/14/3 15/15/3 16/16/3
f 17/17/3 18/18/3 19/19/3
f 10/10/3 20/20/3 21/21/3
f 20/20/3 10/10/3 22/22/3
f 22/22/3 10/10/3 9/9/3
f 22/22/3 9/9/3 12/12/3
f 22/22/3 12/12/3 23/23/3
f 22/22/3 23/23/3 24/24/3
f 22/22/3 24/24/3 25/25/3
f 22/22/3 25/25/3 26/26/3
f 22/22/3 26/26/3 15/15/3
f 22/22/3 15/15/3 14/14/3
f 22/22/3 14/14/3 27/27/3
f 22/22/3 27/27/3 28/28/3
f 22/22/3 28/28/3 29/29/3
f 22/22/3 29/29/3 30/30/3
f 22/22/3 30/30/3 18/18/3
f 22/22/3 18/18/3 17/17/3
f 31/31/4 32/32/4 33/33/4
f 32/32/4 31/31/4 34/34/4
f 35/35/5 36/36/5 37/37/5
f 36/36/5 35/35/5 38/38/5
f 39/39/3 40/40/3 41/41/3
f 40/40/3 39/39/3 42/42/3
f 43/43/6 44/44/6 45/45/6
f 44/44/6 43/43/6 46/46/6
f 44/44/6 46/46/6 47/47/6
f 47/47/6 46/46/6 48/48/6
f 49/49/7 50/50/7 51/51/7
f 50/50/7 49/49/7 52/52/7
f 53/53/2 54/54/2 55/55/2
f 54/54/2 53/53/2 56/56/2
f 57/57/7 58/58/7 59/59/7
f 58/58/7 57/57/7 60/60/7
f 60/60/7 57/57/7 61/61/7
f 62/62/7 58/58/7 60/60/7
f 63/63/2 64/64/2 65/65/2
f 64/64/2 63/63/2 66/66/2
f 67/67/8 68/68/8 69/69/8
f 68/68/8 67/67/8 70/70/8
f 71/71/9 72/72/9 73/73/9
f 72/72/9 71/71/9 74/74/9
f 75/75/10 76/76/10 77/77/10
f 76/76/10 75/75/10 78/78/10
f 79/79/11 80/80/11 81/81/11
f 80/80/11 79/79/11 82/82/11
f 83/83/4 84/84/4 85/85/4
f 84/84/4 83/83/4 86/86/4
f 87/87/1 88/88/1 89/89/1
f 88/88/1 87/87/1 90/90/1
f 91/91/2 92/92/2 93/93/2
f 92/92/2 91/91/2 94/94/2
f 95/95/8 96/96/8 97/97/8
f 96/96/8 95/95/8 98/98/8
f 99/99/9 100/100/9 101/101/9
f 100/100/9 99/99/9 102/102/9
f 103/103/12 104/104/12 105/105/12
f 104/104/12 103/103/12 106/106/12
f 107/107/11 108/108/11 109/109/11
f 108/108/11 107/107/11 110/110/11
f 111/111/13 112/112/13 113/113/13
f 112/112/13 111/111/13 114/114/13
f 115/115/6 116/116/6 117/117/6
f 116/116/6 115/115/6 118/118/6
f 119/119/2 120/120/2 121/121/2
f 122/122/2 119/119/2 123/123/2
f 124/124/2 125/125/2 126/126/2
f 125/125/2 124/124/2 127/127/2
f 127/127/2 124/124/2 128/128/2
f 127/127/2 128/128/2 129/129/2
f 127/127/2 129/129/2 130/130/2
f 127/127/2 130/130/2 131/131/2
f 127/127/2 131/131/2 132/132/2
f 127/127/2 132/132/2 133/133/2
f 127/127/2 133/133/2 134/134/2
f 127/127/2 134/134/2 135/135/2
f 127/127/2 135/135/2 136/136/2
f 127/127/2 136/136/2 137/137/2
f 127/127/2 137/137/2 138/138/2
f 127/127/2 138/138/2 139/139/2
f 127/127/2 139/139/2 140/140/2
f 127/127/2 140/140/2 120/120/2
f 127/127/2 120/120/2 119/119/2
f 127/127/2 119/119/2 122/122/2
f 141/141/14 142/142/14 143/143/14
f 142/142/14 141/141/14 144/144/14
f 145/145/15 146/146/15 147/147/15
f 146/146/15 145/145/15 148/148/15
f 149/149/3 150/150/3 151/151/3
f 150/150/3 149/149/3 152/152/3
f 153/153/3 154/154/3 155/155/3
f 154/154/3 153/153/3 156/156/3
f 157/157/16 158/158/16 159/159/16
f 158/158/16 157/157/16 160/160/16
f 161/161/17 162/162/17 163/163/17
f 162/162/17 161/161/17 164/164/17
f 165/165/18 166/166/18 167/167/18
f 166/166/18 165/165/18 168/168/18
f 169/169/19 170/170/19 171/171/19
f 170/170/19 169/169/19 172/172/19
f 173/173/14 174/174/14 175/175/14
f 174/174/14 173/173/14 176/176/14
f 177/177/5 178/178/5 179/179/5
f 178/178/5 177/177/5 180/180/5
f 181/181/3 182/182/3 183/183/3
f 182/182/3 181/181/3 184/184/3
f 185/185/16 186/186/16 187/187/16
f 186/186/16 185/185/16 188/188/16
f 189/189/17 190/190/17 191/191/17
f 190/190/17 189/189/17 192/192/17
f 193/193/20 194/194/20 195/195/20
f 194/194/20 193/193/20 196/196/20
f 197/197/21 198/198/21 199/199/21
f 198/198/21 197/197/21 200/200/21
