# Blender 3.5.1
# www.blender.org
mtllib medium_column.mtl
o SketchUp.002
v -0.241481 -0.500000 -0.064705
v -0.241481 -0.500000 0.064705
v -0.250000 -0.500000 0.000000
v -0.216506 -0.500000 -0.125000
v -0.216506 -0.500000 0.125000
v -0.176777 -0.500000 0.176777
v -0.176777 -0.500000 -0.176777
v -0.125000 -0.500000 0.216506
v -0.125000 -0.500000 -0.216506
v -0.064705 -0.500000 0.241481
v -0.064705 -0.500000 -0.241481
v 0.000000 -0.500000 0.250000
v 0.000000 -0.500000 -0.250000
v 0.064705 -0.500000 -0.241481
v 0.064705 -0.500000 0.241481
v 0.125000 -0.500000 -0.216506
v 0.125000 -0.500000 0.216506
v 0.176777 -0.500000 -0.176777
v 0.176777 -0.500000 0.176777
v 0.216506 -0.500000 -0.125000
v 0.216506 -0.500000 0.125000
v 0.241481 -0.500000 -0.064705
v 0.241481 -0.500000 0.064705
v 0.250000 -0.500000 0.000000
vn -0.0000 -1.0000 -0.0000
s 0
usemtl __auto_.001
f 1//1 2//1 3//1
f 2//1 1//1 4//1
f 2//1 4//1 5//1
f 5//1 4//1 6//1
f 6//1 4//1 7//1
f 6//1 7//1 8//1
f 8//1 7//1 9//1
f 8//1 9//1 10//1
f 10//1 9//1 11//1
f 10//1 11//1 12//1
f 12//1 11//1 13//1
f 12//1 13//1 14//1
f 12//1 14//1 15//1
f 15//1 14//1 16//1
f 15//1 16//1 17//1
f 17//1 16//1 18//1
f 17//1 18//1 19//1
f 19//1 18//1 20//1
f 19//1 20//1 21//1
f 21//1 20//1 22//1
f 21//1 22//1 23//1
f 23//1 22//1 24//1
o SketchUp.003
v -0.241481 0.500000 0.064705
v -0.241481 0.500000 -0.064705
v -0.250000 0.500000 -0.000000
v -0.216506 0.500000 0.125000
v -0.216506 0.500000 -0.125000
v -0.176777 0.500000 0.176777
v -0.176777 0.500000 -0.176777
v -0.125000 0.500000 0.216506
v -0.125000 0.500000 -0.216506
v -0.064705 0.500000 0.241481
v -0.064705 0.500000 -0.241481
v 0.000000 0.500000 0.250000
v 0.000000 0.500000 -0.250000
v 0.064705 0.500000 0.241481
v 0.064705 0.500000 -0.241481
v 0.125000 0.500000 0.216506
v 0.125000 0.500000 -0.216506
v 0.176777 0.500000 0.176777
v 0.176777 0.500000 -0.176777
v 0.216506 0.500000 0.125000
v 0.216506 0.500000 -0.125000
v 0.241481 0.500000 0.064705
v 0.241481 0.500000 -0.064705
v 0.250000 0.500000 -0.000000
v -0.241481 0.500000 -0.064705
v -0.250000 0.290000 -0.000000
v -0.250000 0.500000 -0.000000
v -0.250000 -0.500000 0.000000
v -0.241481 0.290000 -0.064705
v -0.241481 -0.500000 -0.064705
v -0.250000 0.500000 -0.000000
v -0.241481 0.290000 0.064705
v -0.241481 0.500000 0.064705
v -0.250000 -0.500000 0.000000
v -0.241481 -0.500000 0.064705
v -0.250000 0.290000 -0.000000
v -0.241481 0.500000 0.064705
v -0.216506 0.290000 0.125000
v -0.216506 0.500000 0.125000
v -0.241481 -0.500000 0.064705
v -0.241481 0.290000 0.064705
v -0.216506 -0.500000 0.125000
v -0.216506 0.500000 0.125000
v -0.176777 0.290000 0.176777
v -0.176777 0.500000 0.176777
v -0.216506 -0.500000 0.125000
v -0.216506 0.290000 0.125000
v -0.176777 -0.500000 0.176777
v -0.125000 0.281560 0.216506
v -0.176777 -0.500000 0.176777
v -0.125000 -0.500000 0.216506
v -0.176777 0.290000 0.176777
v -0.125000 0.500000 0.216506
v -0.176777 0.500000 0.176777
v -0.064705 0.276121 0.241481
v -0.125000 -0.500000 0.216506
v -0.064705 -0.500000 0.241481
v -0.125000 0.281560 0.216506
v -0.064705 0.500000 0.241481
v -0.125000 0.500000 0.216506
v 0.000000 0.275000 0.250000
v -0.064705 -0.500000 0.241481
v 0.000000 -0.500000 0.250000
v -0.064705 0.276121 0.241481
v 0.000000 0.500000 0.250000
v -0.064705 0.500000 0.241481
v 0.064705 0.276121 0.241481
v 0.000000 -0.500000 0.250000
v 0.064705 -0.500000 0.241481
v 0.000000 0.275000 0.250000
v 0.000000 0.500000 0.250000
v 0.064705 0.500000 0.241481
v 0.125000 0.281560 0.216506
v 0.064705 -0.500000 0.241481
v 0.125000 -0.500000 0.216506
v 0.064705 0.276121 0.241481
v 0.064705 0.500000 0.241481
v 0.125000 0.500000 0.216506
v 0.176777 0.290000 0.176777
v 0.125000 -0.500000 0.216506
v 0.176777 -0.500000 0.176777
v 0.125000 0.281560 0.216506
v 0.125000 0.500000 0.216506
v 0.176777 0.500000 0.176777
v 0.216506 -0.500000 0.125000
v 0.176777 0.290000 0.176777
v 0.176777 -0.500000 0.176777
v 0.216506 0.500000 0.125000
v 0.216506 0.290000 0.125000
v 0.176777 0.500000 0.176777
v 0.241481 -0.500000 0.064705
v 0.216506 0.290000 0.125000
v 0.216506 -0.500000 0.125000
v 0.241481 0.500000 0.064705
v 0.241481 0.290000 0.064705
v 0.216506 0.500000 0.125000
v 0.250000 -0.500000 0.000000
v 0.241481 0.290000 0.064705
v 0.241481 -0.500000 0.064705
v 0.250000 0.500000 -0.000000
v 0.241481 0.500000 0.064705
v 0.250000 0.290000 -0.000000
v 0.241481 -0.500000 -0.064705
v 0.250000 0.290000 -0.000000
v 0.250000 -0.500000 0.000000
v 0.250000 0.500000 -0.000000
v 0.241481 0.290000 -0.064705
v 0.241481 0.500000 -0.064705
v 0.216506 -0.500000 -0.125000
v 0.216506 0.290000 -0.125000
v 0.241481 -0.500000 -0.064705
v 0.241481 0.290000 -0.064705
v 0.216506 0.500000 -0.125000
v 0.241481 0.500000 -0.064705
v 0.216506 -0.500000 -0.125000
v 0.216506 0.500000 -0.125000
v 0.216506 0.290000 -0.125000
v 0.176777 0.500000 -0.176777
v 0.176777 0.290000 -0.176777
v 0.176777 -0.500000 -0.176777
v 0.125000 0.281560 -0.216506
v 0.176777 -0.500000 -0.176777
v 0.125000 -0.500000 -0.216506
v 0.176777 0.290000 -0.176777
v 0.125000 0.500000 -0.216506
v 0.176777 0.500000 -0.176777
v 0.064705 0.276121 -0.241481
v 0.125000 -0.500000 -0.216506
v 0.064705 -0.500000 -0.241481
v 0.125000 0.281560 -0.216506
v 0.064705 0.500000 -0.241481
v 0.125000 0.500000 -0.216506
v 0.000000 0.275000 -0.250000
v 0.064705 -0.500000 -0.241481
v 0.000000 -0.500000 -0.250000
v 0.064705 0.276121 -0.241481
v 0.000000 0.500000 -0.250000
v 0.064705 0.500000 -0.241481
v -0.064705 0.276121 -0.241481
v 0.000000 -0.500000 -0.250000
v -0.064705 -0.500000 -0.241481
v 0.000000 0.275000 -0.250000
v 0.000000 0.500000 -0.250000
v -0.064705 0.500000 -0.241481
v -0.125000 0.281560 -0.216506
v -0.064705 -0.500000 -0.241481
v -0.125000 -0.500000 -0.216506
v -0.064705 0.276121 -0.241481
v -0.064705 0.500000 -0.241481
v -0.125000 0.500000 -0.216506
v -0.176777 0.290000 -0.176777
v -0.125000 -0.500000 -0.216506
v -0.176777 -0.500000 -0.176777
v -0.125000 0.281560 -0.216506
v -0.125000 0.500000 -0.216506
v -0.176777 0.500000 -0.176777
v -0.176777 0.500000 -0.176777
v -0.176777 0.290000 -0.176777
v -0.216506 0.500000 -0.125000
v -0.216506 -0.500000 -0.125000
v -0.216506 0.290000 -0.125000
v -0.176777 -0.500000 -0.176777
v -0.216506 0.500000 -0.125000
v -0.216506 0.290000 -0.125000
v -0.241481 0.500000 -0.064705
v -0.241481 -0.500000 -0.064705
v -0.241481 0.290000 -0.064705
v -0.216506 -0.500000 -0.125000
vn -0.0000 1.0000 -0.0000
vn -0.9914 -0.0000 -0.1305
vn -0.9914 -0.0000 0.1305
vn -0.9239 -0.0000 0.3827
vn -0.7934 -0.0000 0.6088
vn -1.0000 -0.0000 -0.0000
vn -0.6088 -0.0000 0.7934
vn -0.3827 -0.0000 0.9239
vn -0.1305 -0.0000 0.9914
vn 0.1305 -0.0000 0.9914
vn 0.3827 -0.0000 0.9239
vn 0.6088 -0.0000 0.7934
vn 0.7934 -0.0000 0.6088
vn -0.0000 -0.0000 1.0000
vn 0.9239 -0.0000 0.3827
vn 0.9914 -0.0000 0.1305
vn 0.9914 -0.0000 -0.1305
vn 0.9239 -0.0000 -0.3827
vn 1.0000 -0.0000 -0.0000
vn 0.7934 -0.0000 -0.6088
vn 0.6088 -0.0000 -0.7934
vn 0.3827 -0.0000 -0.9239
vn 0.1305 -0.0000 -0.9914
vn -0.1305 -0.0000 -0.9914
vn -0.3827 -0.0000 -0.9239
vn -0.6088 -0.0000 -0.7934
vn -0.7934 -0.0000 -0.6088
vn -0.9239 -0.0000 -0.3827
vt 0.153541 0.017041
vt 0.049962 0.096520
vt 0.096520 0.049963
vt 0.217140 0.000000
vt 0.017041 0.153541
vt 0.282983 0.000000
vt 0.000000 0.217140
vt 0.346582 0.017041
vt 0.000000 0.282983
vt 0.403603 0.049962
vt 0.017041 0.346582
vt 0.450160 0.096520
vt 0.049963 0.403603
vt 0.483082 0.153541
vt 0.096520 0.450161
vt 0.500123 0.217140
vt 0.153541 0.483082
vt 0.500123 0.282983
vt 0.217140 0.500123
vt 0.483082 0.346582
vt 0.282983 0.500123
vt 0.450161 0.403603
vt 0.346582 0.483082
vt 0.403603 0.450160
vt 0.631808 1.008877
vt 0.697650 0.797013
vt 0.697650 1.008877
vt 0.697651 0.000000
vt 0.631808 0.797013
vt 0.631808 0.000000
vt 0.954958 1.008877
vt 1.501660 0.000000
vt 1.018557 0.797013
vt 1.018557 1.008877
vt 0.954958 0.000000
vt 1.501660 1.008877
vt 1.018557 0.000000
vt 1.501660 0.211864
vt 0.114043 1.509000
vt 1.501660 0.000000
vt 0.171064 1.297136
vt 0.171064 1.509000
vt 1.501660 1.008877
vt 0.114043 0.500123
vt 1.501660 0.211864
vt 0.171064 0.500123
vt 0.275177 1.509000
vt 0.114043 0.500123
vt 0.321735 1.297136
vt 0.321735 1.509000
vt 0.114043 0.500123
vt 0.275177 0.500123
vt 0.114043 0.500123
vt 0.321735 0.500123
vt 1.444639 0.788498
vt 1.387618 0.000000
vt 1.444639 0.000000
vt 1.387618 0.797013
vt 1.444639 1.008877
vt 1.387617 1.008877
vt 1.082156 0.783011
vt 1.018557 0.000000
vt 1.082156 0.000000
vt 1.018557 0.788498
vt 1.082156 1.008877
vt 1.018557 1.008877
vt 0.565965 0.781880
vt 0.500123 0.000000
vt 0.565965 0.000000
vt 0.500123 0.783011
vt 0.565965 1.008877
vt 0.500123 1.008877
vt 0.891359 0.783011
vt 0.827760 0.000000
vt 0.891359 0.000000
vt 0.827760 0.781880
vt 0.827760 1.008877
vt 0.891359 1.008877
vt 1.501660 0.788498
vt 1.444639 0.000000
vt 1.501660 0.000000
vt 1.444639 0.783011
vt 1.444639 1.008877
vt 1.501660 1.008877
vt 0.414850 1.297136
vt 0.368293 0.500123
vt 0.414850 0.500123
vt 0.368293 1.288621
vt 0.368293 1.509000
vt 0.414850 1.509000
vt 0.226443 0.500123
vt 0.114043 0.500123
vt 0.171064 1.297136
vt 0.171064 0.500123
vt 0.114043 0.500123
vt 0.226443 1.509000
vt 0.114043 0.500123
vt 0.171064 1.509000
vt 1.272063 0.000000
vt 1.209354 0.797013
vt 1.209354 0.000000
vt 1.272063 1.008877
vt 1.272063 0.797013
vt 1.209354 1.008877
vt 0.763418 0.000000
vt 0.697651 0.797013
vt 0.697651 0.000000
vt 0.763417 1.008877
vt 0.697651 1.008877
vt 0.763417 0.797013
vt 0.827760 0.000000
vt 0.763417 0.797013
vt 0.763418 0.000000
vt 0.763417 1.008877
vt 0.827760 0.797013
vt 0.827760 1.008877
vt 1.330596 0.000000
vt 1.330596 0.797013
vt 1.272063 0.000000
vt 1.272063 0.797013
vt 1.330596 1.008877
vt 1.272063 1.008877
vt 0.114043 0.500123
vt 0.226443 0.500123
vt 0.114043 0.500123
vt 0.226443 1.509000
vt 0.114043 0.500123
vt 0.275177 1.509000
vt 0.275177 1.297136
vt 0.275177 0.500123
vt 1.387617 0.788498
vt 1.330596 0.000000
vt 1.387617 0.000000
vt 1.330596 0.797013
vt 1.387617 1.008877
vt 1.330596 1.008877
vt 1.145755 0.783011
vt 1.082156 0.000000
vt 1.145755 0.000000
vt 1.082156 0.788498
vt 1.145755 1.008877
vt 1.082156 1.008877
vt 0.631808 0.781880
vt 0.565966 0.000000
vt 0.631808 0.000000
vt 0.565966 0.783011
vt 0.631808 1.008877
vt 0.565965 1.008877
vt 0.954958 0.783011
vt 0.891359 0.000000
vt 0.954958 0.000000
vt 0.891359 0.781880
vt 0.891359 1.008877
vt 0.954958 1.008877
vt 0.057021 1.288621
vt 0.000000 0.500123
vt 0.057021 0.500123
vt 0.000000 1.283134
vt 0.000000 1.509000
vt 0.057021 1.509000
vt 0.368293 1.297136
vt 0.321735 0.500123
vt 0.368293 0.500123
vt 0.321735 1.288621
vt 0.321735 1.509000
vt 0.368293 1.509000
vt 0.057021 1.509000
vt 0.057021 1.297136
vt 0.114043 0.500123
vt 0.114043 1.509000
vt 0.114043 0.500123
vt 0.114043 0.500123
vt 0.057021 0.500123
vt 1.145755 1.008877
vt 1.145755 0.797013
vt 1.501660 0.000000
vt 1.209354 1.008877
vt 1.501660 1.008877
vt 1.209354 0.000000
vt 1.501660 0.211864
vt 1.145755 0.000000
s 0
usemtl material.002
f 25/1/2 26/2/2 27/3/2
f 26/2/2 25/1/2 28/4/2
f 26/2/2 28/4/2 29/5/2
f 29/5/2 28/4/2 30/6/2
f 29/5/2 30/6/2 31/7/2
f 31/7/2 30/6/2 32/8/2
f 31/7/2 32/8/2 33/9/2
f 33/9/2 32/8/2 34/10/2
f 33/9/2 34/10/2 35/11/2
f 35/11/2 34/10/2 36/12/2
f 35/11/2 36/12/2 37/13/2
f 37/13/2 36/12/2 38/14/2
f 37/13/2 38/14/2 39/15/2
f 39/15/2 38/14/2 40/16/2
f 39/15/2 40/16/2 41/17/2
f 41/17/2 40/16/2 42/18/2
f 41/17/2 42/18/2 43/19/2
f 43/19/2 42/18/2 44/20/2
f 43/19/2 44/20/2 45/21/2
f 45/21/2 44/20/2 46/22/2
f 45/21/2 46/22/2 47/23/2
f 47/23/2 46/22/2 48/24/2
f 49/25/3 50/26/3 51/27/3
f 50/26/3 49/25/3 52/28/3
f 52/28/3 49/25/3 53/29/3
f 54/30/3 52/28/3 53/29/3
f 55/31/4 56/33/4 57/34/4
f 56/33/4 58/35/4 59/37/4
f 58/35/4 56/33/4 55/31/4
f 58/36/4 55/32/4 60/38/4
f 61/39/5 62/41/5 63/42/5
f 62/41/5 61/39/5 64/44/5
f 64/43/5 61/40/5 65/45/5
f 64/44/5 66/46/5 62/41/5
f 67/47/6 68/49/6 69/50/6
f 68/49/6 67/47/6 70/52/6
f 70/51/7 67/48/7 71/53/7
f 70/52/6 72/54/6 68/49/6
f 73/55/8 74/56/8 75/57/8
f 74/56/8 73/55/8 76/58/8
f 76/58/8 73/55/8 77/59/8
f 76/58/8 77/59/8 78/60/8
f 79/61/9 80/62/9 81/63/9
f 80/62/9 79/61/9 82/64/9
f 82/64/9 79/61/9 83/65/9
f 82/64/9 83/65/9 84/66/9
f 85/67/10 86/68/10 87/69/10
f 86/68/10 85/67/10 88/70/10
f 88/70/10 85/67/10 89/71/10
f 88/70/10 89/71/10 90/72/10
f 91/73/11 92/74/11 93/75/11
f 92/74/11 91/73/11 94/76/11
f 94/76/11 91/73/11 95/77/11
f 95/77/11 91/73/11 96/78/11
f 97/79/12 98/80/12 99/81/12
f 98/80/12 97/79/12 100/82/12
f 100/82/12 97/79/12 101/83/12
f 101/83/12 97/79/12 102/84/12
f 103/85/13 104/86/13 105/87/13
f 104/86/13 103/85/13 106/88/13
f 106/88/13 103/85/13 107/89/13
f 107/89/13 103/85/13 108/90/13
f 109/91/14 110/93/14 111/94/14
f 110/93/14 109/91/14 112/96/14
f 112/95/15 109/92/15 113/97/15
f 112/96/14 114/98/14 110/93/14
f 115/99/16 116/100/16 117/101/16
f 116/100/16 115/99/16 118/102/16
f 118/102/16 115/99/16 119/103/16
f 118/102/16 120/104/16 116/100/16
f 121/105/17 122/106/17 123/107/17
f 122/106/17 124/108/17 125/109/17
f 124/108/17 122/106/17 121/105/17
f 124/108/17 121/105/17 126/110/17
f 127/111/18 128/112/18 129/113/18
f 128/112/18 127/111/18 130/114/18
f 130/114/18 127/111/18 131/115/18
f 130/114/18 131/115/18 132/116/18
f 133/117/19 134/118/19 135/119/19
f 136/120/19 137/121/19 138/122/19
f 137/121/19 136/120/19 135/119/19
f 137/121/19 135/119/19 134/118/19
f 139/123/20 140/125/20 141/127/20
f 140/126/21 139/124/21 142/128/21
f 142/128/21 139/124/21 143/129/21
f 143/129/21 139/124/21 144/130/21
f 145/131/22 146/132/22 147/133/22
f 146/132/22 145/131/22 148/134/22
f 148/134/22 145/131/22 149/135/22
f 148/134/22 149/135/22 150/136/22
f 151/137/23 152/138/23 153/139/23
f 152/138/23 151/137/23 154/140/23
f 154/140/23 151/137/23 155/141/23
f 154/140/23 155/141/23 156/142/23
f 157/143/24 158/144/24 159/145/24
f 158/144/24 157/143/24 160/146/24
f 160/146/24 157/143/24 161/147/24
f 160/146/24 161/147/24 162/148/24
f 163/149/25 164/150/25 165/151/25
f 164/150/25 163/149/25 166/152/25
f 166/152/25 163/149/25 167/153/25
f 167/153/25 163/149/25 168/154/25
f 169/155/26 170/156/26 171/157/26
f 170/156/26 169/155/26 172/158/26
f 172/158/26 169/155/26 173/159/26
f 173/159/26 169/155/26 174/160/26
f 175/161/27 176/162/27 177/163/27
f 176/162/27 175/161/27 178/164/27
f 178/164/27 175/161/27 179/165/27
f 179/165/27 175/161/27 180/166/27
f 181/167/28 182/168/28 183/170/28
f 183/169/15 184/171/15 185/172/15
f 184/171/28 183/170/28 186/173/28
f 186/173/28 183/170/28 182/168/28
f 187/174/29 188/175/29 189/177/29
f 189/176/29 190/178/29 191/180/29
f 190/179/29 189/177/29 192/181/29
f 192/181/29 189/177/29 188/175/29
