g top
v -0.750000 -0.5 0.750000
v -0.750000 -0.5 -0.750000
v 0.750000 -0.5 -0.750000
v 0.750000 -0.5 0.750000
v -0.500000 -0.375 0.500000
v -0.500000 -0.375 -0.500000
v 0.500000 -0.375 -0.500000
v 0.500000 -0.375 0.500000
vt 0 0
vt 0 1
vt 1 1
vt 1 0
vt 0.75 0.75
vt 0.75 2.25
vt 2.25 2.25
vt 2.25 0.75
vn 0.0000 1.0000 0.0000
vn 0.0000 -1.0000 0.0000
vn -1.0000 0.0000 0.0000
vn 0.0000 0.0000 -1.0000
vn 1.0000 0.0000 0.0000
vn 0.0000 0.0000 1.0000
s off
f 8/2/1 7/1/1 6/4/1 5/3/1
g bottom
s off
f 1/8/2 2/7/2 3/6/2 4/5/2
g right
s off
f 5/3/3 6/2/3 2/1/3 1/4/3
g left
s off
f 4/1/5 3/4/5 7/3/5 8/2/5
g back
s off
f 1/1/6 4/4/6 8/3/6 5/2/6
g front
s off
f 6/3/4 7/2/4 3/1/4 2/4/4
