# Blender v2.81 (sub 16) OBJ File: 'portach.blend'
# www.blender.org
mtllib porta_2.mtl
o Cylinder_Cylinder_door
v 0.501057 1.374531 0.369393
v 0.376121 1.374531 0.368651
v 0.380577 1.374531 -0.381086
v 0.505512 1.374531 -0.380343
v 0.500315 -0.374531 0.494266
v 0.500315 -0.499500 0.494266
v 0.506255 -0.499500 -0.505216
v 0.506255 -0.374531 -0.505216
v 0.505513 -0.374531 -0.380343
v 0.506255 1.374531 -0.505216
v 0.501057 0.374969 0.369393
v 0.501057 -0.374531 0.369393
v 0.505513 0.374969 -0.380343
v 0.500315 1.374531 0.494266
v 0.506255 1.499500 -0.505216
v 0.500315 1.499500 0.494266
v 0.381319 -0.374531 -0.505959
v 0.381319 -0.499500 -0.505959
v 0.375379 -0.499500 0.493524
v 0.375379 -0.374531 0.493524
v 0.380577 -0.374531 -0.381086
v 0.381319 1.374531 -0.505959
v 0.375379 1.374531 0.493524
v 0.375379 1.499500 0.493524
v 0.381319 1.499500 -0.505959
v 0.376121 -0.374531 0.368651
v 0.380577 0.374969 -0.381086
v 0.376121 0.374969 0.368651
v 0.496540 0.477433 -0.328404
v 0.492702 0.477433 0.317351
v 0.388932 0.477433 -0.329043
v 0.385094 0.477433 0.316711
v 0.376023 0.583666 0.369220
v 0.380485 0.583666 -0.381657
v 0.382264 0.688498 0.333091
v 0.386297 0.688498 -0.345455
v 0.505611 0.583666 -0.380913
v 0.501148 0.583666 0.369964
v 0.495336 0.688498 0.333763
v 0.499369 0.688498 -0.344783
v 0.506038 0.809795 -0.383382
v 0.501546 0.809795 0.372438
v 0.380088 0.809795 -0.384131
v 0.375596 0.809795 0.371690
v 0.385737 0.942985 0.312988
v 0.389530 0.942985 -0.325313
v 0.495897 0.942985 -0.324681
v 0.380977 1.084105 -0.378595
v 0.505083 1.084105 -0.377857
v 0.492103 0.942985 0.313620
v 0.500657 1.084105 0.366902
v 0.493482 1.214593 -0.310710
v 0.489855 1.214593 0.299621
v 0.376551 1.084105 0.366164
v 0.391777 1.214593 -0.311314
v 0.388150 1.214593 0.299017
v 0.376319 1.364783 0.367508
v 0.380761 1.364783 -0.379941
v 0.500872 1.364783 0.368248
v 0.505315 1.364783 -0.379201
vt 0.765600 0.312500
vt 0.828100 0.312500
vt 0.828100 0.687500
vt 0.765600 0.687500
vt 0.078100 0.062500
vt 0.078100 0.000000
vt 0.578100 0.000000
vt 0.578100 0.062500
vt 0.515600 0.937500
vt 0.515600 0.062500
vt 0.578100 0.937500
vt 0.139370 0.432578
vt 0.140600 0.062500
vt 0.514370 0.432578
vt 0.140600 0.937500
vt 0.078100 0.937500
vt 0.578100 1.000000
vt 0.078100 1.000000
vt 0.578100 0.062500
vt 0.578100 0.000000
vt 0.078100 0.000000
vt 0.078100 0.062500
vt 0.515600 0.062500
vt 0.515600 0.937500
vt 0.578100 0.937500
vt 0.078100 0.937500
vt 0.078100 1.000000
vt 0.578100 1.000000
vt 0.140600 0.937500
vt 0.140600 0.062500
vt 0.515600 0.434570
vt 0.140600 0.434570
vt 0.765600 0.250000
vt 0.828100 0.250000
vt 0.828100 0.750000
vt 0.765600 0.750000
vt 0.734400 0.250000
vt 0.734400 0.750000
vt 0.671900 0.750000
vt 0.671900 0.250000
vt 0.640600 0.000000
vt 0.640600 1.000000
vt 0.015600 1.000000
vt 0.015600 0.000000
vt 0.513913 0.424735
vt 0.145126 0.423803
vt 0.146468 0.481171
vt 0.515248 0.482094
vt 0.640600 0.937500
vt 0.578100 0.937500
vt 0.578100 0.437500
vt 0.640600 0.437500
vt 0.078100 0.937500
vt 0.015600 0.937500
vt 0.015600 0.437500
vt 0.078100 0.437500
vt 0.510549 0.480041
vt 0.142052 0.479793
vt 0.143120 0.533620
vt 0.510451 0.534172
vt 0.142036 0.423741
vt 0.512720 0.421533
vt 0.512306 0.473293
vt 0.142168 0.474238
vt 0.578100 0.437500
vt 0.640600 0.437500
vt 0.015600 0.437500
vt 0.078100 0.437500
vt 0.143704 0.533449
vt 0.142636 0.589351
vt 0.510481 0.588837
vt 0.015600 0.437500
vt 0.078100 0.437500
vt 0.513750 0.484857
vt 0.146520 0.483056
vt 0.146393 0.545056
vt 0.515166 0.548414
vt 0.578100 0.437500
vt 0.640600 0.437500
vt 0.516605 0.683281
vt 0.146274 0.681465
vt 0.144637 0.610156
vt 0.514729 0.611870
vt 0.015600 0.437500
vt 0.078100 0.437500
vt 0.515166 0.545314
vt 0.146393 0.541955
vt 0.143174 0.608606
vt 0.513505 0.610422
vt 0.578100 0.437500
vt 0.640600 0.437500
vt 0.508838 0.653925
vt 0.145390 0.654775
vt 0.145737 0.704947
vt 0.508838 0.704567
vt 0.578100 0.437500
vt 0.640600 0.437500
vt 0.509132 0.589557
vt 0.144282 0.588527
vt 0.144289 0.647750
vt 0.509070 0.647629
vt 0.015600 0.437500
vt 0.078100 0.437500
vt 0.078100 0.437500
vt 0.015600 0.437500
vt 0.015600 0.437500
vt 0.078100 0.437500
vt 0.513179 0.814946
vt 0.143087 0.813231
vt 0.144518 0.752781
vt 0.513538 0.754691
vt 0.578100 0.437500
vt 0.640600 0.437500
vt 0.513220 0.819698
vt 0.144439 0.817889
vt 0.144352 0.870604
vt 0.511582 0.872404
vt 0.578100 0.437500
vt 0.640600 0.437500
vt 0.510103 0.776309
vt 0.143299 0.776233
vt 0.143299 0.711926
vt 0.510218 0.712042
vt 0.512130 0.861589
vt 0.146125 0.862082
vt 0.144757 0.924323
vt 0.512438 0.922460
vt 0.578100 0.437500
vt 0.640600 0.437500
vt 0.513212 0.787771
vt 0.142432 0.787771
vt 0.143662 0.835730
vt 0.514443 0.835730
vt 0.015600 0.437500
vt 0.078100 0.437500
vt 0.734400 0.312500
vt 0.734400 0.687500
vt 0.671900 0.687500
vt 0.671900 0.312500
vt 0.015600 0.437500
vt 0.078100 0.437500
vt 0.144280 0.918652
vt 0.513061 0.920460
vt 0.578100 0.437500
vt 0.640600 0.437500
vn 0.0000 -1.0000 -0.0000
vn 1.0000 0.0000 0.0059
vn -1.0000 -0.0000 -0.0059
vn -0.0000 1.0000 0.0000
vn 0.0059 -0.0000 -1.0000
vn -0.0059 0.0000 1.0000
vn 0.5766 0.4069 0.7085
vn 0.5850 0.4069 -0.7016
vn 0.7645 0.3435 -0.5455
vn 0.7580 0.3435 0.5545
vn -0.7575 -0.3371 -0.5591
vn -0.7641 -0.3371 0.5501
vn -0.5886 -0.3981 0.7036
vn -0.5802 -0.3981 -0.7106
vn -0.5766 0.4069 -0.7085
vn -0.5850 0.4069 0.7016
vn -0.7645 0.3435 0.5455
vn -0.7580 0.3435 -0.5545
vn -0.6216 0.2862 -0.7291
vn -0.6303 0.2862 0.7217
vn -0.7558 0.2531 0.6039
vn -0.7486 0.2531 -0.6128
vn 0.7641 -0.3371 -0.5501
vn 0.5886 -0.3981 -0.7036
vn 0.7575 -0.3371 0.5591
vn 0.5802 -0.3981 0.7106
vn 0.7464 -0.2366 0.6221
vn 0.7537 -0.2366 -0.6131
vn 0.6374 -0.2653 -0.7234
vn 0.6288 -0.2653 0.7310
vn 0.6303 0.2862 -0.7217
vn 0.7558 0.2531 -0.6039
vn 0.6216 0.2862 0.7291
vn 0.7486 0.2531 0.6128
vn -0.5952 0.3596 -0.7187
vn -0.6037 0.3596 0.7115
vn -0.7617 0.3090 0.5695
vn -0.7549 0.3090 -0.5785
vn -0.7537 -0.2366 0.6132
vn -0.6374 -0.2653 0.7234
vn -0.7464 -0.2366 -0.6221
vn -0.6288 -0.2653 -0.7310
vn 0.7581 -0.2726 -0.5925
vn -0.7510 -0.2726 -0.6015
vn -0.6129 -0.3114 -0.7263
vn 0.6215 -0.3114 -0.7189
vn 0.6037 0.3596 -0.7115
vn 0.7617 0.3090 -0.5695
vn 0.5952 0.3596 0.7187
vn 0.7549 0.3090 0.5785
vn 0.5745 0.4122 0.7072
vn 0.5829 0.4122 -0.7003
vn 0.7648 0.3473 -0.5427
vn 0.7583 0.3473 0.5518
vn 0.7510 -0.2726 0.6015
vn 0.6129 -0.3114 0.7263
vn -0.7581 -0.2726 0.5925
vn -0.6215 -0.3114 0.7189
vn -0.7557 -0.3172 -0.5729
vn -0.7625 -0.3172 0.5639
vn -0.5994 -0.3707 0.7094
vn -0.5909 -0.3707 -0.7165
vn -0.5829 0.4122 0.7003
vn -0.7648 0.3473 0.5427
vn -0.5745 0.4122 -0.7072
vn -0.7583 0.3473 -0.5518
vn 0.7625 -0.3172 -0.5639
vn 0.5994 -0.3707 -0.7094
vn 0.7557 -0.3172 0.5729
vn 0.5909 -0.3707 0.7165
usemtl None
s 1
f 1/1/1 2/2/1 3/3/1 4/4/1
f 5/5/2 6/6/2 7/7/2 8/8/2
f 4/9/2 9/10/2 8/8/2 10/11/2
f 11/12/2 12/13/2 9/10/2 13/14/2
f 5/5/2 12/13/2 1/15/2 14/16/2
f 14/16/2 10/11/2 15/17/2 16/18/2
f 17/19/3 18/20/3 19/21/3 20/22/3
f 17/19/3 21/23/3 3/24/3 22/25/3
f 22/25/3 23/26/3 24/27/3 25/28/3
f 2/29/3 26/30/3 20/22/3 23/26/3
f 27/31/3 21/23/3 26/30/3 28/32/3
f 6/33/1 19/34/1 18/35/1 7/36/1
f 16/37/4 15/38/4 25/39/4 24/40/4
f 15/17/5 7/7/5 18/41/5 25/42/5
f 6/6/6 16/18/6 24/43/6 19/44/6
f 11/45/7 13/46/8 29/47/9 30/48/10
f 2/49/5 1/50/5 11/51/5 28/52/5
f 4/53/6 3/54/6 27/55/6 13/56/6
f 31/57/11 32/58/12 33/59/13 34/60/14
f 27/61/15 28/62/16 32/63/17 31/64/18
f 28/52/16 11/51/7 30/65/10 32/66/17
f 13/56/8 27/55/15 31/67/18 29/68/9
f 34/60/19 33/69/20 35/70/21 36/71/22
f 29/68/23 31/67/11 34/72/14 37/73/24
f 30/74/25 29/75/23 37/76/24 38/77/26
f 32/66/12 30/65/25 38/78/26 33/79/13
f 39/80/27 40/81/28 41/82/29 42/83/30
f 37/73/31 34/72/19 36/84/22 40/85/32
f 38/86/33 37/87/31 40/88/32 39/89/34
f 33/79/20 38/78/33 39/90/34 35/91/21
f 43/92/35 44/93/36 45/94/37 46/95/38
f 35/91/39 39/90/27 42/96/30 44/97/40
f 36/98/41 35/99/39 44/100/40 43/101/42
f 40/85/28 36/84/41 43/102/42 41/103/29
f 47/104/43 46/105/44 48/106/45 49/107/46
f 41/103/47 43/102/35 46/105/38 47/104/48
f 42/108/49 41/109/47 47/110/48 50/111/50
f 44/97/36 42/96/49 50/112/50 45/113/37
f 51/114/51 49/115/52 52/116/53 53/117/54
f 50/111/55 47/110/43 49/115/46 51/114/56
f 45/113/57 50/112/55 51/118/56 54/119/58
f 46/120/44 45/121/57 54/122/58 48/123/45
f 55/124/59 56/125/60 57/126/61 58/127/62
f 54/119/63 51/118/51 53/128/54 56/129/64
f 48/130/65 54/131/63 56/132/64 55/133/66
f 49/107/52 48/106/65 55/134/66 52/135/53
f 59/136/4 60/137/4 58/138/4 57/139/4
f 52/135/67 55/134/59 58/140/62 60/141/68
f 53/117/69 52/116/67 60/142/68 59/143/70
f 56/129/60 53/128/69 59/144/70 57/145/61
