# Blender v2.81 (sub 16) OBJ File: 'porta.blend'
# www.blender.org
mtllib porta.mtl
o Cylinder_Cylinder_door
v 0.374875 1.374531 0.375031
v 0.374875 1.374531 0.499969
v -0.374875 1.374531 0.499969
v -0.374875 1.374531 0.375031
v 0.499750 -0.374531 0.375031
v 0.499750 -0.499500 0.375031
v -0.499750 -0.499500 0.375031
v -0.499750 -0.374531 0.375031
v -0.374875 -0.374531 0.375031
v -0.499750 1.374531 0.375031
v 0.374875 0.374969 0.375031
v 0.374875 -0.374531 0.375031
v -0.374875 0.374969 0.375031
v 0.499750 1.374531 0.375031
v -0.499750 1.499500 0.375031
v 0.499750 1.499500 0.375031
v -0.499750 -0.374531 0.499969
v -0.499750 -0.499500 0.499969
v 0.499750 -0.499500 0.499969
v 0.499750 -0.374531 0.499969
v -0.374875 -0.374531 0.499969
v -0.499750 1.374531 0.499969
v 0.499750 1.374531 0.499969
v 0.499750 1.499500 0.499969
v -0.499750 1.499500 0.499969
v 0.374875 -0.374531 0.499969
v -0.374875 0.374969 0.499969
v 0.374875 0.374969 0.499969
v -0.322883 0.477433 0.383695
v 0.322883 0.477433 0.383695
v -0.322883 0.477433 0.491305
v 0.322883 0.477433 0.491305
v 0.375445 0.583666 0.500064
v -0.375445 0.583666 0.500064
v 0.339279 0.688498 0.494037
v -0.339279 0.688498 0.494037
v -0.375445 0.583666 0.374936
v 0.375445 0.583666 0.374936
v 0.339279 0.688498 0.380963
v -0.339279 0.688498 0.380963
v -0.377917 0.809795 0.374524
v 0.377917 0.809795 0.374524
v -0.377917 0.809795 0.500476
v 0.377917 0.809795 0.500476
v 0.319156 0.942985 0.490684
v -0.319156 0.942985 0.490684
v -0.319156 0.942985 0.384316
v -0.372386 1.084105 0.499554
v -0.372386 1.084105 0.375446
v 0.319156 0.942985 0.384316
v 0.372386 1.084105 0.375446
v -0.305171 1.214593 0.386647
v 0.305171 1.214593 0.386647
v 0.372386 1.084105 0.499554
v -0.305171 1.214593 0.488354
v 0.305171 1.214593 0.488354
v 0.373731 1.364783 0.499778
v -0.373731 1.364783 0.499778
v 0.373731 1.364783 0.375222
v -0.373731 1.364783 0.375222
vt 0.765600 0.312500
vt 0.828100 0.312500
vt 0.828100 0.687500
vt 0.765600 0.687500
vt 0.078100 0.062500
vt 0.078100 0.000000
vt 0.578100 0.000000
vt 0.578100 0.062500
vt 0.515600 0.937500
vt 0.515600 0.062500
vt 0.578100 0.937500
vt 0.139370 0.432578
vt 0.140600 0.062500
vt 0.514370 0.432578
vt 0.140600 0.937500
vt 0.078100 0.937500
vt 0.578100 1.000000
vt 0.078100 1.000000
vt 0.578100 0.062500
vt 0.578100 0.000000
vt 0.078100 0.000000
vt 0.078100 0.062500
vt 0.515600 0.062500
vt 0.515600 0.937500
vt 0.578100 0.937500
vt 0.078100 0.937500
vt 0.078100 1.000000
vt 0.578100 1.000000
vt 0.140600 0.937500
vt 0.140600 0.062500
vt 0.515600 0.434570
vt 0.140600 0.434570
vt 0.765600 0.250000
vt 0.828100 0.250000
vt 0.828100 0.750000
vt 0.765600 0.750000
vt 0.734400 0.250000
vt 0.734400 0.750000
vt 0.671900 0.750000
vt 0.671900 0.250000
vt 0.640600 0.000000
vt 0.640600 1.000000
vt 0.015600 1.000000
vt 0.015600 0.000000
vt 0.513913 0.424735
vt 0.145126 0.423803
vt 0.146468 0.481171
vt 0.515248 0.482094
vt 0.640600 0.937500
vt 0.578100 0.937500
vt 0.578100 0.437500
vt 0.640600 0.437500
vt 0.078100 0.937500
vt 0.015600 0.937500
vt 0.015600 0.437500
vt 0.078100 0.437500
vt 0.510549 0.480041
vt 0.142052 0.479793
vt 0.143120 0.533620
vt 0.510451 0.534172
vt 0.142036 0.423741
vt 0.512720 0.421533
vt 0.512306 0.473293
vt 0.142168 0.474238
vt 0.578100 0.437500
vt 0.640600 0.437500
vt 0.015600 0.437500
vt 0.078100 0.437500
vt 0.143704 0.533449
vt 0.142636 0.589351
vt 0.510481 0.588837
vt 0.015600 0.437500
vt 0.078100 0.437500
vt 0.513750 0.484857
vt 0.146520 0.483056
vt 0.146393 0.545056
vt 0.515166 0.548414
vt 0.578100 0.437500
vt 0.640600 0.437500
vt 0.516605 0.683281
vt 0.146274 0.681465
vt 0.144637 0.610156
vt 0.514729 0.611870
vt 0.015600 0.437500
vt 0.078100 0.437500
vt 0.515166 0.545314
vt 0.146393 0.541955
vt 0.143174 0.608606
vt 0.513505 0.610422
vt 0.578100 0.437500
vt 0.640600 0.437500
vt 0.508838 0.653925
vt 0.145390 0.654775
vt 0.145737 0.704947
vt 0.508838 0.704567
vt 0.578100 0.437500
vt 0.640600 0.437500
vt 0.509132 0.589557
vt 0.144282 0.588527
vt 0.144289 0.647750
vt 0.509070 0.647629
vt 0.015600 0.437500
vt 0.078100 0.437500
vt 0.078100 0.437500
vt 0.015600 0.437500
vt 0.015600 0.437500
vt 0.078100 0.437500
vt 0.513179 0.814946
vt 0.143087 0.813231
vt 0.144518 0.752781
vt 0.513538 0.754691
vt 0.578100 0.437500
vt 0.640600 0.437500
vt 0.513220 0.819698
vt 0.144439 0.817889
vt 0.144352 0.870604
vt 0.511582 0.872404
vt 0.578100 0.437500
vt 0.640600 0.437500
vt 0.510103 0.776309
vt 0.143299 0.776233
vt 0.143299 0.711926
vt 0.510218 0.712042
vt 0.512130 0.861589
vt 0.146125 0.862082
vt 0.144757 0.924323
vt 0.512438 0.922460
vt 0.578100 0.437500
vt 0.640600 0.437500
vt 0.513212 0.787771
vt 0.142432 0.787771
vt 0.143662 0.835730
vt 0.514443 0.835730
vt 0.015600 0.437500
vt 0.078100 0.437500
vt 0.734400 0.312500
vt 0.734400 0.687500
vt 0.671900 0.687500
vt 0.671900 0.312500
vt 0.015600 0.437500
vt 0.078100 0.437500
vt 0.144280 0.918652
vt 0.513061 0.920460
vt 0.578100 0.437500
vt 0.640600 0.437500
vn 0.0000 -1.0000 0.0000
vn 0.0000 0.0000 -1.0000
vn 0.0000 -0.0000 1.0000
vn 0.0000 1.0000 0.0000
vn -1.0000 -0.0000 0.0000
vn 1.0000 -0.0000 0.0000
vn 0.7050 0.4069 -0.5808
vn -0.7050 0.4069 -0.5808
vn -0.5500 0.3435 -0.7613
vn 0.5500 0.3435 -0.7613
vn -0.5546 -0.3371 0.7608
vn 0.5546 -0.3371 0.7608
vn 0.7071 -0.3981 0.5844
vn -0.7071 -0.3981 0.5844
vn -0.7050 0.4069 0.5808
vn 0.7050 0.4069 0.5808
vn 0.5500 0.3435 0.7613
vn -0.5500 0.3435 0.7613
vn -0.7254 0.2862 0.6260
vn 0.7254 0.2862 0.6260
vn 0.6084 0.2531 0.7522
vn -0.6084 0.2531 0.7522
vn -0.5546 -0.3371 -0.7608
vn -0.7071 -0.3981 -0.5844
vn 0.5546 -0.3371 -0.7608
vn 0.7071 -0.3981 -0.5844
vn 0.6176 -0.2366 -0.7501
vn -0.6176 -0.2366 -0.7501
vn -0.7272 -0.2653 -0.6331
vn 0.7272 -0.2653 -0.6331
vn -0.7254 0.2862 -0.6260
vn -0.6084 0.2531 -0.7522
vn 0.7254 0.2862 -0.6260
vn 0.6084 0.2531 -0.7522
vn -0.7151 0.3596 0.5994
vn 0.7151 0.3596 0.5994
vn 0.5740 0.3090 0.7583
vn -0.5740 0.3090 0.7583
vn 0.6176 -0.2366 0.7501
vn 0.7272 -0.2653 0.6331
vn -0.6176 -0.2366 0.7501
vn -0.7272 -0.2653 0.6331
vn -0.5970 -0.2726 -0.7545
vn -0.5970 -0.2726 0.7545
vn -0.7226 -0.3114 0.6172
vn -0.7226 -0.3114 -0.6172
vn -0.7151 0.3596 -0.5994
vn -0.5740 0.3090 -0.7583
vn 0.7151 0.3596 -0.5994
vn 0.5740 0.3090 -0.7583
vn 0.7037 0.4122 -0.5787
vn -0.7037 0.4122 -0.5787
vn -0.5472 0.3473 -0.7615
vn 0.5472 0.3473 -0.7615
vn 0.5970 -0.2726 -0.7545
vn 0.7226 -0.3114 -0.6172
vn 0.5970 -0.2726 0.7545
vn 0.7226 -0.3114 0.6172
vn -0.5684 -0.3172 0.7591
vn 0.5684 -0.3172 0.7591
vn 0.7130 -0.3707 0.5952
vn -0.7130 -0.3707 0.5952
vn 0.7037 0.4122 0.5787
vn 0.5472 0.3473 0.7615
vn -0.7037 0.4122 0.5787
vn -0.5472 0.3473 0.7615
vn -0.5684 -0.3172 -0.7591
vn -0.7130 -0.3707 -0.5952
vn 0.5684 -0.3172 -0.7591
vn 0.7130 -0.3707 -0.5952
usemtl None
s 1
f 1/1/1 2/2/1 3/3/1 4/4/1
f 5/5/2 6/6/2 7/7/2 8/8/2
f 4/9/2 9/10/2 8/8/2 10/11/2
f 11/12/2 12/13/2 9/10/2 13/14/2
f 5/5/2 12/13/2 1/15/2 14/16/2
f 14/16/2 10/11/2 15/17/2 16/18/2
f 17/19/3 18/20/3 19/21/3 20/22/3
f 17/19/3 21/23/3 3/24/3 22/25/3
f 22/25/3 23/26/3 24/27/3 25/28/3
f 2/29/3 26/30/3 20/22/3 23/26/3
f 27/31/3 21/23/3 26/30/3 28/32/3
f 6/33/1 19/34/1 18/35/1 7/36/1
f 16/37/4 15/38/4 25/39/4 24/40/4
f 15/17/5 7/7/5 18/41/5 25/42/5
f 6/6/6 16/18/6 24/43/6 19/44/6
f 11/45/7 13/46/8 29/47/9 30/48/10
f 2/49/5 1/50/5 11/51/5 28/52/5
f 4/53/6 3/54/6 27/55/6 13/56/6
f 31/57/11 32/58/12 33/59/13 34/60/14
f 27/61/15 28/62/16 32/63/17 31/64/18
f 28/52/16 11/51/7 30/65/10 32/66/17
f 13/56/8 27/55/15 31/67/18 29/68/9
f 34/60/19 33/69/20 35/70/21 36/71/22
f 29/68/23 31/67/11 34/72/14 37/73/24
f 30/74/25 29/75/23 37/76/24 38/77/26
f 32/66/12 30/65/25 38/78/26 33/79/13
f 39/80/27 40/81/28 41/82/29 42/83/30
f 37/73/31 34/72/19 36/84/22 40/85/32
f 38/86/33 37/87/31 40/88/32 39/89/34
f 33/79/20 38/78/33 39/90/34 35/91/21
f 43/92/35 44/93/36 45/94/37 46/95/38
f 35/91/39 39/90/27 42/96/30 44/97/40
f 36/98/41 35/99/39 44/100/40 43/101/42
f 40/85/28 36/84/41 43/102/42 41/103/29
f 47/104/43 46/105/44 48/106/45 49/107/46
f 41/103/47 43/102/35 46/105/38 47/104/48
f 42/108/49 41/109/47 47/110/48 50/111/50
f 44/97/36 42/96/49 50/112/50 45/113/37
f 51/114/51 49/115/52 52/116/53 53/117/54
f 50/111/55 47/110/43 49/115/46 51/114/56
f 45/113/57 50/112/55 51/118/56 54/119/58
f 46/120/44 45/121/57 54/122/58 48/123/45
f 55/124/59 56/125/60 57/126/61 58/127/62
f 54/119/63 51/118/51 53/128/54 56/129/64
f 48/130/65 54/131/63 56/132/64 55/133/66
f 49/107/52 48/106/65 55/134/66 52/135/53
f 59/136/4 60/137/4 58/138/4 57/139/4
f 52/135/67 55/134/59 58/140/62 60/141/68
f 53/117/69 52/116/67 60/142/68 59/143/70
f 56/129/60 53/128/69 59/144/70 57/145/61
