# Blender v2.78 (sub 0) OBJ File: 'materassino.blend'
# www.blender.org
mtllib materassino.mtl
o Cube
v -4.406938 0.591907 12.107373
v -4.460165 0.591907 -7.374253
v 4.320054 0.591907 -7.398241
v 4.373278 0.591907 12.083386
v -4.406940 1.928091 12.107371
v -4.460161 1.928091 -7.374256
v 4.320055 1.928091 -7.398241
v 4.373280 1.928091 12.083385
v -4.469936 1.594365 -10.951374
v 4.310281 1.594365 -10.975362
v -4.469934 2.930549 -10.951376
v 4.310283 2.930549 -10.975361
vt 0.6478 0.9161
vt 0.6478 0.1679
vt 0.3106 0.1679
vt 0.3106 0.9161
vt 0.6579 0.9353
vt 0.3098 0.9353
vt 0.3098 0.1628
vt 0.6579 0.1628
vt 0.6533 0.9349
vt 0.6533 0.1624
vt 0.6519 0.0231
vt 0.3065 0.0231
vt 0.3051 0.1624
vt 0.3051 0.9349
vt 0.6576 0.0126
vt 0.3008 0.0126
vt 0.3054 0.0131
vt 0.6623 0.0131
vn 0.0000 -1.0000 0.0000
vn 0.0000 1.0000 0.0000
vn -1.0000 0.0000 0.0027
vn -0.0007 -0.9629 -0.2698
vn 1.0000 -0.0000 -0.0027
vn 0.0027 0.0000 1.0000
vn -0.0027 -0.0000 -1.0000
vn 0.0007 0.9629 0.2698
usemtl Material
s off
f 1/1/1 2/2/1 3/3/1 4/4/1
f 5/5/2 8/6/2 7/7/2 6/8/2
f 1/1/3 5/9/3 6/10/3 2/2/3
f 3/3/4 2/2/4 9/11/4 10/12/4
f 3/3/5 7/13/5 8/14/5 4/4/5
f 5/9/6 1/1/6 4/4/6 8/14/6
f 9/11/7 11/15/7 12/16/7 10/12/7
f 6/8/8 7/7/8 12/17/8 11/18/8
f 7/13/5 3/3/5 10/12/5 12/16/5
f 2/2/3 6/10/3 11/15/3 9/11/3
