# Blender v2.78 (sub 0) OBJ File: 'omb_c.blend'
# www.blender.org
mtllib omb_c.mtl
o Sphere_Sphere.001
v 0.000000 4.787942 0.000000
v -0.075361 1.235264 -0.374767
v -0.147109 1.235264 -0.353002
v -0.213233 1.235264 -0.317658
v -0.271192 1.235264 -0.270093
v -0.318757 1.235264 -0.212135
v -0.354101 1.235264 -0.146011
v -0.375866 1.235264 -0.074262
v -0.383215 1.235264 0.000354
v -0.375866 1.235264 0.074970
v -0.354101 1.235264 0.146719
v -0.318757 1.235264 0.212843
v -0.271192 1.235264 0.270801
v -0.213234 1.235264 0.318366
v -0.147110 1.235264 0.353710
v -0.075361 1.235264 0.375475
v -0.000745 1.235264 0.382824
v 0.073871 1.235264 0.375475
v -0.004406 3.393892 -0.022153
v -0.002430 0.457911 -0.008118
v -0.008643 3.393892 -0.020868
v -0.008643 -0.476119 -0.020868
v -0.012548 3.393892 -0.018780
v -0.012548 -0.476119 -0.018780
v 0.145620 1.235264 0.353710
v 0.211744 1.235264 0.318366
v 0.269702 1.235264 0.270801
v -0.015971 3.393892 -0.015971
v -0.006853 0.457911 -0.005754
v -0.018780 3.393892 -0.012549
v -0.007928 0.457911 -0.004445
v -0.020867 3.393892 -0.008644
v -0.020867 -0.476119 -0.008644
v -0.022152 3.393892 -0.004407
v -0.022152 -0.476119 -0.004407
v -0.022586 3.393892 -0.000000
v -0.022586 -0.476119 -0.000000
v 0.317267 1.235264 0.212843
v 0.352611 1.235264 0.146719
v 0.374376 1.235264 0.074970
v -0.022152 3.393892 0.004406
v -0.009218 0.457911 0.002040
v -0.020867 3.393892 0.008643
v -0.008726 0.457911 0.003660
v -0.018780 3.393892 0.012548
v -0.018780 -0.476119 0.012548
v -0.015971 3.393892 0.015971
v -0.006853 0.457911 0.006463
v -0.012548 3.393892 0.018780
v -0.012548 -0.476119 0.018780
v 0.381725 1.235264 0.000354
v 0.374376 1.235264 -0.074262
v -0.008643 3.393892 0.020867
v -0.008643 -0.476119 0.020867
v -0.004406 3.393892 0.022152
v -0.002430 0.457911 0.008827
v 0.000000 3.393892 0.022586
v -0.000745 0.457911 0.008993
v 0.004406 3.393892 0.022152
v 0.004406 -0.476119 0.022152
v 0.008644 3.393892 0.020867
v 0.008644 -0.476119 0.020867
v 0.352611 1.235264 -0.146011
v 0.317267 1.235264 -0.212135
v 0.269702 1.235264 -0.270093
v 0.012548 3.393892 0.018780
v 0.012548 -0.476119 0.018780
v 0.015971 3.393892 0.015971
v 0.005363 0.457911 0.006463
v 0.018780 3.393892 0.012548
v 0.018780 -0.476119 0.012548
v 0.020867 3.393892 0.008643
v 0.020867 -0.476119 0.008643
v 0.022153 3.393892 0.004406
v 0.007728 0.457911 0.002040
v 0.211744 1.235264 -0.317658
v 0.145620 1.235264 -0.353002
v 0.022587 3.393892 -0.000000
v 0.022587 -0.476119 -0.000000
v 0.022153 3.393892 -0.004407
v 0.022153 -0.476119 -0.004407
v 0.020867 3.393892 -0.008644
v 0.020867 -0.476119 -0.008644
v 0.018780 3.393892 -0.012549
v 0.018780 -0.476119 -0.012549
v 0.015971 3.393892 -0.015971
v 0.015971 -0.476119 -0.015971
v 0.073871 1.235264 -0.374766
v -0.000745 1.235264 -0.382116
v 0.012548 3.393892 -0.018780
v 0.004054 0.457911 -0.006829
v 0.008644 3.393892 -0.020867
v 0.008644 -0.476119 -0.020867
v 0.004406 3.393892 -0.022153
v 0.004406 -0.476119 -0.022153
v 0.000000 3.393892 -0.022587
v 0.000000 -0.476119 -0.022587
v -0.111384 -0.462716 0.111384
v -0.111384 -0.239949 0.111384
v -0.111384 -0.462716 -0.111384
v -0.111384 -0.239949 -0.111384
v 0.111384 -0.462716 0.111384
v 0.111384 -0.239949 0.111384
v 0.111384 -0.462716 -0.111384
v 0.111384 -0.239949 -0.111384
vt 0.4132 0.8932
vt 0.4935 0.4890
vt 0.4970 0.9014
vt 0.3327 0.8688
vt 0.4134 0.8922
vt 0.4970 0.9005
vt 0.5806 0.8922
vt 0.6609 0.8678
vt 0.7350 0.8283
vt 0.7999 0.7750
vt 0.8532 0.7101
vt 0.8928 0.6360
vt 0.9172 0.5556
vt 0.9254 0.4720
vt 0.9172 0.3885
vt 0.8928 0.3081
vt 0.8532 0.2340
vt 0.7999 0.1691
vt 0.7350 0.1158
vt 0.6609 0.0762
vt 0.5806 0.0519
vt 0.4970 0.0436
vt 0.4134 0.0519
vt 0.3330 0.0762
vt 0.2590 0.1158
vt 0.1941 0.1691
vt 0.1408 0.2340
vt 0.1012 0.3081
vt 0.0768 0.3885
vt 0.0686 0.4720
vt 0.0768 0.5556
vt 0.1012 0.6360
vt 0.1408 0.7101
vt 0.1941 0.7750
vt 0.2590 0.8283
vt 0.3330 0.8678
vt 0.2584 0.8291
vt 0.1934 0.7757
vt 0.1400 0.7106
vt 0.1003 0.6364
vt 0.0758 0.5558
vt 0.0676 0.4720
vt 0.0758 0.3883
vt 0.1003 0.3077
vt 0.1400 0.2335
vt 0.1934 0.1684
vt 0.2584 0.1150
vt 0.3327 0.0753
vt 0.4132 0.0509
vt 0.4970 0.0426
vt 0.5808 0.0509
vt 0.4802 0.3400
vt 0.4735 0.3393
vt 0.4671 0.3374
vt 0.4612 0.3342
vt 0.4561 0.3300
vt 0.4518 0.3248
vt 0.4487 0.3189
vt 0.4467 0.3125
vt 0.4461 0.3059
vt 0.4467 0.2992
vt 0.4487 0.2928
vt 0.4518 0.2869
vt 0.4561 0.2818
vt 0.4612 0.2775
vt 0.4671 0.2744
vt 0.4735 0.2724
vt 0.4802 0.2718
vt 0.4868 0.2724
vt 0.4932 0.2744
vt 0.4991 0.2775
vt 0.5043 0.2818
vt 0.5086 0.2869
vt 0.5117 0.2928
vt 0.5136 0.2992
vt 0.5143 0.3059
vt 0.5136 0.3125
vt 0.5117 0.3189
vt 0.5086 0.3248
vt 0.5043 0.3300
vt 0.4991 0.3342
vt 0.4932 0.3374
vt 0.4868 0.3393
vt 0.4996 0.5214
vt 0.5064 0.5747
vt 0.6613 0.0753
vt 0.4984 0.5731
vt 0.5105 0.5743
vt 0.5145 0.5731
vt 0.5063 0.5201
vt 0.5213 0.5686
vt 0.5239 0.5654
vt 0.5258 0.5617
vt 0.5270 0.5578
vt 0.5274 0.5537
vt 0.5101 0.5110
vt 0.5258 0.5457
vt 0.5239 0.5420
vt 0.5076 0.5065
vt 0.5181 0.5363
vt 0.5145 0.5343
vt 0.5105 0.5331
vt 0.5014 0.5039
vt 0.4996 0.5041
vt 0.4984 0.5343
vt 0.4948 0.5363
vt 0.4951 0.5065
vt 0.4890 0.5420
vt 0.4932 0.5094
vt 0.4927 0.5110
vt 0.4854 0.5537
vt 0.4858 0.5578
vt 0.4870 0.5617
vt 0.4940 0.5177
vt 0.4951 0.5190
vt 0.4948 0.5712
vt 0.7356 0.1150
vt 0.5033 0.4791
vt 0.9181 0.3883
vt 0.8937 0.3077
vt 0.9264 0.4720
vt 0.9181 0.5558
vt 0.8937 0.6364
vt 0.8540 0.7106
vt 0.8006 0.7757
vt 0.7356 0.8291
vt 0.6613 0.8688
vt 0.5808 0.8932
vt 0.4863 0.4932
vt 0.4858 0.4929
vt 0.4858 0.5132
vt 0.4863 0.5127
vt 0.5060 0.5132
vt 0.5058 0.5127
vt 0.5060 0.4929
vt 0.5058 0.4932
vn -0.0975 0.1065 -0.9895
vn -0.2886 0.1065 -0.9515
vn 0.0000 -1.0000 0.0000
vn -0.4687 0.1065 -0.8769
vn -0.6308 0.1066 -0.7686
vn -0.7686 0.1066 -0.6308
vn -0.8769 0.1067 -0.4687
vn -0.9515 0.1067 -0.2886
vn -0.9895 0.1067 -0.0975
vn -0.9895 0.1067 0.0975
vn -0.9515 0.1068 0.2886
vn -0.8769 0.1068 0.4687
vn -0.7686 0.1068 0.6308
vn -0.6308 0.1067 0.7686
vn -0.4687 0.1067 0.8769
vn -0.2886 0.1067 0.9515
vn -0.0975 0.1066 0.9895
vn 0.0975 0.1066 0.9895
vn 0.0000 1.0000 -0.0000
vn -0.9316 -0.0010 -0.3635
vn 0.2886 0.1066 0.9515
vn 0.7806 -0.0011 -0.6250
vn -0.8824 -0.1215 0.4545
vn -0.4714 0.0000 -0.8819
vn 0.4687 0.1065 0.8769
vn 0.6308 0.1065 0.7686
vn -0.9797 -0.0010 0.2003
vn -0.7730 -0.0046 -0.6344
vn 0.0848 -0.0011 -0.9964
vn 0.7686 0.1064 0.6308
vn -0.9569 0.0000 -0.2903
vn -0.9952 0.0000 -0.0980
vn -0.3657 -0.0010 0.9307
vn 0.8769 0.1064 0.4687
vn -0.9569 -0.0044 0.2903
vn -0.8135 -0.0010 -0.5815
vn 0.9515 0.1064 0.2886
vn 0.2409 -0.0010 0.9706
vn -0.9778 -0.0010 -0.2097
vn 0.9895 0.1063 0.0975
vn -0.4714 0.0000 0.8819
vn 0.7612 -0.0010 0.6485
vn -0.0980 -0.0046 0.9952
vn 0.9895 0.1063 -0.0975
vn -0.8338 -0.0010 0.5520
vn 0.9515 0.1063 -0.2886
vn 0.2903 0.0000 0.9569
vn 0.8769 0.1063 -0.4687
vn 0.4714 0.0000 0.8819
vn 0.9531 -0.0011 -0.3027
vn -0.2190 -0.0010 0.9757
vn 0.8819 0.0000 0.4714
vn 0.7686 0.1063 -0.6308
vn 0.6281 -0.0011 -0.7782
vn 0.3340 -0.0010 0.9426
vn 0.6308 0.1063 -0.7686
vn 0.9952 0.0000 -0.0980
vn 0.9569 0.0000 -0.2903
vn 0.4687 0.1063 -0.8769
vn 0.8819 0.0000 -0.4714
vn 0.7730 0.0000 -0.6344
vn -0.4350 -0.0010 -0.9004
vn 0.2886 0.1064 -0.9515
vn 0.9946 -0.0011 0.1036
vn 0.0975 0.1064 -0.9895
vn 0.2903 0.0000 -0.9569
vn 0.0980 0.0000 -0.9952
vn -1.0000 0.0000 0.0000
vn 0.0000 0.0000 -1.0000
vn 1.0000 0.0000 0.0000
vn 0.0000 0.0000 1.0000
usemtl None
s off
f 2/1/1 1/2/1 89/3/1
f 3/4/2 1/2/2 2/1/2
f 2/5/3 89/6/3 88/7/3 77/8/3 76/9/3 65/10/3 64/11/3 63/12/3 52/13/3 51/14/3 40/15/3 39/16/3 38/17/3 27/18/3 26/19/3 25/20/3 18/21/3 17/22/3 16/23/3 15/24/3 14/25/3 13/26/3 12/27/3 11/28/3 10/29/3 9/30/3 8/31/3 7/32/3 6/33/3 5/34/3 4/35/3 3/36/3
f 4/37/4 1/2/4 3/4/4
f 5/38/5 1/2/5 4/37/5
f 6/39/6 1/2/6 5/38/6
f 7/40/7 1/2/7 6/39/7
f 8/41/8 1/2/8 7/40/8
f 9/42/9 1/2/9 8/41/9
f 10/43/10 1/2/10 9/42/10
f 11/44/11 1/2/11 10/43/11
f 12/45/12 1/2/12 11/44/12
f 13/46/13 1/2/13 12/45/13
f 14/47/14 1/2/14 13/46/14
f 15/48/15 1/2/15 14/47/15
f 16/49/16 1/2/16 15/48/16
f 17/50/17 1/2/17 16/49/17
f 18/51/18 1/2/18 17/50/18
f 96/52/19 19/53/19 21/54/19 23/55/19 28/56/19 30/57/19 32/58/19 34/59/19 36/60/19 41/61/19 43/62/19 45/63/19 47/64/19 49/65/19 53/66/19 55/67/19 57/68/19 59/69/19 61/70/19 66/71/19 68/72/19 70/73/19 72/74/19 74/75/19 78/76/19 80/77/19 82/78/19 84/79/19 86/80/19 90/81/19 92/82/19 94/83/19
f 20/84/20 19/53/20 96/52/20 97/85/20
f 25/86/21 1/2/21 18/51/21
f 22/87/22 21/54/22 19/53/22 20/84/22
f 20/84/23 97/85/23 95/88/23 93/89/23 91/90/23 87/91/23 85/92/23 83/93/23 81/94/23 79/95/23 75/96/23 73/97/23 71/98/23 69/99/23 67/100/23 62/101/23 60/102/23 58/103/23 56/104/23 54/105/23 50/106/23 48/107/23 46/108/23 44/109/23 42/110/23 37/111/23 35/112/23 33/113/23 31/114/23 29/115/23 24/116/23 22/87/23
f 24/116/24 23/55/24 21/54/24 22/87/24
f 26/117/25 1/2/25 25/86/25
f 27/18/26 1/118/26 26/19/26
f 29/115/27 28/56/27 23/55/27 24/116/27
f 31/114/28 30/57/28 28/56/28 29/115/28
f 33/113/29 32/58/29 30/57/29 31/114/29
f 38/17/30 1/118/30 27/18/30
f 35/112/31 34/59/31 32/58/31 33/113/31
f 37/111/32 36/60/32 34/59/32 35/112/32
f 42/110/33 41/61/33 36/60/33 37/111/33
f 39/16/34 1/118/34 38/17/34
f 44/109/35 43/62/35 41/61/35 42/110/35
f 46/108/36 45/63/36 43/62/36 44/109/36
f 40/119/37 1/2/37 39/120/37
f 48/107/38 47/64/38 45/63/38 46/108/38
f 50/106/39 49/65/39 47/64/39 48/107/39
f 51/121/40 1/2/40 40/119/40
f 54/105/41 53/66/41 49/65/41 50/106/41
f 56/104/42 55/67/42 53/66/42 54/105/42
f 58/103/43 57/68/43 55/67/43 56/104/43
f 52/122/44 1/2/44 51/121/44
f 60/102/45 59/69/45 57/68/45 58/103/45
f 63/123/46 1/2/46 52/122/46
f 62/101/47 61/70/47 59/69/47 60/102/47
f 64/124/48 1/2/48 63/123/48
f 67/100/49 66/71/49 61/70/49 62/101/49
f 69/99/50 68/72/50 66/71/50 67/100/50
f 71/98/51 70/73/51 68/72/51 69/99/51
f 73/97/52 72/74/52 70/73/52 71/98/52
f 65/125/53 1/2/53 64/124/53
f 75/96/54 74/75/54 72/74/54 73/97/54
f 79/95/55 78/76/55 74/75/55 75/96/55
f 76/126/56 1/2/56 65/125/56
f 81/94/57 80/77/57 78/76/57 79/95/57
f 83/93/58 82/78/58 80/77/58 81/94/58
f 77/127/59 1/2/59 76/126/59
f 85/92/60 84/79/60 82/78/60 83/93/60
f 87/91/61 86/80/61 84/79/61 85/92/61
f 91/90/62 90/81/62 86/80/62 87/91/62
f 88/128/63 1/2/63 77/127/63
f 93/89/64 92/82/64 90/81/64 91/90/64
f 89/3/65 1/2/65 88/128/65
f 95/88/66 94/83/66 92/82/66 93/89/66
f 97/85/67 96/52/67 94/83/67 95/88/67
usemtl None_NONE
f 98/129/68 99/130/68 101/131/68 100/132/68
f 100/132/69 101/131/69 105/133/69 104/134/69
f 104/134/70 105/133/70 103/135/70 102/136/70
f 102/136/71 103/135/71 99/130/71 98/129/71
f 100/132/3 104/134/3 102/136/3 98/129/3
f 105/133/19 101/131/19 99/130/19 103/135/19
