# Blender v2.78 (sub 0) OBJ File: 'porta.blend'
# www.blender.org
mtllib porta.mtl
o Cylinder_Cylinder_door
v 0.374875 1.374531 0.375031
v 0.374875 1.374531 0.499969
v -0.374875 1.374531 0.499969
v -0.374875 1.374531 0.375031
v 0.499750 -0.374531 0.375031
v 0.499750 -0.499500 0.375031
v -0.499750 -0.499500 0.375031
v -0.499750 -0.374531 0.375031
v -0.374875 -0.374531 0.375031
v -0.499750 1.374531 0.375031
v 0.374875 0.374969 0.375031
v 0.374875 -0.374531 0.375031
v -0.374875 0.374969 0.375031
v 0.499750 1.374531 0.375031
v -0.499750 1.499500 0.375031
v 0.499750 1.499500 0.375031
v -0.499750 -0.374531 0.499969
v -0.499750 -0.499500 0.499969
v 0.499750 -0.499500 0.499969
v 0.499750 -0.374531 0.499969
v -0.374875 -0.374531 0.499969
v -0.499750 1.374531 0.499969
v 0.499750 1.374531 0.499969
v 0.499750 1.499500 0.499969
v -0.499750 1.499500 0.499969
v 0.374875 -0.374531 0.499969
v -0.374875 0.374969 0.499969
v 0.374875 0.374969 0.499969
v -0.322883 0.477433 0.383695
v -0.322883 0.477433 0.491305
v 0.322883 0.477433 0.383695
v 0.322883 0.477433 0.491305
v -0.375445 0.583666 0.374936
v -0.375445 0.583666 0.500064
v 0.375445 0.583666 0.374936
v 0.375445 0.583666 0.500064
v -0.339279 0.688498 0.380963
v -0.339279 0.688498 0.494037
v 0.339279 0.688498 0.380963
v 0.339279 0.688498 0.494037
v -0.377917 0.809795 0.374524
v -0.377917 0.809795 0.500476
v 0.377917 0.809795 0.374524
v 0.377917 0.809795 0.500476
v -0.319156 0.942985 0.384316
v -0.319156 0.942985 0.490684
v 0.319156 0.942985 0.384316
v 0.319156 0.942985 0.490684
v -0.372386 1.084105 0.375446
v -0.372386 1.084105 0.499554
v 0.372386 1.084105 0.375446
v 0.372386 1.084105 0.499554
v -0.305171 1.214593 0.386647
v -0.305171 1.214593 0.488354
v 0.305171 1.214593 0.386647
v 0.305171 1.214593 0.488354
v -0.373731 1.364783 0.375222
v -0.373731 1.364783 0.499778
v 0.373731 1.364783 0.375222
v 0.373731 1.364783 0.499778
vt 0.7656 0.3125
vt 0.8281 0.3125
vt 0.8281 0.6875
vt 0.7656 0.6875
vt 0.0781 0.0625
vt 0.0781 0.0000
vt 0.5781 0.0000
vt 0.5781 0.0625
vt 0.5156 0.9375
vt 0.5156 0.0625
vt 0.5781 0.9375
vt 0.1406 0.4375
vt 0.1406 0.0625
vt 0.5156 0.4375
vt 0.1406 0.9375
vt 0.0781 0.9375
vt 0.5781 1.0000
vt 0.0781 1.0000
vt 0.5781 0.0625
vt 0.5781 0.0000
vt 0.0781 0.0000
vt 0.0781 0.0625
vt 0.5156 0.0625
vt 0.5156 0.9375
vt 0.5781 0.9375
vt 0.0781 0.9375
vt 0.0781 1.0000
vt 0.5781 1.0000
vt 0.1406 0.9375
vt 0.1406 0.0625
vt 0.5156 0.4375
vt 0.1406 0.4375
vt 0.7656 0.2500
vt 0.8281 0.2500
vt 0.8281 0.7500
vt 0.7656 0.7500
vt 0.7344 0.2500
vt 0.7344 0.7500
vt 0.6719 0.7500
vt 0.6719 0.2500
vt 0.6406 0.0000
vt 0.6406 1.0000
vt 0.0156 1.0000
vt 0.0156 0.0000
vt 0.5156 0.4375
vt 0.1406 0.4375
vt 0.6406 0.9375
vt 0.5781 0.9375
vt 0.5781 0.4375
vt 0.6406 0.4375
vt 0.0781 0.9375
vt 0.0156 0.9375
vt 0.0156 0.4375
vt 0.0781 0.4375
vt 0.5156 0.8829
vt 0.1406 0.8829
vt 0.1406 0.8829
vt 0.5156 0.8829
vt 0.5156 0.8829
vt 0.1406 0.8829
vt 0.5781 0.4375
vt 0.6406 0.4375
vt 0.0156 0.4375
vt 0.0781 0.4375
vt 0.1406 0.8829
vt 0.5156 0.8829
vt 0.0156 0.4375
vt 0.0781 0.4375
vt 0.5156 0.4375
vt 0.1406 0.4375
vt 0.5781 0.4375
vt 0.6406 0.4375
vt 0.1406 0.4375
vt 0.5156 0.4375
vt 0.5156 0.4375
vt 0.1406 0.4375
vt 0.0156 0.4375
vt 0.0781 0.4375
vt 0.5781 0.4375
vt 0.6406 0.4375
vt 0.5132 0.7082
vt 0.1382 0.7082
vt 0.1382 0.7082
vt 0.5132 0.7082
vt 0.5781 0.4375
vt 0.6406 0.4375
vt 0.1406 0.8829
vt 0.5156 0.8829
vt 0.0156 0.4375
vt 0.0781 0.4375
vt 0.0781 0.4375
vt 0.0156 0.4375
vt 0.0156 0.4375
vt 0.0781 0.4375
vt 0.5156 0.4375
vt 0.1406 0.4375
vt 0.5781 0.4375
vt 0.6406 0.4375
vt 0.1406 0.4375
vt 0.5156 0.4375
vt 0.5156 0.4375
vt 0.1406 0.4375
vt 0.5781 0.4375
vt 0.6406 0.4375
vt 0.5169 0.7709
vt 0.1419 0.7709
vt 0.1419 0.7709
vt 0.5169 0.7709
vt 0.5156 0.8829
vt 0.1406 0.8829
vt 0.1406 0.8829
vt 0.5156 0.8829
vt 0.5781 0.4375
vt 0.6406 0.4375
vt 0.5169 0.8448
vt 0.1419 0.8448
vt 0.1419 0.8448
vt 0.5169 0.8448
vt 0.0156 0.4375
vt 0.0781 0.4375
vt 0.7344 0.3125
vt 0.7344 0.6875
vt 0.6719 0.6875
vt 0.6719 0.3125
vt 0.0156 0.4375
vt 0.0781 0.4375
vt 0.5156 0.4375
vt 0.1406 0.4375
vt 0.5781 0.4375
vt 0.6406 0.4375
vn 0.0000 -1.0000 0.0000
vn 0.0000 0.0000 -1.0000
vn 0.0000 0.0000 1.0000
vn 0.0000 1.0000 0.0000
vn -1.0000 -0.0000 0.0000
vn 1.0000 -0.0000 0.0000
vn 0.7050 0.4069 -0.5808
vn -0.7050 0.4069 -0.5808
vn -0.5500 0.3435 -0.7613
vn 0.5500 0.3435 -0.7613
vn -0.5546 -0.3371 0.7608
vn 0.5546 -0.3371 0.7608
vn 0.7071 -0.3981 0.5844
vn -0.7071 -0.3981 0.5844
vn -0.7050 0.4069 0.5808
vn 0.7050 0.4069 0.5808
vn 0.5500 0.3435 0.7613
vn -0.5500 0.3435 0.7613
vn -0.7254 0.2862 0.6260
vn 0.7254 0.2862 0.6260
vn 0.6084 0.2531 0.7522
vn -0.6084 0.2531 0.7522
vn -0.5546 -0.3371 -0.7608
vn -0.7071 -0.3981 -0.5844
vn 0.5546 -0.3371 -0.7608
vn 0.7071 -0.3981 -0.5844
vn 0.6176 -0.2365 -0.7501
vn -0.6176 -0.2365 -0.7501
vn -0.7272 -0.2653 -0.6331
vn 0.7272 -0.2653 -0.6331
vn -0.7254 0.2862 -0.6260
vn -0.6084 0.2531 -0.7522
vn 0.7254 0.2862 -0.6260
vn 0.6084 0.2531 -0.7522
vn -0.7151 0.3596 0.5994
vn 0.7151 0.3596 0.5994
vn 0.5740 0.3090 0.7583
vn -0.5740 0.3090 0.7583
vn 0.6176 -0.2365 0.7501
vn 0.7272 -0.2653 0.6331
vn -0.6176 -0.2365 0.7501
vn -0.7272 -0.2653 0.6331
vn -0.5970 -0.2726 -0.7545
vn -0.5970 -0.2726 0.7545
vn -0.7226 -0.3114 0.6172
vn -0.7226 -0.3114 -0.6172
vn -0.7151 0.3596 -0.5994
vn -0.5740 0.3090 -0.7583
vn 0.7151 0.3596 -0.5994
vn 0.5740 0.3090 -0.7583
vn 0.7037 0.4122 -0.5787
vn -0.7037 0.4122 -0.5787
vn -0.5472 0.3473 -0.7615
vn 0.5472 0.3473 -0.7615
vn 0.5970 -0.2726 -0.7545
vn 0.7226 -0.3114 -0.6172
vn 0.5970 -0.2726 0.7545
vn 0.7226 -0.3114 0.6172
vn -0.5684 -0.3172 0.7591
vn 0.5684 -0.3172 0.7591
vn 0.7130 -0.3707 0.5952
vn -0.7130 -0.3707 0.5952
vn 0.7037 0.4122 0.5787
vn 0.5472 0.3473 0.7615
vn -0.7037 0.4122 0.5787
vn -0.5472 0.3473 0.7615
vn -0.5684 -0.3172 -0.7591
vn -0.7130 -0.3707 -0.5952
vn 0.5684 -0.3172 -0.7591
vn 0.7130 -0.3707 -0.5952
usemtl None
s 1
f 1/1/1 2/2/1 3/3/1 4/4/1
f 5/5/2 6/6/2 7/7/2 8/8/2
f 4/9/2 9/10/2 8/8/2 10/11/2
f 11/12/2 12/13/2 9/10/2 13/14/2
f 5/5/2 12/13/2 1/15/2 14/16/2
f 14/16/2 10/11/2 15/17/2 16/18/2
f 17/19/3 18/20/3 19/21/3 20/22/3
f 17/19/3 21/23/3 3/24/3 22/25/3
f 22/25/3 23/26/3 24/27/3 25/28/3
f 2/29/3 26/30/3 20/22/3 23/26/3
f 27/31/3 21/23/3 26/30/3 28/32/3
f 6/33/1 19/34/1 18/35/1 7/36/1
f 16/37/4 15/38/4 25/39/4 24/40/4
f 15/17/5 7/7/5 18/41/5 25/42/5
f 6/6/6 16/18/6 24/43/6 19/44/6
f 11/12/7 13/14/8 29/45/9 31/46/10
f 2/47/5 1/48/5 11/49/5 28/50/5
f 4/51/6 3/52/6 27/53/6 13/54/6
f 30/55/11 32/56/12 36/57/13 34/58/14
f 27/59/15 28/60/16 32/56/17 30/55/18
f 28/50/16 11/49/7 31/61/10 32/62/17
f 13/54/8 27/53/15 30/63/18 29/64/9
f 34/58/19 36/57/20 40/65/21 38/66/22
f 29/64/23 30/63/11 34/67/14 33/68/24
f 31/46/25 29/45/23 33/69/24 35/70/26
f 32/62/12 31/61/25 35/71/26 36/72/13
f 39/73/27 37/74/28 41/75/29 43/76/30
f 33/68/31 34/67/19 38/77/22 37/78/32
f 35/70/33 33/69/31 37/74/32 39/73/34
f 36/72/20 35/71/33 39/79/34 40/80/21
f 42/81/35 44/82/36 48/83/37 46/84/38
f 40/80/39 39/79/27 43/85/30 44/86/40
f 38/66/41 40/65/39 44/87/40 42/88/42
f 37/78/28 38/77/41 42/89/42 41/90/29
f 45/91/43 46/92/44 50/93/45 49/94/46
f 41/90/47 42/89/35 46/92/38 45/91/48
f 43/76/49 41/75/47 45/95/48 47/96/50
f 44/86/36 43/85/49 47/97/50 48/98/37
f 51/99/51 49/100/52 53/101/53 55/102/54
f 47/96/55 45/95/43 49/100/46 51/99/56
f 48/98/57 47/97/55 51/103/56 52/104/58
f 46/105/44 48/106/57 52/107/58 50/108/45
f 54/109/59 56/110/60 60/111/61 58/112/62
f 52/104/63 51/103/51 55/113/54 56/114/64
f 50/115/65 52/116/63 56/117/64 54/118/66
f 49/94/52 50/93/65 54/119/66 53/120/53
f 59/121/4 57/122/4 58/123/4 60/124/4
f 53/120/67 54/119/59 58/125/62 57/126/68
f 55/102/69 53/101/67 57/127/68 59/128/70
f 56/114/60 55/113/69 59/129/70 60/130/61
