# Made in Blockbench 4.6.4
mtllib leads_lead.mtl

o cube
v 0.03125 0.03125 0.5
v 0.03125 0.03125 -0.5
v 0.03125 -0.03125 0.5
v 0.03125 -0.03125 -0.5
v -0.03125 0.03125 -0.5
v -0.03125 0.03125 0.5
v -0.03125 -0.03125 -0.5
v -0.03125 -0.03125 0.5
vt 0 1
vt 0 1
vt 0 0
vt 0 0
vt 1 0
vt 0 0
vt 0 1
vt 1 1
vt 0 1
vt 0 1
vt 0 0
vt 0 0
vt 0 1
vt 1 1
vt 1 0
vt 0 0
vt 0 0
vt 0 1
vt 1 1
vt 1 0
vt 1 1
vt 1 0
vt 0 0
vt 0 1
vn 0 0 -1
vn 1 0 0
vn 0 0 1
vn -1 0 0
vn 0 1 0
vn 0 -1 0
usemtl m_23be694f-bb73-ca4f-4e50-c3ef0f3838f0
f 4/4/1 7/3/1 5/2/1 2/1/1
f 3/8/2 4/7/2 2/6/2 1/5/2
f 8/12/3 3/11/3 1/10/3 6/9/3
f 7/16/4 8/15/4 6/14/4 5/13/4
f 6/20/5 1/19/5 2/18/5 5/17/5
f 7/24/6 4/23/6 3/22/6 8/21/6